o mesh0_lod1.obj
v -0.02927398681640625 0.04328107833862305 0.4335615634918213
v 0.029270172119140625 0.043280601501464844 0.4335618019104004
v 0.029270172119140625 0.35878992080688477 -5.0067901611328125e-06
v -0.02927398681640625 0.35879039764404297 -4.76837158203125e-06
v 0.029272079467773438 0.2614448070526123 -3.814697265625e-06
v 0.029272079467773438 0.11770415306091309 0.19752073287963867
v -0.02927398681640625 0.11770415306091309 0.19752025604248047
v -0.02927398681640625 0.2614443302154541 -3.814697265625e-06
v 0.029275894165039062 0.07846856117248535 0.2352619171142578
v -0.02927398681640625 0.07846879959106445 0.2352614402770996
v 0.02927398681640625 0.03923344612121582 0.2579066753387451
v -0.029275894165039062 0.03923392295837402 0.257906436920166
v 0.029272079467773438 0.0 0.2654547691345215
v -0.02927398681640625 0.0 0.2654542922973633
v 0.029272079467773438 -0.2614448070526123 -3.814697265625e-06
v -0.02927398681640625 -0.2614443302154541 -3.814697265625e-06
v -0.02927398681640625 -0.11770415306091309 0.19752025604248047
v 0.029272079467773438 -0.11770415306091309 0.19752073287963867
v 0.029275894165039062 -0.07846856117248535 0.2352619171142578
v -0.02927398681640625 -0.07846879959106445 0.2352614402770996
v 0.02927398681640625 -0.03923344612121582 0.2579066753387451
v -0.029275894165039062 -0.03923392295837402 0.257906436920166
v 0.029272079467773438 0.0 0.2654547691345215
v -0.02927398681640625 0.0 0.2654542922973633
v 0.029270172119140625 -0.35878992080688477 -5.0067901611328125e-06
v 0.029270172119140625 -0.04328012466430664 0.4335618019104004
v -0.02927398681640625 -0.043280839920043945 0.4335615634918213
v -0.02927398681640625 -0.35879039764404297 -4.76837158203125e-06
v -0.02927398681640625 -0.11770415306091309 0.19752025604248047
v -0.02927398681640625 -0.2614443302154541 -3.814697265625e-06
v -0.02927398681640625 -0.35879039764404297 -4.76837158203125e-06
v -0.02927398681640625 -0.07846879959106445 0.2352614402770996
v -0.02927398681640625 2.384185791015625e-07 0.4335615634918213
v -0.02927398681640625 -0.043280839920043945 0.4335615634918213
v -0.029275894165039062 -0.03923392295837402 0.257906436920166
v -0.02927398681640625 0.0 0.2654542922973633
v 0.029270172119140625 -0.04328012466430664 0.4335618019104004
v 0.029270172119140625 -0.35878992080688477 -5.0067901611328125e-06
v 0.029272079467773438 -0.2614448070526123 -3.814697265625e-06
v 0.029272079467773438 -0.11770415306091309 0.19752073287963867
v 0.029275894165039062 -0.07846856117248535 0.2352619171142578
v 0.02927398681640625 -0.03923344612121582 0.2579066753387451
v 0.029272079467773438 0.0 0.2654547691345215
v 0.029270172119140625 2.384185791015625e-07 0.4335618019104004
v -0.02927398681640625 2.384185791015625e-07 0.4335615634918213
v -0.02927398681640625 0.04328107833862305 0.4335615634918213
v -0.02927398681640625 0.35879039764404297 -4.76837158203125e-06
v -0.02927398681640625 0.2614443302154541 -3.814697265625e-06
v -0.02927398681640625 0.11770415306091309 0.19752025604248047
v -0.02927398681640625 0.07846879959106445 0.2352614402770996
v -0.029275894165039062 0.03923392295837402 0.257906436920166
v -0.02927398681640625 0.0 0.2654542922973633
v 0.029272079467773438 0.11770415306091309 0.19752073287963867
v 0.029272079467773438 0.2614448070526123 -3.814697265625e-06
v 0.029270172119140625 0.35878992080688477 -5.0067901611328125e-06
v 0.029275894165039062 0.07846856117248535 0.2352619171142578
v 0.029270172119140625 0.043280601501464844 0.4335618019104004
v 0.02927398681640625 0.03923344612121582 0.2579066753387451
v 0.029272079467773438 0.0 0.2654547691345215
v 0.029270172119140625 2.384185791015625e-07 0.4335618019104004
vn 0.0 0.8082191780821918 0.5870841487279843
vn 0.0 0.8082191780821918 0.5870841487279843
vn 0.0 0.8082191780821918 0.5870841487279843
vn 0.0 0.8082191780821918 0.5870841487279843
vn 0.0 -0.8082191780821918 -0.5870841487279843
vn 0.0 -0.7534246575342466 -0.6555772994129159
vn 0.0 -0.7534246575342466 -0.6555772994129159
vn 0.0 -0.8082191780821918 -0.5870841487279843
vn 0.0 -0.6007827788649707 -0.7984344422700587
vn 0.0 -0.6007827788649707 -0.7984344422700587
vn 0.0 -0.34833659491193736 -0.9354207436399217
vn 0.0 -0.34833659491193736 -0.9354207436399217
vn 0.0 0.0 -1.0
vn 0.0 0.0 -1.0
vn 0.0 0.8082191780821918 -0.5870841487279843
vn 0.0 0.8082191780821918 -0.5870841487279843
vn 0.0 0.7534246575342466 -0.6555772994129159
vn 0.0 0.7534246575342466 -0.6555772994129159
vn 0.0 0.6007827788649707 -0.7984344422700587
vn 0.0 0.6007827788649707 -0.7984344422700587
vn 0.0 0.34833659491193736 -0.9354207436399217
vn 0.0 0.34833659491193736 -0.9354207436399217
vn 0.0 0.0 -1.0
vn 0.0 0.0 -1.0
vn 0.0 -0.8082191780821918 0.5870841487279843
vn 0.0 -0.8082191780821918 0.5870841487279843
vn 0.0 -0.8082191780821918 0.5870841487279843
vn 0.0 -0.8082191780821918 0.5870841487279843
vn -1.0 0.0 0.0
vn -1.0 0.0 0.0
vn -1.0 0.0 0.0
vn -1.0 0.0 0.0
vn -1.0 0.0 0.0
vn -1.0 0.0 0.0
vn -1.0 0.0 0.0
vn -1.0 0.0 0.0
vn 1.0 0.0 0.0
vn 1.0 0.0 0.0
vn 1.0 0.0 0.0
vn 1.0 0.0 0.0
vn 1.0 0.0 0.0
vn 1.0 0.0 0.0
vn 1.0 0.0 0.0
vn 1.0 0.0 0.0
vn -1.0 0.0 0.0
vn -1.0 0.0 0.0
vn -1.0 0.0 0.0
vn -1.0 0.0 0.0
vn -1.0 0.0 0.0
vn -1.0 0.0 0.0
vn -1.0 0.0 0.0
vn -1.0 0.0 0.0
vn 0.9980430528375733 0.0 0.0
vn 1.0 0.0 0.0
vn 1.0 0.0 0.0
vn 1.0 0.0 0.0
vn 1.0 0.0 0.0
vn 1.0 0.0 0.0
vn 1.0 0.0 0.0
vn 1.0 0.0 0.0
vt 0.0027881611604243517 0.0038915444165468216
vt 0.002788099693134427 0.001917368732392788
vt 0.020869117230176926 0.0019173768814653158
vt 0.020869161933660507 0.0038914186879992485
vt 0.013256128877401352 0.003887635190039873
vt 0.005018558818846941 0.003891125787049532
vt 0.005018171388655901 0.0019169654697179794
vt 0.013255324214696884 0.0019134788308292627
vt 0.0031826465856283903 0.0038913737516850233
vt 0.0031826316844671965 0.0019170891027897596
vt 0.0016551133012399077 0.0038914354518055916
vt 0.001655098400078714 0.0019171464955434203
vt 0.0003078546142205596 0.003891431260854006
vt 0.00030783971305936575 0.0019172744359821081
vt 0.013256128877401352 0.003887635190039873
vt 0.013255324214696884 0.0019134788308292627
vt 0.005018171388655901 0.0019169654697179794
vt 0.005018558818846941 0.003891125787049532
vt 0.0031826465856283903 0.0038913737516850233
vt 0.0031826316844671965 0.0019170891027897596
vt 0.0016551133012399077 0.0038914354518055916
vt 0.001655098400078714 0.0019171464955434203
vt 0.0003078546142205596 0.003891431260854006
vt 0.00030783971305936575 0.0019172744359821081
vt 0.020869117230176926 0.0019173768814653158
vt 0.002788099693134427 0.001917368732392788
vt 0.0027881611604243517 0.0038915444165468216
vt 0.020869161933660507 0.0038914186879992485
vt 0.009151417762041092 0.018299253657460213
vt 0.017179150134325027 0.018300745636224747
vt 0.01906191185116768 0.015714574605226517
vt 0.007389903999865055 0.018611695617437363
vt 0.0006040019798092544 0.016861114650964737
vt 0.0014410814037546515 0.015711262822151184
vt 0.0060294573195278645 0.01921609789133072
vt 0.005070128012448549 0.020112426951527596
vt 0.0014410814037546515 0.015711262822151184
vt 0.01906191185116768 0.015714574605226517
vt 0.017179150134325027 0.018300745636224747
vt 0.009151417762041092 0.018299253657460213
vt 0.007389903999865055 0.018611695617437363
vt 0.0060294573195278645 0.01921609789133072
vt 0.005070128012448549 0.020112426951527596
vt 0.0006040019798092544 0.016861114650964737
vt 0.0006040019798092544 0.016861114650964737
vt 0.0014410814037546515 0.015711262822151184
vt 0.01906191185116768 0.015714574605226517
vt 0.017179150134325027 0.018300745636224747
vt 0.009151417762041092 0.018299253657460213
vt 0.007389903999865055 0.018611695617437363
vt 0.0060294573195278645 0.01921609789133072
vt 0.005070128012448549 0.020112426951527596
vt 0.009151417762041092 0.018299253657460213
vt 0.017179150134325027 0.018300745636224747
vt 0.01906191185116768 0.015714574605226517
vt 0.007389903999865055 0.018611695617437363
vt 0.0014410814037546515 0.015711262822151184
vt 0.0060294573195278645 0.01921609789133072
vt 0.005070128012448549 0.020112426951527596
vt 0.0006040019798092544 0.016861114650964737
usemtl TechnicsTrims
f 1/1/1 2/2/2 3/3/3
f 3/3/3 4/4/4 1/1/1
f 5/5/5 6/6/6 7/7/7
f 7/7/7 8/8/8 5/5/5
f 7/7/7 6/6/6 9/9/9
f 9/9/9 10/10/10 7/7/7
f 10/10/10 9/9/9 11/11/11
f 11/11/11 12/12/12 10/10/10
f 12/12/12 11/11/11 13/13/13
f 13/13/13 14/14/14 12/12/12
f 15/15/15 16/16/16 17/17/17
f 17/17/17 18/18/18 15/15/15
f 19/19/19 18/18/18 17/17/17
f 17/17/17 20/20/20 19/19/19
f 21/21/21 19/19/19 20/20/20
f 20/20/20 22/22/22 21/21/21
f 23/23/23 21/21/21 22/22/22
f 22/22/22 24/24/24 23/23/23
f 25/25/25 26/26/26 27/27/27
f 27/27/27 28/28/28 25/25/25
f 29/29/29 30/30/30 31/31/31
f 32/32/32 29/29/29 31/31/31
f 32/32/32 31/31/31 33/33/33
f 31/31/31 34/34/34 33/33/33
f 32/32/32 33/33/33 35/35/35
f 33/33/33 36/36/36 35/35/35
f 37/37/37 38/38/38 39/39/39
f 37/37/37 39/39/39 40/40/40
f 37/37/37 40/40/40 41/41/41
f 37/37/37 41/41/41 42/42/42
f 37/37/37 42/42/42 43/43/43
f 37/37/37 43/43/43 44/44/44
f 45/45/45 46/46/46 47/47/47
f 47/47/47 48/48/48 49/49/49
f 45/45/45 47/47/47 49/49/49
f 45/45/45 49/49/49 50/50/50
f 45/45/45 50/50/50 51/51/51
f 45/45/45 51/51/51 52/52/52
f 53/53/53 54/54/54 55/55/55
f 56/56/56 53/53/53 55/55/55
f 56/56/56 55/55/55 57/57/57
f 58/58/58 56/56/56 57/57/57
f 59/59/59 58/58/58 57/57/57
f 59/59/59 57/57/57 60/60/60
