o mesh1_lod2.obj
v -0.02927398681640625 -0.35879039764404297 -4.76837158203125e-06
v -1.9073486328125e-06 1.7881393432617188e-07 0.4335617125034332
v -0.02927398681640625 0.0 0.31074196100234985
v -1.9073486328125e-06 1.7881393432617188e-07 0.4335617125034332
v 0.029270172119140625 -0.35878992080688477 -5.0067901611328125e-06
v 0.029283523559570312 7.450580596923828e-09 0.31074172258377075
v -1.9073486328125e-06 1.7881393432617188e-07 0.4335617125034332
v -0.02927398681640625 0.35879039764404297 -4.76837158203125e-06
v -0.02927398681640625 0.0 0.31074196100234985
v 0.029283523559570312 7.450580596923828e-09 0.31074172258377075
v 0.029270172119140625 0.35878992080688477 -5.0067901611328125e-06
v -1.9073486328125e-06 1.7881393432617188e-07 0.4335617125034332
vn -0.9530332681017613 -0.19569471624266144 0.22700587084148727
vn 0.0 0.0 1.0
vn -0.9530332681017613 -0.19569471624266144 0.22700587084148727
vn 0.0 0.0 1.0
vn 0.9530332681017613 -0.19569471624266144 0.22700587084148727
vn 0.9530332681017613 -0.19569471624266144 0.22700587084148727
vn 0.0 0.0 1.0
vn -0.9530332681017613 0.19569471624266144 0.22700587084148727
vn -0.9530332681017613 0.19569471624266144 0.22700587084148727
vn 0.9530332681017613 0.19569471624266144 0.22700587084148727
vn 0.9530332681017613 0.19569471624266144 0.22700587084148727
vn 0.0 0.0 1.0
vt 0.01906193420290947 0.01571454480290413
vt 0.0014410775620490313 0.015711266547441483
vt 0.0058899191208183765 0.01951315812766552
vt 0.0014410775620490313 0.015711266547441483
vt 0.01906193420290947 0.01571454480290413
vt 0.0058899191208183765 0.01951315812766552
vt 0.0014410775620490313 0.015711266547441483
vt 0.01906193420290947 0.01571454480290413
vt 0.0058899191208183765 0.01951315812766552
vt 0.0058899191208183765 0.01951315812766552
vt 0.01906193420290947 0.01571454480290413
vt 0.0014410775620490313 0.015711266547441483
usemtl TechnicsTrims
f 1/1/1 2/2/2 3/3/3
f 4/4/4 5/5/5 6/6/6
f 7/7/7 8/8/8 9/9/9
f 10/10/10 11/11/11 12/12/12
