o mesh3_lod2.obj
v 28.961095809936523 -32.0 2.4728751182556152
v 28.961095809936523 -0.0 2.4728751182556152
v 28.807662963867188 -0.0 2.4728751182556152
v 28.807662963867188 -32.0 2.4728751182556152
v 28.807662963867188 -0.0 2.4728751182556152
v 28.807662963867188 -0.0 2.3728644847869873
v 28.807662963867188 -32.0 2.3728644847869873
v 28.807662963867188 -32.0 2.4728751182556152
v 3.1923465728759766 -32.0 2.4728753566741943
v 3.1923465728759766 -0.0 2.4728753566741943
v 3.0389137268066406 -0.0 2.4728753566741943
v 3.0389137268066406 -32.0 2.4728753566741943
v 3.1923465728759766 -0.0 2.3728647232055664
v 3.1923465728759766 -0.0 2.4728753566741943
v 3.1923465728759766 -32.0 2.4728753566741943
v 3.1923465728759766 -32.0 2.3728647232055664
vn 0.0 -0.0 1.0
vn 0.0 -0.0 1.0
vn 0.0 -0.0 1.0
vn 0.0 -0.0 1.0
vn -1.0 -0.0 0.0
vn -1.0 -0.0 0.0
vn -1.0 -0.0 0.0
vn -1.0 -0.0 0.0
vn 0.0 -0.0 1.0
vn 0.0 -0.0 1.0
vn 0.0 -0.0 1.0
vn 0.0 -0.0 1.0
vn 1.0 -0.0 0.0
vn 1.0 -0.0 0.0
vn 1.0 -0.0 0.0
vn 1.0 -0.0 0.0
vt 1.0000035762786865 0.050856590270996094
vt 4.3034283407905605e-06 0.050856590270996094
vt 4.3034283407905605e-06 0.0316770076751709
vt 1.000003695487976 0.031677551567554474
vt 4.3034283407905605e-06 0.0316770076751709
vt 4.3034283407905605e-06 0.019177675247192383
vt 1.000003695487976 0.019178254529833794
vt 1.000003695487976 0.031677551567554474
vt 6.000000476837158 0.03168027848005295
vt 7.0 0.03168082237243652
vt 7.0 0.050856590270996094
vt 6.000000476837158 0.050856590270996094
vt 7.0 0.01918172836303711
vt 7.0 0.03168082237243652
vt 6.000000476837158 0.03168027848005295
vt 6.000000476837158 0.0191811490803957
usemtl TrackBorders
f 1/1/1 2/2/2 3/3/3
f 3/3/3 4/4/4 1/1/1
f 5/5/5 6/6/6 7/7/7
f 7/7/7 8/8/8 5/5/5
f 9/9/9 10/10/10 11/11/11
f 11/11/11 12/12/12 9/9/9
f 13/13/13 14/14/14 15/15/15
f 15/15/15 16/16/16 13/13/13
