o mesh4_lod4.obj
v 2.56884765625 -32.0 2.732217788696289
v 2.56884765625 -31.999998092651367 0.27517271041870117
v 2.5507869720458984 -32.58442687988281 0.29323700070381165
v 2.5489654541015625 -32.584434509277344 2.7123308181762695
v 1.4999446868896484 -32.0 2.3543834686279297e-05
v 1.4998722076416016 -32.0 0.9649049639701843
v 2.136859893798828 -31.999998092651367 0.2751729488372803
v 2.7001266479492188 -31.9999942779541 -1.7881393432617188e-06
v 2.1368026733398438 -32.0 2.732217788696289
v 2.56884765625 -31.999998092651367 0.27517271041870117
v 1.4998703002929688 -32.0 3.0000016689300537
v 2.70013427734375 -32.00000762939453 2.8000566959381104
v 2.56884765625 -32.0 2.732217788696289
v 3.199249267578125 -32.0 2.964855909347534
v 3.199249267578125 -32.0 2.8000547885894775
v 2.1368026733398438 -32.0 2.732217788696289
v 2.56884765625 -32.0 2.732217788696289
v 2.5489654541015625 -32.584434509277344 2.7123308181762695
v 2.1566944122314453 -32.584434509277344 2.7123308181762695
v 2.136859893798828 -31.999998092651367 0.2751729488372803
v 2.1368026733398438 -32.0 2.732217788696289
v 2.1566944122314453 -32.584434509277344 2.7123308181762695
v 2.1549320220947266 -32.58443069458008 0.2932371199131012
v 2.56884765625 -31.999998092651367 0.27517271041870117
v 2.136859893798828 -31.999998092651367 0.2751729488372803
v 2.1549320220947266 -32.58443069458008 0.2932371199131012
v 2.5507869720458984 -32.58442687988281 0.29323700070381165
v 2.5489654541015625 -32.584434509277344 2.7123308181762695
v 2.5507869720458984 -32.58442687988281 0.29323700070381165
v 2.1549320220947266 -32.58443069458008 0.2932371199131012
v 2.1566944122314453 -32.584434509277344 2.7123308181762695
vn -0.9980430528375733 0.033268101761252444 0.0
vn -0.9980430528375733 0.029354207436399216 0.0
vn -0.9980430528375733 0.03131115459882583 0.0
vn -0.9980430528375733 0.033268101761252444 0.0
vn 0.0 1.0 0.0
vn 0.0 1.0 0.0
vn 0.0 1.0 0.0
vn 0.0 1.0 0.0
vn 0.0 1.0 0.0
vn 0.0 1.0 0.0
vn 0.0 1.0 0.0
vn 0.0 1.0 0.0
vn 0.0 1.0 0.0
vn 0.0 1.0 0.0
vn 0.0 1.0 0.0
vn 0.0 0.033268101761252444 -0.9980430528375733
vn 0.0 0.033268101761252444 -0.9980430528375733
vn 0.0 0.033268101761252444 -0.9980430528375733
vn 0.0 0.033268101761252444 -0.9980430528375733
vn 0.9980430528375733 0.03131115459882583 0.0
vn 0.9980430528375733 0.033268101761252444 0.0
vn 0.9980430528375733 0.033268101761252444 0.0
vn 0.9980430528375733 0.029354207436399216 0.0
vn 0.0 0.029354207436399216 0.9980430528375733
vn 0.0 0.029354207436399216 0.9980430528375733
vn 0.0 0.029354207436399216 0.9980430528375733
vn 0.0 0.029354207436399216 0.9980430528375733
vn 0.0 1.0 0.0
vn 0.0 1.0 0.0
vn 0.0 1.0 0.0
vn 0.0 1.0 0.0
vt 0.6344945430755615 0.9032576084136963
vt 0.7889736890792847 0.9032812118530273
vt 0.7889758348464966 0.8718354105949402
vt 0.6344972848892212 0.87181156873703
vt 0.8246301412582397 0.9046444892883301
vt 0.7540373206138611 0.9046444892883301
vt 0.8019247055053711 0.9516487121582031
vt 0.8246301412582397 0.9903948307037354
vt 0.6291815042495728 0.9516448378562927
vt 0.8019744753837585 0.9796699285507202
vt 0.6084856390953064 0.9046646356582642
vt 0.6230456829071045 0.9902113676071167
vt 0.6292312145233154 0.979669988155365
vt 0.6085379123687744 1.0259499549865723
vt 0.6230456829071045 1.0259499549865723
vt 0.6105740070343018 0.9032564759254456
vt 0.6344945430755615 0.9032576084136963
vt 0.6344972848892212 0.87181156873703
vt 0.6105743646621704 0.8718103766441345
vt 0.8150412440299988 0.9032785296440125
vt 0.9695228934288025 0.9032770991325378
vt 0.9695229530334473 0.871830403804779
vt 0.8150407671928406 0.8718328475952148
vt 0.7889736890792847 0.9032812118530273
vt 0.8150412440299988 0.9032785296440125
vt 0.8150407671928406 0.8718328475952148
vt 0.7889758348464966 0.8718354105949402
vt 0.6292312145233154 0.979669988155365
vt 0.8021049499511719 0.9798001646995544
vt 0.8020547032356262 0.9515188336372375
vt 0.6291815042495728 0.9516448378562927
usemtl Technics
f 1/1/1 2/2/2 3/3/3
f 3/3/3 4/4/4 1/1/1
f 5/5/5 6/6/6 7/7/7
f 8/8/8 5/5/5 7/7/7
f 7/7/7 6/6/6 9/9/9
f 7/7/7 10/10/10 8/8/8
f 9/9/9 6/6/6 11/11/11
f 12/12/12 8/8/8 10/10/10
f 9/9/9 11/11/11 12/12/12
f 10/10/10 13/13/13 12/12/12
f 12/12/12 13/13/13 9/9/9
f 14/14/14 12/12/12 11/11/11
f 14/14/14 15/15/15 12/12/12
f 16/16/16 17/17/17 18/18/18
f 18/18/18 19/19/19 16/16/16
f 20/20/20 21/21/21 22/22/22
f 22/22/22 23/23/23 20/20/20
f 24/24/24 25/25/25 26/26/26
f 26/26/26 27/27/27 24/24/24
f 28/28/28 29/29/29 30/30/30
f 30/30/30 31/31/31 28/28/28
