o mesh5_lod8.obj
v 1.4999446868896484 -32.0 2.3543834686279297e-05
v 1.4998703002929688 -32.0 3.0000016689300537
v 2.7001266479492188 -32.0 2.9751787185668945
v 2.7001266479492188 -31.9999942779541 -1.7881393432617188e-06
vn 0.0 1.0 0.0
vn 0.0 1.0 0.0
vn 0.0 1.0 0.0
vn 0.0 1.0 0.0
vt 0.8246301412582397 0.9046444892883301
vt 0.6084856390953064 0.9046645760536194
vt 0.6085379123687744 0.9902112483978271
vt 0.8246301412582397 0.9903948307037354
usemtl Technics
f 1/1/1 2/2/2 3/3/3
f 3/3/3 4/4/4 1/1/1
