o mesh0_lod1.obj
v 1.5000004768371582 -4.5299530029296875e-06 1.0
v 1.500004768371582 -9.536345714877825e-06 1.9068235133090639e-06
v 1.408743954822711e-10 -9.536345714877825e-06 1.9068235133090639e-06
v 1.5000004768371582 -4.5299530029296875e-06 2.0
v 1.5000004768371582 -4.5299530029296875e-06 3.0
v 1.5000004768371582 -4.5299530029296875e-06 4.0
v 1.5000004768371582 -4.5299530029296875e-06 5.0
v 1.5000004768371582 -4.5299530029296875e-06 6.0
v 1.5000004768371582 -4.5299530029296875e-06 7.0
v 1.5000004768371582 -4.5299530029296875e-06 8.0
v 7.629751053173095e-06 -9.536714060232043e-06 16.000001907348633
v 1.5000004768371582 -4.5299530029296875e-06 9.0
v 1.5000004768371582 -4.5299530029296875e-06 10.0
v 1.5000004768371582 -4.5299530029296875e-06 11.0
v 1.5000004768371582 -4.5299530029296875e-06 12.0
v 1.5000004768371582 -4.5299530029296875e-06 13.0
v 1.5000004768371582 -4.5299530029296875e-06 14.0
v 1.5000004768371582 -4.5299530029296875e-06 15.0
v 1.5000004768371582 -4.5299530029296875e-06 16.0
v 1.5000004768371582 -4.5299530029296875e-06 17.0
v 1.5000004768371582 -4.5299530029296875e-06 18.0
v 1.5000004768371582 -4.5299530029296875e-06 19.0
v 1.5000004768371582 -4.5299530029296875e-06 20.0
v 1.5000004768371582 -4.5299530029296875e-06 21.0
v 1.5000004768371582 -4.5299530029296875e-06 22.0
v 1.5000004768371582 -4.5299530029296875e-06 23.0
v 1.5000004768371582 -4.5299530029296875e-06 24.0
v 3.569069761955035e-10 -9.536714060232043e-06 32.0
v 1.5000004768371582 -4.5299530029296875e-06 25.0
v 1.5000004768371582 -4.5299530029296875e-06 26.0
v 1.5000004768371582 -4.5299530029296875e-06 27.0
v 1.5000004768371582 -4.5299530029296875e-06 28.0
v 1.5000004768371582 -4.5299530029296875e-06 29.0
v 1.5000004768371582 -4.5299530029296875e-06 30.0
v 1.5000004768371582 -4.5299530029296875e-06 31.0
v 1.500004768371582 -9.535863682685886e-06 32.0
v 32.0 -9.536345714877825e-06 1.9068235133090639e-06
v 30.5 -4.0531158447265625e-06 8.0
v 31.99999237060547 -9.535947356198449e-06 16.000001907348633
v 30.5 -4.0531158447265625e-06 7.0
v 30.5 -4.0531158447265625e-06 6.0
v 30.5 -4.0531158447265625e-06 9.0
v 30.5 -4.0531158447265625e-06 5.0
v 30.5 -4.0531158447265625e-06 4.0
v 30.5 -4.0531158447265625e-06 3.0
v 30.5 -4.0531158447265625e-06 2.0
v 30.5 -4.0531158447265625e-06 1.0
v 30.499996185302734 -9.536345714877825e-06 1.9068235133090639e-06
v 30.5 -4.0531158447265625e-06 10.0
v 30.5 -4.0531158447265625e-06 11.0
v 30.5 -4.0531158447265625e-06 12.0
v 30.5 -4.0531158447265625e-06 13.0
v 30.5 -4.0531158447265625e-06 14.0
v 30.5 -4.0531158447265625e-06 15.0
v 30.5 -4.0531158447265625e-06 16.0
v 30.5 -4.0531158447265625e-06 17.0
v 30.5 -4.0531158447265625e-06 18.0
v 30.5 -4.0531158447265625e-06 19.0
v 30.5 -4.0531158447265625e-06 20.0
v 30.5 -4.0531158447265625e-06 21.0
v 30.5 -4.0531158447265625e-06 22.0
v 30.5 -4.0531158447265625e-06 23.0
v 30.5 -4.0531158447265625e-06 24.0
v 32.0 -9.535947356198449e-06 32.0
v 30.5 -4.0531158447265625e-06 25.0
v 30.5 -4.0531158447265625e-06 26.0
v 30.5 -4.0531158447265625e-06 27.0
v 30.5 -4.0531158447265625e-06 28.0
v 30.5 -4.0531158447265625e-06 29.0
v 30.5 -4.0531158447265625e-06 30.0
v 30.5 -4.0531158447265625e-06 31.0
v 30.499996185302734 -9.535863682685886e-06 32.0
vn 0.0 1.0 0.0
vn 0.0 1.0 0.0
vn 0.0 1.0 0.0
vn 0.0 1.0 0.0
vn 0.0 1.0 0.0
vn 0.0 1.0 0.0
vn 0.0 1.0 0.0
vn 0.0 1.0 0.0
vn 0.0 1.0 0.0
vn 0.0 1.0 0.0
vn 0.0 1.0 0.0
vn 0.0 1.0 0.0
vn 0.0 1.0 0.0
vn 0.0 1.0 0.0
vn 0.0 1.0 0.0
vn 0.0 1.0 0.0
vn 0.0 1.0 0.0
vn 0.0 1.0 0.0
vn 0.0 1.0 0.0
vn 0.0 1.0 0.0
vn 0.0 1.0 0.0
vn 0.0 1.0 0.0
vn 0.0 1.0 0.0
vn 0.0 1.0 0.0
vn 0.0 1.0 0.0
vn 0.0 1.0 0.0
vn 0.0 1.0 0.0
vn 0.0 1.0 0.0
vn 0.0 1.0 0.0
vn 0.0 1.0 0.0
vn 0.0 1.0 0.0
vn 0.0 1.0 0.0
vn 0.0 1.0 0.0
vn 0.0 1.0 0.0
vn 0.0 1.0 0.0
vn 0.0 1.0 0.0
vn 0.0 1.0 0.0
vn 0.0 1.0 0.0
vn 0.0 1.0 0.0
vn 0.0 1.0 0.0
vn 0.0 1.0 0.0
vn 0.0 1.0 0.0
vn 0.0 1.0 0.0
vn 0.0 1.0 0.0
vn 0.0 1.0 0.0
vn 0.0 1.0 0.0
vn 0.0 1.0 0.0
vn 0.0 1.0 0.0
vn 0.0 1.0 0.0
vn 0.0 1.0 0.0
vn 0.0 1.0 0.0
vn 0.0 1.0 0.0
vn 0.0 1.0 0.0
vn 0.0 1.0 0.0
vn 0.0 1.0 0.0
vn 0.0 1.0 0.0
vn 0.0 1.0 0.0
vn 0.0 1.0 0.0
vn 0.0 1.0 0.0
vn 0.0 1.0 0.0
vn 0.0 1.0 0.0
vn 0.0 1.0 0.0
vn 0.0 1.0 0.0
vn 0.0 1.0 0.0
vn 0.0 1.0 0.0
vn 0.0 1.0 0.0
vn 0.0 1.0 0.0
vn 0.0 1.0 0.0
vn 0.0 1.0 0.0
vn 0.0 1.0 0.0
vn 0.0 1.0 0.0
vn 0.0 1.0 0.0
vt 0.28125113248825073 0.2485462874174118
vt 0.25000113248825073 0.2485462874174118
vt 0.2500011622905731 0.06148689240217209
vt 0.31250113248825073 0.2485462874174118
vt 0.34375113248825073 0.2485462874174118
vt 0.37500113248825073 0.2485462874174118
vt 0.40625113248825073 0.2485462874174118
vt 0.43750113248825073 0.2485462874174118
vt 0.46875113248825073 0.2485462874174118
vt 0.5000011324882507 0.2485462874174118
vt 0.7500010132789612 0.06148689240217209
vt 0.5312511324882507 0.2485462874174118
vt 0.5625011324882507 0.2485462874174118
vt 0.5937511324882507 0.2485462874174118
vt 0.6250011324882507 0.2485462874174118
vt 0.6562511324882507 0.2485462874174118
vt 0.6875011324882507 0.2485462874174118
vt 0.7187511324882507 0.2485462874174118
vt 0.7500011324882507 0.2485462874174118
vt 0.7812511324882507 0.2485462874174118
vt 0.8125011324882507 0.2485462874174118
vt 0.8437511324882507 0.2485462874174118
vt 0.8750011324882507 0.2485462874174118
vt 0.9062511324882507 0.2485462874174118
vt 0.9375011324882507 0.2485462874174118
vt 0.9687510132789612 0.2485462874174118
vt 1.0000009536743164 0.2485462874174118
vt 1.2500009536743164 0.06148689240217209
vt 1.0312509536743164 0.2485462874174118
vt 1.0625009536743164 0.2485462874174118
vt 1.0937509536743164 0.2485462874174118
vt 1.1250009536743164 0.2485462874174118
vt 1.1562509536743164 0.2485462874174118
vt 1.1875009536743164 0.2485462874174118
vt 1.2187509536743164 0.2485462874174118
vt 1.2500009536743164 0.2485462874174118
vt 7.250000953674316 0.06148689240217209
vt 7.000001430511475 0.24854442477226257
vt 6.750000476837158 0.06148689240217209
vt 7.031250953674316 0.24854440987110138
vt 7.062500953674316 0.24854440987110138
vt 6.968750953674316 0.24854452908039093
vt 7.093750953674316 0.24854440987110138
vt 7.125000953674316 0.24854440987110138
vt 7.156250953674316 0.24854440987110138
vt 7.187500953674316 0.24854440987110138
vt 7.218750953674316 0.24854440987110138
vt 7.250000953674316 0.24854440987110138
vt 6.937500953674316 0.24854452908039093
vt 6.906250953674316 0.24854452908039093
vt 6.875000953674316 0.24854452908039093
vt 6.843750953674316 0.24854452908039093
vt 6.812500953674316 0.24854452908039093
vt 6.781250953674316 0.24854452908039093
vt 6.750000953674316 0.24854452908039093
vt 6.718750953674316 0.24854452908039093
vt 6.687500953674316 0.24854452908039093
vt 6.656250953674316 0.24854452908039093
vt 6.625000953674316 0.24854452908039093
vt 6.593750953674316 0.24854452908039093
vt 6.562500953674316 0.24854452908039093
vt 6.531250953674316 0.24854452908039093
vt 6.500001430511475 0.24854466319084167
vt 6.250000476837158 0.06148689240217209
vt 6.468750953674316 0.24854464828968048
vt 6.437500953674316 0.24854464828968048
vt 6.406250953674316 0.24854464828968048
vt 6.375000953674316 0.24854464828968048
vt 6.343750953674316 0.24854464828968048
vt 6.312500953674316 0.24854464828968048
vt 6.281250953674316 0.24854464828968048
vt 6.250000953674316 0.24854464828968048
usemtl TrackBorders
f 1/1/1 2/2/2 3/3/3
f 4/4/4 1/1/1 3/3/3
f 5/5/5 4/4/4 3/3/3
f 6/6/6 5/5/5 3/3/3
f 7/7/7 6/6/6 3/3/3
f 8/8/8 7/7/7 3/3/3
f 9/9/9 8/8/8 3/3/3
f 10/10/10 9/9/9 3/3/3
f 10/10/10 3/3/3 11/11/11
f 12/12/12 10/10/10 11/11/11
f 13/13/13 12/12/12 11/11/11
f 14/14/14 13/13/13 11/11/11
f 15/15/15 14/14/14 11/11/11
f 16/16/16 15/15/15 11/11/11
f 17/17/17 16/16/16 11/11/11
f 18/18/18 17/17/17 11/11/11
f 19/19/19 18/18/18 11/11/11
f 20/20/20 19/19/19 11/11/11
f 21/21/21 20/20/20 11/11/11
f 22/22/22 21/21/21 11/11/11
f 23/23/23 22/22/22 11/11/11
f 24/24/24 23/23/23 11/11/11
f 25/25/25 24/24/24 11/11/11
f 26/26/26 25/25/25 11/11/11
f 27/27/27 26/26/26 11/11/11
f 28/28/28 27/27/27 11/11/11
f 28/28/28 29/29/29 27/27/27
f 28/28/28 30/30/30 29/29/29
f 28/28/28 31/31/31 30/30/30
f 28/28/28 32/32/32 31/31/31
f 28/28/28 33/33/33 32/32/32
f 28/28/28 34/34/34 33/33/33
f 28/28/28 35/35/35 34/34/34
f 28/28/28 36/36/36 35/35/35
f 37/37/37 38/38/38 39/39/39
f 37/37/37 40/40/40 38/38/38
f 37/37/37 41/41/41 40/40/40
f 38/38/38 42/42/42 39/39/39
f 37/37/37 43/43/43 41/41/41
f 37/37/37 44/44/44 43/43/43
f 37/37/37 45/45/45 44/44/44
f 37/37/37 46/46/46 45/45/45
f 37/37/37 47/47/47 46/46/46
f 37/37/37 48/48/48 47/47/47
f 42/42/42 49/49/49 39/39/39
f 49/49/49 50/50/50 39/39/39
f 50/50/50 51/51/51 39/39/39
f 51/51/51 52/52/52 39/39/39
f 52/52/52 53/53/53 39/39/39
f 53/53/53 54/54/54 39/39/39
f 54/54/54 55/55/55 39/39/39
f 55/55/55 56/56/56 39/39/39
f 56/56/56 57/57/57 39/39/39
f 57/57/57 58/58/58 39/39/39
f 58/58/58 59/59/59 39/39/39
f 59/59/59 60/60/60 39/39/39
f 60/60/60 61/61/61 39/39/39
f 61/61/61 62/62/62 39/39/39
f 62/62/62 63/63/63 39/39/39
f 63/63/63 64/64/64 39/39/39
f 63/63/63 65/65/65 64/64/64
f 65/65/65 66/66/66 64/64/64
f 66/66/66 67/67/67 64/64/64
f 67/67/67 68/68/68 64/64/64
f 68/68/68 69/69/69 64/64/64
f 69/69/69 70/70/70 64/64/64
f 70/70/70 71/71/71 64/64/64
f 71/71/71 72/72/72 64/64/64
