o mesh2_lod2.obj
v 28.87908172607422 2.800055742263794 32.0
v 28.860332489013672 2.800055742263794 32.0
v 28.86825942993164 2.8141512870788574 31.953571319580078
v 29.319435119628906 -1.7881393432617188e-06 31.976926803588867
v 29.475482940673828 0.27517271041870117 31.976926803588867
v 29.818809509277344 0.27517271041870117 31.976926803588867
v 29.446483612060547 0.29050326347351074 31.976926803588867
v 29.43115234375 0.31950241327285767 31.976926803588867
v 29.43115234375 2.6878881454467773 31.9769287109375
v 30.481735229492188 0.09192021936178207 31.976926803588867
v 30.481735229492188 2.3543834686279297e-05 31.976926803588867
v 29.987613677978516 0.26368725299835205 31.976926803588867
v 29.31951141357422 2.816619396209717 31.976926803588867
v 29.847808837890625 0.2905036211013794 31.976926803588867
v 29.446483612060547 2.7168872356414795 31.9769287109375
v 29.863142013549805 0.31950241327285767 31.976926803588867
v 29.475482940673828 2.732217788696289 31.9769287109375
v 29.987613677978516 0.808540940284729 31.976926803588867
v 29.818866729736328 2.732217788696289 31.9769287109375
v 29.863195419311523 2.6878881454467773 31.9769287109375
v 30.45669174194336 0.9742048978805542 31.976926803588867
v 30.454547882080078 2.9538636207580566 31.976926803588867
v 29.84786605834961 2.7168874740600586 31.9769287109375
v 29.18796157836914 2.8166260719299316 31.976926803588867
v 29.185832977294922 2.9560041427612305 31.976926803588867
v 30.500125885009766 0.09191226959228516 31.999998092651367
v 30.481735229492188 0.09192021936178207 31.976926803588867
v 29.987613677978516 0.26368725299835205 31.976926803588867
v 30.000003814697266 0.2683265507221222 31.999998092651367
v 30.000003814697266 0.2683265507221222 31.999998092651367
v 29.987613677978516 0.26368725299835205 31.976926803588867
v 29.987613677978516 0.808540940284729 31.976926803588867
v 30.000003814697266 0.7880331873893738 31.999998092651367
v 30.45669174194336 0.9742048978805542 31.976926803588867
v 30.5001277923584 0.9649049639701843 32.0
v 30.000003814697266 0.7880331873893738 31.999998092651367
v 29.987613677978516 0.808540940284729 31.976926803588867
v 30.50005531311035 2.3543834686279297e-05 32.0
v 30.481735229492188 2.3543834686279297e-05 31.976926803588867
v 30.481735229492188 0.09192021936178207 31.976926803588867
v 30.500125885009766 0.09191226959228516 31.999998092651367
v 29.319435119628906 -1.7881393432617188e-06 31.976926803588867
v 30.481735229492188 2.3543834686279297e-05 31.976926803588867
v 30.50005531311035 2.3543834686279297e-05 32.0
v 29.29987335205078 -1.7881393432617188e-06 31.9999942779541
v 30.5001277923584 0.9649049639701843 32.0
v 30.45669174194336 0.9742048978805542 31.976926803588867
v 30.46031951904297 0.9814760684967041 31.95891761779785
v 30.482601165771484 0.9814752340316772 31.95891571044922
v 29.43115234375 2.6878881454467773 31.9769287109375
v 29.451034545898438 2.7123308181762695 32.584434509277344
v 29.4492130279541 0.29323700070381165 32.58442687988281
v 29.446483612060547 2.7168872356414795 31.9769287109375
v 29.43115234375 0.31950241327285767 31.976926803588867
v 29.475482940673828 2.732217788696289 31.9769287109375
v 29.446483612060547 0.29050326347351074 31.976926803588867
v 29.818866729736328 2.732217788696289 31.9769287109375
v 29.843305587768555 2.7123308181762695 32.584434509277344
v 29.475482940673828 0.27517271041870117 31.976926803588867
v 29.845067977905273 0.2932371199131012 32.58443069458008
v 29.818809509277344 0.27517271041870117 31.976926803588867
v 29.847808837890625 0.2905036211013794 31.976926803588867
v 29.863142013549805 0.31950241327285767 31.976926803588867
v 29.843305587768555 2.7123308181762695 32.584434509277344
v 29.863195419311523 2.6878881454467773 31.9769287109375
v 29.84786605834961 2.7168874740600586 31.9769287109375
v 29.818866729736328 2.732217788696289 31.9769287109375
v 29.302444458007812 2.8000566959381104 32.00001525878906
v 29.16226577758789 2.8000547885894775 32.0
v 29.18796157836914 2.8166260719299316 31.976926803588867
v 29.31951141357422 2.816619396209717 31.976926803588867
v 29.451034545898438 2.7123308181762695 32.584434509277344
v 29.843305587768555 2.7123308181762695 32.584434509277344
v 29.845067977905273 0.2932371199131012 32.58443069458008
v 29.4492130279541 0.29323700070381165 32.58442687988281
v 29.31951141357422 2.816619396209717 31.976926803588867
v 29.319435119628906 -1.7881393432617188e-06 31.976926803588867
v 29.29987335205078 -1.7881393432617188e-06 31.9999942779541
v 29.29986572265625 2.803292751312256 32.000003814697266
v 28.800750732421875 2.859992265701294 32.0
v 28.800750732421875 2.9049112796783447 32.0
v 28.81585121154785 2.91072416305542 31.95357894897461
v 28.802017211914062 2.9207286834716797 32.0
v 28.807876586914062 2.934889078140259 32.0
v 28.81585121154785 2.8541879653930664 31.95357894897461
v 28.833372116088867 2.940647602081299 31.953571319580078
v 28.802017211914062 2.844188928604126 32.0
v 28.817642211914062 2.947394847869873 32.0
v 28.807876586914062 2.830028533935547 32.0
v 28.83008575439453 2.957106351852417 32.0
v 28.817642211914062 2.8175151348114014 32.0
v 28.86819076538086 2.9507713317871094 31.953571319580078
v 28.844329833984375 2.962965726852417 32.0
v 28.859996795654297 2.964895009994507 32.0
v 28.833372116088867 2.8242669105529785 31.953571319580078
v 28.83008575439453 2.8078110218048096 32.0
v 28.844329833984375 2.801954507827759 32.0
v 28.86825942993164 2.8141512870788574 31.953571319580078
v 28.860332489013672 2.800055742263794 32.0
v 28.87908172607422 2.800055742263794 32.0
v 29.160396575927734 2.8141512870788574 31.953571319580078
v 29.16226577758789 2.8000547885894775 32.0
v 29.18101692199707 2.800055742263794 32.0
v 29.197019577026367 2.801954507827759 32.0
v 29.195281982421875 2.8242669105529785 31.953571319580078
v 29.211265563964844 2.8078110218048096 32.0
v 29.22370719909668 2.8175151348114014 32.0
v 29.212804794311523 2.8541879653930664 31.95357894897461
v 29.23347282409668 2.830028533935547 32.0
v 29.23933219909668 2.844188928604126 32.0
v 29.2406005859375 2.859992265701294 32.0
v 29.212804794311523 2.91072416305542 31.95357894897461
v 29.2406005859375 2.9049112796783447 32.0
v 29.23933219909668 2.9207286834716797 32.0
v 29.23347282409668 2.934889078140259 32.0
v 29.195281982421875 2.940647602081299 31.953571319580078
v 29.22370719909668 2.947394847869873 32.0
v 29.211265563964844 2.957106351852417 32.0
v 29.160465240478516 2.9507713317871094 31.953571319580078
v 29.197019577026367 2.962965726852417 32.0
v 29.181352615356445 2.964895009994507 32.0
v 29.162267684936523 2.964855909347534 32.0
v 28.86819076538086 2.9507713317871094 31.953571319580078
v 28.87908172607422 2.964855909347534 32.0
v 28.859996795654297 2.964895009994507 32.0
v 28.86819076538086 2.9507713317871094 31.953571319580078
v 29.16226577758789 2.8000547885894775 32.0
v 29.160396575927734 2.8141512870788574 31.953571319580078
v 29.18101692199707 2.800055742263794 32.0
v 29.181352615356445 2.964895009994507 32.0
v 29.160465240478516 2.9507713317871094 31.953571319580078
v 29.162267684936523 2.964855909347534 32.0
v 28.81585121154785 2.91072416305542 31.95357894897461
v 28.833372116088867 2.940647602081299 31.953571319580078
v 28.86819076538086 2.9507713317871094 31.953571319580078
v 28.81585121154785 2.8541879653930664 31.95357894897461
v 28.86825942993164 2.8141512870788574 31.953571319580078
v 28.833372116088867 2.8242669105529785 31.953571319580078
v 29.160396575927734 2.8141512870788574 31.953571319580078
v 29.212804794311523 2.8541879653930664 31.95357894897461
v 29.195281982421875 2.8242669105529785 31.953571319580078
v 29.212804794311523 2.91072416305542 31.95357894897461
v 29.160465240478516 2.9507713317871094 31.953571319580078
v 29.195281982421875 2.940647602081299 31.953571319580078
vn 0.0 -0.9549902152641878 -0.2896281800391389
vn -0.060665362035225046 -0.9510763209393346 -0.299412915851272
vn -0.0684931506849315 -0.6086105675146771 -0.7886497064579256
vn 0.0 0.0 -1.0
vn 0.0 0.0 -1.0
vn 0.0 0.0 -1.0
vn 0.0 0.0 -1.0
vn 0.0 0.0 -1.0
vn 0.0 0.0 -1.0
vn 0.0 0.0 -1.0
vn 0.0 0.0 -1.0
vn 0.0 0.0 -1.0
vn 0.0 0.0 -1.0
vn 0.0 0.0 -1.0
vn 0.0 0.0 -1.0
vn 0.0 0.0 -1.0
vn 0.0 0.0 -1.0
vn 0.0 0.0 -1.0
vn 0.0 0.0 -1.0
vn 0.0 0.0 -1.0
vn 0.0 0.0 -1.0
vn 0.0 0.0 -1.0
vn 0.0 0.0 -1.0
vn 0.0 0.0 -1.0
vn 0.0 0.0 -1.0
vn 0.31702544031311153 0.9119373776908023 -0.2563600782778865
vn 0.31702544031311153 0.9119373776908023 -0.25244618395303325
vn 0.3111545988258317 0.8845401174168297 -0.3405088062622309
vn 0.3111545988258317 0.8845401174168297 -0.34442270058708413
vn 0.8806262230919765 0.0 -0.47162426614481406
vn 0.8806262230919765 0.0 -0.47162426614481406
vn 0.8806262230919765 0.0 -0.47162426614481406
vn 0.8806262230919765 0.0 -0.47162426614481406
vn 0.2328767123287671 -0.6634050880626223 -0.7084148727984344
vn 0.23483365949119372 -0.6634050880626223 -0.7084148727984344
vn 0.2328767123287671 -0.6594911937377691 -0.7123287671232876
vn 0.2328767123287671 -0.6594911937377691 -0.7123287671232876
vn 0.7827788649706457 0.0 -0.6203522504892368
vn 0.7827788649706457 0.0 -0.6203522504892368
vn 0.7808219178082192 0.0 -0.6223091976516634
vn 0.7808219178082192 0.0 -0.6223091976516634
vn 0.0 -1.0 0.0
vn 0.0 -1.0 0.0
vn 0.0 -1.0 0.0
vn 0.0 -1.0 0.0
vn 0.0 -0.9256360078277887 -0.37377690802348335
vn 0.0 -0.9256360078277887 -0.37377690802348335
vn 0.0 -0.9256360078277887 -0.37377690802348335
vn 0.0 -0.9256360078277887 -0.37377690802348335
vn 0.9706457925636007 -0.2328767123287671 -0.021526418786692758
vn 0.7045009784735812 -0.7064579256360078 -0.043052837573385516
vn 0.7064579256360078 0.7064579256360078 -0.03913894324853229
vn 0.7064579256360078 -0.7064579256360078 -0.009784735812133072
vn 0.9706457925636007 0.2328767123287671 -0.01761252446183953
vn 0.2328767123287671 -0.9706457925636007 -0.021526418786692758
vn 0.7064579256360078 0.7064579256360078 -0.005870841487279843
vn -0.2328767123287671 -0.9706457925636007 -0.021526418786692758
vn -0.7045009784735812 -0.7045009784735812 -0.043052837573385516
vn 0.2328767123287671 0.9706457925636007 -0.01761252446183953
vn -0.7064579256360078 0.7045009784735812 -0.03913894324853229
vn -0.2328767123287671 0.9706457925636007 -0.01761252446183953
vn -0.7064579256360078 0.7064579256360078 -0.005870841487279843
vn -0.9706457925636007 0.2328767123287671 -0.01761252446183953
vn -0.7045009784735812 -0.7045009784735812 -0.043052837573385516
vn -0.9706457925636007 -0.2328767123287671 -0.021526418786692758
vn -0.7064579256360078 -0.7064579256360078 -0.009784735812133072
vn -0.2328767123287671 -0.9706457925636007 -0.021526418786692758
vn 0.0 -0.812133072407045 -0.5812133072407045
vn 0.0 -0.812133072407045 -0.5831702544031311
vn 0.0 -0.812133072407045 -0.5831702544031311
vn 0.0 -0.812133072407045 -0.5812133072407045
vn 0.0 0.0 -1.0
vn 0.0 0.0 -1.0
vn 0.0 0.0 -1.0
vn 0.0 0.0 -1.0
vn -0.761252446183953 0.0 -0.6477495107632094
vn -0.761252446183953 0.0 -0.6457925636007827
vn -0.761252446183953 0.0 -0.6457925636007827
vn -0.761252446183953 0.0 -0.6477495107632094
vn -0.9510763209393346 -0.033268101761252444 -0.30332681017612523
vn -0.9510763209393346 0.033268101761252444 -0.30332681017612523
vn -0.6105675146771037 0.14677103718199608 -0.7749510763209393
vn -0.9158512720156555 0.2309197651663405 -0.32289628180039137
vn -0.8082191780821918 0.47162426614481406 -0.34637964774951074
vn -0.6125244618395304 -0.15459882583170254 -0.7729941291585127
vn -0.38551859099804303 0.5107632093933464 -0.7671232876712328
vn -0.9158512720156555 -0.2309197651663405 -0.32289628180039137
vn -0.6731898238747553 0.6614481409001957 -0.324853228962818
vn -0.7827788649706457 -0.48336594911937375 -0.38551859099804303
vn -0.44422700587084146 0.8238747553816047 -0.34833659491193736
vn -0.6829745596868885 -0.6360078277886497 -0.3542074363992172
vn -0.07436399217221135 0.6105675146771037 -0.786692759295499
vn -0.2622309197651663 0.8904109589041096 -0.3679060665362035
vn -0.06262230919765166 0.9510763209393346 -0.299412915851272
vn -0.3972602739726027 -0.5009784735812133 -0.7651663405088063
vn -0.4657534246575342 -0.821917808219178 -0.32289628180039137
vn -0.2446183953033268 -0.9099804305283757 -0.33268101761252444
vn -0.0684931506849315 -0.6086105675146771 -0.7886497064579256
vn -0.060665362035225046 -0.9510763209393346 -0.299412915851272
vn 0.0 -0.9549902152641878 -0.2896281800391389
vn 0.05675146771037182 -0.6027397260273972 -0.7925636007827789
vn 0.0 -0.9549902152641878 -0.2896281800391389
vn 0.0684931506849315 -0.9452054794520548 -0.31702544031311153
vn 0.25244618395303325 -0.8825831702544031 -0.3953033268101761
vn 0.3405088062622309 -0.4755381604696673 -0.8082191780821918
vn 0.45792563600782776 -0.7749510763209393 -0.4324853228962818
vn 0.6360078277886497 -0.5812133072407045 -0.5068493150684932
vn 0.5225048923679061 -0.13894324853228962 -0.8395303326810176
vn 0.7162426614481409 -0.4324853228962818 -0.5440313111545988
vn 0.8297455968688845 -0.2035225048923679 -0.5166340508806262
vn 0.8590998043052838 -0.03131115459882583 -0.5088062622309197
vn 0.5205479452054794 0.13307240704500978 -0.8414872798434442
vn 0.8590998043052838 0.03131115459882583 -0.5088062622309197
vn 0.8297455968688845 0.2035225048923679 -0.5166340508806262
vn 0.7416829745596869 0.4227005870841487 -0.5185909980430529
vn 0.33072407045009783 0.487279843444227 -0.8062622309197651
vn 0.6340508806262231 0.6066536203522505 -0.4755381604696673
vn 0.44031311154598823 0.7749510763209393 -0.4481409001956947
vn 0.060665362035225046 0.6046966731898239 -0.7925636007827789
vn 0.26614481409001955 0.8571428571428571 -0.4344422700587084
vn 0.07045009784735812 0.9432485322896281 -0.31898238747553814
vn 0.0 0.9569471624266145 -0.2896281800391389
vn -0.07436399217221135 0.6105675146771037 -0.786692759295499
vn 0.0 0.9549902152641878 -0.2896281800391389
vn -0.06262230919765166 0.9510763209393346 -0.299412915851272
vn -0.07436399217221135 0.6105675146771037 -0.786692759295499
vn 0.0 -0.9549902152641878 -0.2896281800391389
vn 0.05675146771037182 -0.6027397260273972 -0.7925636007827789
vn 0.0684931506849315 -0.9452054794520548 -0.31702544031311153
vn 0.07045009784735812 0.9432485322896281 -0.31898238747553814
vn 0.060665362035225046 0.6046966731898239 -0.7925636007827789
vn 0.0 0.9569471624266145 -0.2896281800391389
vn -0.6105675146771037 0.14677103718199608 -0.7749510763209393
vn -0.38551859099804303 0.5107632093933464 -0.7671232876712328
vn -0.07436399217221135 0.6105675146771037 -0.786692759295499
vn -0.6125244618395304 -0.15459882583170254 -0.7729941291585127
vn -0.0684931506849315 -0.6086105675146771 -0.7886497064579256
vn -0.3972602739726027 -0.5009784735812133 -0.7651663405088063
vn 0.05675146771037182 -0.6027397260273972 -0.7925636007827789
vn 0.5225048923679061 -0.13894324853228962 -0.8395303326810176
vn 0.3405088062622309 -0.4755381604696673 -0.8082191780821918
vn 0.5205479452054794 0.13307240704500978 -0.8414872798434442
vn 0.060665362035225046 0.6046966731898239 -0.7925636007827789
vn 0.33072407045009783 0.487279843444227 -0.8062622309197651
vt 0.8700055480003357 0.9047467112541199
vt 0.8700055480003357 0.9047467112541199
vt 0.8702373504638672 0.9075059294700623
vt 0.8230748176574707 0.9879052042961121
vt 0.8033925294876099 0.9779235124588013
vt 0.803348958492279 0.9533951282501221
vt 0.8023006319999695 0.9799953699111938
vt 0.8002302646636963 0.9810906052589417
vt 0.6309806108474731 0.9810907244682312
vt 0.8163604140281677 0.9060335159301758
vt 0.8229296207427979 0.907200276851654
vt 0.8041483163833618 0.9413352012634277
vt 0.6217952370643616 0.9890666604042053
vt 0.8022496700286865 0.9513231515884399
vt 0.62890625 0.9799954295158386
vt 0.8001753687858582 0.9502277374267578
vt 0.6278069615364075 0.9779236912727356
vt 0.7652119994163513 0.941335141658783
vt 0.6277633905410767 0.9533910751342773
vt 0.630925714969635 0.9502240419387817
vt 0.7533136606216431 0.9078226685523987
vt 0.6118435859680176 0.9079760909080505
vt 0.6288553476333618 0.9513193368911743
vt 0.6218115091323853 0.9984651207923889
vt 0.6118515729904175 0.9986171126365662
vt 0.8164231777191162 0.9046446681022644
vt 0.8163604140281677 0.9060335159301758
vt 0.8041483163833618 0.9413352012634277
vt 0.8038796782493591 0.9403752088546753
vt 0.8038796782493591 0.9403752088546753
vt 0.8041483163833618 0.9413352012634277
vt 0.7652119994163513 0.941335141658783
vt 0.7667405009269714 0.9403752088546753
vt 0.7533136606216431 0.9078226685523987
vt 0.7540373206138611 0.9046444892883301
vt 0.7667405009269714 0.9403752088546753
vt 0.7652119994163513 0.941335141658783
vt 0.8229897618293762 0.9046497344970703
vt 0.8229296207427979 0.907200276851654
vt 0.8163604140281677 0.9060335159301758
vt 0.8164231777191162 0.9046446681022644
vt 0.8230748176574707 0.9879052042961121
vt 0.8229296207427979 0.907200276851654
vt 0.8244853615760803 0.907128632068634
vt 0.8246301412582397 0.9880504608154297
vt 0.3755457401275635 1.5317862033843994
vt 0.3808741569519043 1.5278682708740234
vt 0.38387811183929443 1.5317871570587158
vt 0.37993931770324707 1.5359289646148682
vt 0.6366394758224487 0.9032589793205261
vt 0.6344972848892212 0.8718115091323853
vt 0.7889757752418518 0.8718353509902954
vt 0.6344951391220093 0.9032574892044067
vt 0.7868245840072632 0.9032818675041199
vt 0.632348895072937 0.9032564759254456
vt 0.7889740467071533 0.9032814502716064
vt 0.6105740070343018 0.9032564759254456
vt 0.6105743646621704 0.8718103766441345
vt 0.7911224365234375 0.9032804369926453
vt 0.8150407671928406 0.8718328475952148
vt 0.8128933906555176 0.9032798409461975
vt 0.8150409460067749 0.9032789468765259
vt 0.8171894550323486 0.9032766222953796
vt 0.9695229530334473 0.871830403804779
vt 0.9673758745193481 0.9032792448997498
vt 0.9695231318473816 0.9032764434814453
vt 0.9716695547103882 0.9032756686210632
vt 0.6230456829071045 0.9902112483978271
vt 0.6230635046958923 1.0002262592315674
vt 0.6218115091323853 0.9984651207923889
vt 0.6217952370643616 0.9890666604042053
vt 0.6292313933372498 0.9796700477600098
vt 0.6291815042495728 0.951645016670227
vt 0.8020547032356262 0.9515188336372375
vt 0.8021049499511719 0.9798001646995544
vt 0.6217952370643616 0.9890666604042053
vt 0.8230748176574707 0.9879052042961121
vt 0.8231438398361206 0.9903948307037354
vt 0.6228146553039551 0.9903955459594727
vt 0.8740476965904236 0.9047467112541199
vt 0.8762591481208801 0.9047465920448303
vt 0.8767362833023071 0.9075059294700623
vt 0.8769368529319763 0.9047465920448303
vt 0.8775104880332947 0.9047467112541199
vt 0.8735690116882324 0.9075059294700623
vt 0.8784119486808777 0.9075059294700623
vt 0.873392641544342 0.9047465920448303
vt 0.8781221508979797 0.9047465920448303
vt 0.8728302121162415 0.9047465920448303
vt 0.8787063956260681 0.9047467112541199
vt 0.8722147345542908 0.9047467112541199
vt 0.8794891238212585 0.9075059294700623
vt 0.8792250752449036 0.9047465920448303
vt 0.8797538876533508 0.9047465920448303
vt 0.8718917965888977 0.9075059294700623
vt 0.8715956807136536 0.9047465920448303
vt 0.8709976077079773 0.9047467112541199
vt 0.8702373504638672 0.9075059294700623
vt 0.8700055480003357 0.9047467112541199
vt 0.8700055480003357 0.9047467112541199
vt 0.8529718518257141 0.9075059294700623
vt 0.8532657027244568 0.9047465920448303
vt 0.8532657027244568 0.9047465920448303
vt 0.8522724509239197 0.9047467112541199
vt 0.8513160347938538 0.9075059294700623
vt 0.8516753315925598 0.9047465920448303
vt 0.8510536551475525 0.9047467112541199
vt 0.8496217131614685 0.9075059294700623
vt 0.8504305481910706 0.9047465920448303
vt 0.8498616814613342 0.9047465920448303
vt 0.8491999506950378 0.9047467112541199
vt 0.8464577794075012 0.9075059294700623
vt 0.8469840884208679 0.9047465920448303
vt 0.8463255763053894 0.9047465920448303
vt 0.8457645177841187 0.9047467112541199
vt 0.8447895646095276 0.9075059294700623
vt 0.845153272151947 0.9047465920448303
vt 0.8445450663566589 0.9047467112541199
vt 0.8431711196899414 0.9075059294700623
vt 0.8439638018608093 0.9047465920448303
vt 0.8429901003837585 0.9047465920448303
vt 0.8429901003837585 0.9047465920448303
vt 0.8262975215911865 0.9075059294700623
vt 0.826752245426178 0.9047465920448303
vt 0.8260249495506287 0.9047465920448303
vt 0.8262975215911865 0.9075059294700623
vt 0.8532657027244568 0.9047465920448303
vt 0.8529718518257141 0.9075059294700623
vt 0.8532657027244568 0.9047465920448303
vt 0.8429901003837585 0.9047465920448303
vt 0.8431711196899414 0.9075059294700623
vt 0.8429901003837585 0.9047465920448303
vt 0.8226756453514099 0.9079904556274414
vt 0.8237905502319336 0.9071431159973145
vt 0.8253742456436157 0.9065292477607727
vt 0.8232907056808472 0.9103866815567017
vt 0.8280349969863892 0.9133427143096924
vt 0.8250566720962524 0.9120758771896362
vt 0.8530187010765076 0.9212045669555664
vt 0.8546195030212402 0.9187811613082886
vt 0.8557326793670654 0.9215753674507141
vt 0.8503192663192749 0.9131650924682617
vt 0.8438006639480591 0.9086551666259766
vt 0.8468806743621826 0.9100145697593689
usemtl Technics
f 1/1/1 2/2/2 3/3/3
f 4/4/4 5/5/5 6/6/6
f 7/7/7 5/5/5 4/4/4
f 4/4/4 8/8/8 7/7/7
f 9/9/9 8/8/8 4/4/4
f 4/4/4 6/6/6 10/10/10
f 11/11/11 4/4/4 10/10/10
f 12/12/12 10/10/10 6/6/6
f 4/4/4 13/13/13 9/9/9
f 12/12/12 6/6/6 14/14/14
f 15/15/15 9/9/9 13/13/13
f 12/12/12 14/14/14 16/16/16
f 13/13/13 17/17/17 15/15/15
f 18/18/18 12/12/12 16/16/16
f 19/19/19 17/17/17 13/13/13
f 18/18/18 16/16/16 20/20/20
f 21/21/21 18/18/18 20/20/20
f 20/20/20 22/22/22 21/21/21
f 13/13/13 22/22/22 19/19/19
f 22/22/22 20/20/20 23/23/23
f 23/23/23 19/19/19 22/22/22
f 22/22/22 13/13/13 24/24/24
f 24/24/24 25/25/25 22/22/22
f 26/26/26 27/27/27 28/28/28
f 28/28/28 29/29/29 26/26/26
f 30/30/30 31/31/31 32/32/32
f 32/32/32 33/33/33 30/30/30
f 34/34/34 35/35/35 36/36/36
f 36/36/36 37/37/37 34/34/34
f 38/38/38 39/39/39 40/40/40
f 40/40/40 41/41/41 38/38/38
f 42/42/42 43/43/43 44/44/44
f 44/44/44 45/45/45 42/42/42
f 46/46/46 47/47/47 48/48/48
f 48/48/48 49/49/49 46/46/46
f 50/50/50 51/51/51 52/52/52
f 51/51/51 50/50/50 53/53/53
f 52/52/52 54/54/54 50/50/50
f 55/55/55 51/51/51 53/53/53
f 54/54/54 52/52/52 56/56/56
f 51/51/51 55/55/55 57/57/57
f 57/57/57 58/58/58 51/51/51
f 52/52/52 59/59/59 56/56/56
f 59/59/59 52/52/52 60/60/60
f 60/60/60 61/61/61 59/59/59
f 61/61/61 60/60/60 62/62/62
f 60/60/60 63/63/63 62/62/62
f 63/63/63 60/60/60 64/64/64
f 64/64/64 65/65/65 63/63/63
f 65/65/65 64/64/64 66/66/66
f 64/64/64 67/67/67 66/66/66
f 68/68/68 69/69/69 70/70/70
f 70/70/70 71/71/71 68/68/68
f 72/72/72 73/73/73 74/74/74
f 74/74/74 75/75/75 72/72/72
f 76/76/76 77/77/77 78/78/78
f 78/78/78 79/79/79 76/76/76
f 80/80/80 81/81/81 82/82/82
f 81/81/81 83/83/83 82/82/82
f 83/83/83 84/84/84 82/82/82
f 82/82/82 85/85/85 80/80/80
f 86/86/86 82/82/82 84/84/84
f 87/87/87 80/80/80 85/85/85
f 84/84/84 88/88/88 86/86/86
f 89/89/89 87/87/87 85/85/85
f 88/88/88 90/90/90 86/86/86
f 91/91/91 89/89/89 85/85/85
f 92/92/92 86/86/86 90/90/90
f 90/90/90 93/93/93 92/92/92
f 93/93/93 94/94/94 92/92/92
f 85/85/85 95/95/95 91/91/91
f 96/96/96 91/91/91 95/95/95
f 97/97/97 96/96/96 95/95/95
f 95/95/95 98/98/98 97/97/97
f 99/99/99 97/97/97 98/98/98
f 100/100/100 98/98/98 101/101/101
f 101/101/101 102/102/102 100/100/100
f 103/103/103 101/101/101 104/104/104
f 104/104/104 101/101/101 105/105/105
f 105/105/105 106/106/106 104/104/104
f 106/106/106 105/105/105 107/107/107
f 107/107/107 105/105/105 108/108/108
f 108/108/108 109/109/109 107/107/107
f 109/109/109 108/108/108 110/110/110
f 110/110/110 108/108/108 111/111/111
f 111/111/111 108/108/108 112/112/112
f 112/112/112 113/113/113 111/111/111
f 113/113/113 112/112/112 114/114/114
f 114/114/114 112/112/112 115/115/115
f 115/115/115 112/112/112 116/116/116
f 116/116/116 117/117/117 115/115/115
f 117/117/117 116/116/116 118/118/118
f 118/118/118 116/116/116 119/119/119
f 119/119/119 120/120/120 118/118/118
f 120/120/120 119/119/119 121/121/121
f 122/122/122 119/119/119 123/123/123
f 123/123/123 124/124/124 122/122/122
f 125/125/125 124/124/124 126/126/126
f 127/127/127 128/128/128 129/129/129
f 130/130/130 131/131/131 132/132/132
f 133/133/133 134/134/134 135/135/135
f 136/136/136 133/133/133 135/135/135
f 136/136/136 137/137/137 138/138/138
f 136/136/136 139/139/139 137/137/137
f 136/136/136 135/135/135 139/139/139
f 140/140/140 141/141/141 139/139/139
f 142/142/142 140/140/140 139/139/139
f 135/135/135 142/142/142 139/139/139
f 135/135/135 143/143/143 142/142/142
f 143/143/143 144/144/144 142/142/142
