o mesh3_lod2.obj
v 30.4648494720459 3.0000016689300537 32.0
v 30.50012969970703 2.9648594856262207 32.0
v 30.473724365234375 2.973825454711914 31.958919525146484
v 30.50012969970703 2.9648594856262207 32.0
v 30.5001277923584 0.9649049639701843 32.0
v 30.482601165771484 0.9814752340316772 31.95891571044922
v 30.473724365234375 2.973825454711914 31.958919525146484
v 29.18583106994629 3.0000014305114746 32.0
v 30.4648494720459 3.0000016689300537 32.0
v 29.18583106994629 2.9827919006347656 31.95892333984375
v 29.18583106994629 2.9827919006347656 31.95892333984375
v 29.18583106994629 2.9827919006347656 31.976924896240234
v 29.121816635131836 2.9827919006347656 31.977535247802734
v 29.099966049194336 3.0000014305114746 32.0
v 29.18583106994629 2.9827919006347656 31.976924896240234
v 29.064929962158203 2.9648566246032715 32.0
v 29.099966049194336 3.0000014305114746 32.0
v 29.121816635131836 2.9827919006347656 31.977535247802734
v 29.096542358398438 2.9560039043426514 31.977535247802734
v 30.50016212463379 0.576576828956604 31.999996185302734
v 30.50016212463379 0.4765689969062805 31.999996185302734
v 30.346729278564453 0.4765689969062805 31.999998092651367
v 30.346729278564453 0.576576828956604 31.999998092651367
v 29.121816635131836 2.9827919006347656 31.977535247802734
v 29.18583106994629 2.9827919006347656 31.976924896240234
v 29.185832977294922 2.9560041427612305 31.976926803588867
v 29.096542358398438 2.9560039043426514 31.977535247802734
v 30.46031951904297 0.9814760684967041 31.95891761779785
v 30.45669174194336 0.9742048978805542 31.976926803588867
v 30.454547882080078 2.9538636207580566 31.976926803588867
v 30.45817756652832 2.96083402633667 31.95891761779785
v 30.482601165771484 0.9814752340316772 31.95891571044922
v 30.46031951904297 0.9814760684967041 31.95891761779785
v 30.45817756652832 2.96083402633667 31.95891761779785
v 30.473724365234375 2.973825454711914 31.958919525146484
v 29.18583106994629 2.9827919006347656 31.95892333984375
v 29.18583106994629 2.9647159576416016 31.95892333984375
v 30.45817756652832 2.96083402633667 31.95891761779785
v 30.454547882080078 2.9538636207580566 31.976926803588867
v 29.185832977294922 2.9560041427612305 31.976926803588867
v 29.18583106994629 2.9647159576416016 31.95892333984375
v 29.18583106994629 2.9647159576416016 31.95892333984375
v 29.185832977294922 2.9560041427612305 31.976926803588867
v 29.18583106994629 2.9827919006347656 31.976924896240234
v 29.18583106994629 2.9827919006347656 31.95892333984375
vn 0.675146771037182 0.6771037181996086 -0.2857142857142857
vn 0.675146771037182 0.6771037181996086 -0.2857142857142857
vn 0.675146771037182 0.6771037181996086 -0.2857142857142857
vn 0.8414872798434442 0.0019569471624266144 -0.538160469667319
vn 0.9197651663405088 0.0 -0.3913894324853229
vn 0.9178082191780822 0.0 -0.3933463796477495
vn 0.5225048923679061 0.5283757338551859 -0.6673189823874756
vn -0.07632093933463796 0.863013698630137 -0.49706457925636005
vn 0.0 0.8414872798434442 -0.5362035225048923
vn -0.23679060665362034 0.8943248532289628 -0.37377690802348335
vn -0.23679060665362034 0.8943248532289628 -0.37377690802348335
vn -0.8473581213307241 0.4227005870841487 -0.3150684931506849
vn 0.0 0.7945205479452054 -0.6046966731898239
vn 0.0 0.7925636007827789 -0.6066536203522505
vn -0.8473581213307241 0.4227005870841487 -0.3150684931506849
vn -0.44422700587084146 0.4324853228962818 -0.7827788649706457
vn -0.4461839530332681 0.44422700587084146 -0.7749510763209393
vn -0.44422700587084146 0.4344422700587084 -0.7808219178082192
vn -0.44422700587084146 0.4187866927592955 -0.7906066536203522
vn 0.0 0.0 -1.0
vn 0.0 0.0 -1.0
vn 0.0 0.0 -1.0
vn 0.0 0.0 -1.0
vn -0.005870841487279843 0.003913894324853229 -0.9980430528375733
vn -0.7103718199608611 0.0 -0.7025440313111546
vn -0.5851272015655578 0.0 -0.8101761252446184
vn -0.005870841487279843 0.005870841487279843 -0.9980430528375733
vn -0.9784735812133072 0.0 -0.19765166340508805
vn -0.9784735812133072 0.0 -0.19765166340508805
vn -0.9784735812133072 0.0 -0.19765166340508805
vn -0.9784735812133072 0.0 -0.19765166340508805
vn 0.0 0.0 -1.0
vn 0.0 0.0 -1.0
vn 0.0 0.0 -1.0
vn 0.0 0.0 -1.0
vn -0.7084148727984344 0.0 -0.7045009784735812
vn -0.7886497064579256 0.0 -0.6125244618395304
vn 0.0 -0.9315068493150684 -0.36203522504892366
vn 0.0 -0.9315068493150684 -0.36007827788649704
vn -0.0019569471624266144 -0.9001956947162426 -0.4344422700587084
vn -0.0019569471624266144 -0.898238747553816 -0.4344422700587084
vn -0.7886497064579256 0.0 -0.6125244618395304
vn -0.5851272015655578 0.0 -0.8101761252446184
vn -0.7103718199608611 0.0 -0.7025440313111546
vn -0.7084148727984344 0.0 -0.7045009784735812
vt 0.0 0.712943434715271
vt 9.5367431640625e-07 0.7067049741744995
vt 0.0021984484046697617 0.7098178863525391
vt 9.5367431640625e-07 0.7067049741744995
vt 9.5367431640625e-07 0.45669451355934143
vt 0.0021984484046697617 0.4587666094303131
vt 0.0021984484046697617 0.7098178863525391
vt -4.103665560251102e-06 0.8728557825088501
vt 0.0 0.712943434715271
vt 0.0021984484046697617 0.8728557825088501
vt 0.0021984484046697617 0.8728557825088501
vt 0.001566823571920395 0.8741998672485352
vt 0.001108469907194376 0.8808079957962036
vt -5.6325729929085355e-06 0.8835595846176147
vt 0.0011272140545770526 0.8728557229042053
vt 0.0 0.8897937536239624
vt -5.6325729929085355e-06 0.8835595846176147
vt 0.001108469907194376 0.8808079957962036
vt 0.002179208444431424 0.8840044736862183
vt -0.018808487802743912 0.03165295720100403
vt -0.018808487802743912 0.019166260957717896
vt 0.0003506724606268108 0.019175797700881958
vt 0.000347551133017987 0.03166976571083069
vt 0.001108469907194376 0.8808079957962036
vt 0.0011272140545770526 0.8728557229042053
vt 0.002183248521760106 0.8728557229042053
vt 0.002179208444431424 0.8840044736862183
vt 0.0032186396420001984 0.4587668776512146
vt 0.0038183717988431454 0.45785799622535706
vt 0.0038183717988431454 0.7050634622573853
vt 0.0032186401076614857 0.7097879648208618
vt 0.0021984484046697617 0.4587666094303131
vt 0.0032186396420001984 0.4587668776512146
vt 0.0032186401076614857 0.7097879648208618
vt 0.0021984484046697617 0.7098178863525391
vt 0.0021984484046697617 0.8728557825088501
vt 0.0032186396420001984 0.8728557229042053
vt 0.0032186401076614857 0.7097879648208618
vt 0.0038183717988431454 0.7145007848739624
vt 0.0038183717988431454 0.8728557229042053
vt 0.0032186396420001984 0.8728557229042053
vt 0.002179208444431424 0.8761485815048218
vt 0.0015618763864040375 0.8795563578605652
vt 0.001566823571920395 0.8741998672485352
vt 0.0021984484046697617 0.8728557825088501
usemtl TrackBorders
f 1/1/1 2/2/2 3/3/3
f 4/4/4 5/5/5 6/6/6
f 6/6/6 7/7/7 4/4/4
f 8/8/8 9/9/9 7/7/7
f 7/7/7 10/10/10 8/8/8
f 11/11/11 12/12/12 8/8/8
f 13/13/13 14/14/14 8/8/8
f 8/8/8 15/15/15 13/13/13
f 16/16/16 17/17/17 18/18/18
f 18/18/18 19/19/19 16/16/16
f 20/20/20 21/21/21 22/22/22
f 22/22/22 23/23/23 20/20/20
f 24/24/24 25/25/25 26/26/26
f 26/26/26 27/27/27 24/24/24
f 28/28/28 29/29/29 30/30/30
f 30/30/30 31/31/31 28/28/28
f 32/32/32 33/33/33 34/34/34
f 34/34/34 35/35/35 32/32/32
f 36/36/36 35/35/35 34/34/34
f 34/34/34 37/37/37 36/36/36
f 38/38/38 39/39/39 40/40/40
f 40/40/40 41/41/41 38/38/38
f 42/42/42 43/43/43 44/44/44
f 44/44/44 45/45/45 42/42/42
