o mesh2_lod4.obj
v 30.499984741210938 7.999997615814209 3.4969110629390343e-07
v 30.499984741210938 7.999998092651367 32.00001525878906
v 1.5000193119049072 7.999999046325684 31.999996185302734
v 1.5000181198120117 7.999999046325684 3.4969110629390343e-07
vn 0.0 -1.0 0.0
vn 0.0 -1.0 0.0
vn 0.0 -1.0 0.0
vn 0.0 -1.0 0.0
vt 1.0 0.9527592658996582
vt 4.76837158203125e-07 0.9527592062950134
vt 1.1920928955078125e-07 0.04724035784602165
vt 1.0 0.047240257263183594
usemtl TrackWallClips
f 1/1/1 2/2/2 3/3/3
f 3/3/3 4/4/4 1/1/1
