o mesh0_lod1.obj
v 1.5000181198120117 -0.9999927282333374 7.999999046325684
v 1.5000181198120117 -3.4969110629390343e-07 7.999999046325684
v 15.999999046325684 1.4909098354110029e-05 8.00000286102295
v 15.999999046325684 -0.9999850988388062 8.00000286102295
v 30.499984741210938 -3.4969110629390343e-07 7.999997615814209
v 1.5000182390213013 -1.999992847442627 7.999999046325684
v 30.499984741210938 -0.9999850988388062 7.999997615814209
v 15.999999046325684 -1.9999853372573853 8.00000286102295
v 1.5000182390213013 -2.999992847442627 7.999999046325684
v 30.499984741210938 -1.9999850988388062 7.999997615814209
v 15.999999046325684 -2.999985456466675 8.00000286102295
v 1.5000182390213013 -3.999993085861206 7.999999046325684
v 30.499984741210938 -2.9999849796295166 7.999997615814209
v 15.999999046325684 -3.999985933303833 8.00000286102295
v 1.5000183582305908 -4.999993324279785 7.999999046325684
v 30.499984741210938 -3.9999849796295166 7.999997615814209
v 15.999999046325684 -4.999986171722412 8.00000286102295
v 1.5000183582305908 -5.999993324279785 7.999999046325684
v 30.499984741210938 -4.999985218048096 7.999997615814209
v 15.999999046325684 -5.999986171722412 8.00000286102295
v 1.5000183582305908 -6.999993801116943 7.999999046325684
v 30.499984741210938 -5.999985218048096 7.999997615814209
v 15.999999046325684 -6.99998664855957 8.00000286102295
v 1.5000184774398804 -7.999993801116943 7.999999046325684
v 30.499984741210938 -6.999985218048096 7.999997615814209
v 15.999999046325684 -7.9999871253967285 8.00000286102295
v 1.5000184774398804 -8.999993324279785 7.999999046325684
v 30.499984741210938 -7.999985218048096 7.999997615814209
v 15.999999046325684 -8.99998664855957 8.00000286102295
v 1.5000184774398804 -9.999993324279785 7.999999046325684
v 30.499984741210938 -8.999984741210938 7.999997615814209
v 15.999999046325684 -9.99998664855957 8.00000286102295
v 1.50001859664917 -10.999993324279785 7.999999046325684
v 30.499984741210938 -9.999984741210938 7.999997615814209
v 16.0 -10.99998664855957 8.00000286102295
v 1.50001859664917 -11.999993324279785 7.999999046325684
v 30.499984741210938 -10.999984741210938 7.999997615814209
v 16.0 -11.999987602233887 8.00000286102295
v 1.50001859664917 -12.999994277954102 7.999999046325684
v 30.499984741210938 -11.999984741210938 7.999997615814209
v 16.0 -12.999987602233887 8.00000286102295
v 1.50001859664917 -13.999994277954102 7.999999046325684
v 30.499984741210938 -12.999984741210938 7.999997615814209
v 16.0 -13.999987602233887 8.00000286102295
v 1.5000187158584595 -14.999994277954102 7.999999046325684
v 30.499984741210938 -13.999984741210938 7.999997615814209
v 16.0 -14.999988555908203 8.00000286102295
v 1.5000187158584595 -15.999994277954102 7.999999046325684
v 30.499984741210938 -14.999984741210938 7.999997615814209
v 16.0 -15.999988555908203 8.00000286102295
v 1.5000187158584595 -16.9999942779541 7.999999046325684
v 30.499984741210938 -15.999984741210938 7.999997615814209
v 16.0 -16.999988555908203 8.00000286102295
v 1.500018835067749 -17.9999942779541 7.999999046325684
v 30.499984741210938 -16.999984741210938 7.999997615814209
v 16.0 -17.999988555908203 8.00000286102295
v 1.500018835067749 -18.9999942779541 7.999999046325684
v 30.499984741210938 -17.999984741210938 7.999997615814209
v 16.0 -18.999988555908203 8.000001907348633
v 1.500018835067749 -19.9999942779541 7.999999046325684
v 30.499984741210938 -18.999984741210938 7.999997615814209
v 16.0 -19.999988555908203 8.000001907348633
v 1.5000189542770386 -20.9999942779541 7.999999046325684
v 30.499984741210938 -19.999984741210938 7.999997615814209
v 16.0 -20.999988555908203 8.000001907348633
v 1.5000189542770386 -21.9999942779541 7.999999046325684
v 30.499984741210938 -20.999984741210938 7.999997615814209
v 16.0 -21.999990463256836 8.000001907348633
v 1.5000189542770386 -22.9999942779541 7.999999046325684
v 30.499984741210938 -21.999984741210938 7.999997615814209
v 16.0 -22.999990463256836 8.000001907348633
v 1.5000190734863281 -23.9999942779541 7.999999046325684
v 30.499984741210938 -22.999984741210938 7.999997615814209
v 16.0 -23.999990463256836 8.000001907348633
v 1.5000190734863281 -24.999996185302734 7.999999046325684
v 30.499984741210938 -23.999984741210938 7.999997615814209
v 16.0 -24.999990463256836 8.000001907348633
v 1.5000190734863281 -25.999996185302734 7.999999046325684
v 30.499984741210938 -24.999984741210938 7.999997615814209
v 16.0 -25.999990463256836 8.000001907348633
v 1.5000191926956177 -26.999996185302734 7.999999046325684
v 30.499984741210938 -25.999984741210938 7.999997615814209
v 16.0 -26.999990463256836 8.000001907348633
v 1.5000191926956177 -27.999996185302734 7.999999046325684
v 30.499984741210938 -26.999984741210938 7.999997615814209
v 16.0 -27.999990463256836 8.000001907348633
v 1.5000191926956177 -28.999996185302734 7.999999046325684
v 30.499984741210938 -27.999984741210938 7.999998092651367
v 16.0 -28.99999237060547 8.000001907348633
v 1.5000193119049072 -29.999996185302734 7.999999046325684
v 30.499984741210938 -28.999984741210938 7.999998092651367
v 16.0 -29.99999237060547 8.000001907348633
v 1.5000193119049072 -30.999996185302734 7.999999046325684
v 30.499984741210938 -29.999984741210938 7.999998092651367
v 16.0 -30.99999237060547 8.000001907348633
v 1.5000193119049072 -31.999996185302734 7.999999046325684
v 30.499984741210938 -30.999984741210938 7.999998092651367
v 16.0 -31.99999237060547 8.000001907348633
v 30.499984741210938 -32.00001525878906 7.999998092651367
vn 0.0 -0.0 -1.0
vn 0.0 -0.0 -1.0
vn 0.0 -0.0 -1.0
vn 0.0 -0.0 -1.0
vn 0.0 -0.0 -1.0
vn 0.0 -0.0 -1.0
vn 0.0 -0.0 -1.0
vn 0.0 -0.0 -1.0
vn 0.0 -0.0 -1.0
vn 0.0 -0.0 -1.0
vn 0.0 -0.0 -1.0
vn 0.0 -0.0 -1.0
vn 0.0 -0.0 -1.0
vn 0.0 -0.0 -1.0
vn 0.0 -0.0 -1.0
vn 0.0 -0.0 -1.0
vn 0.0 -0.0 -1.0
vn 0.0 -0.0 -1.0
vn 0.0 -0.0 -1.0
vn 0.0 -0.0 -1.0
vn 0.0 -0.0 -1.0
vn 0.0 -0.0 -1.0
vn 0.0 -0.0 -1.0
vn 0.0 -0.0 -1.0
vn 0.0 -0.0 -1.0
vn 0.0 -0.0 -1.0
vn 0.0 -0.0 -1.0
vn 0.0 -0.0 -1.0
vn 0.0 -0.0 -1.0
vn 0.0 -0.0 -1.0
vn 0.0 -0.0 -1.0
vn 0.0 -0.0 -1.0
vn 0.0 -0.0 -1.0
vn 0.0 -0.0 -1.0
vn 0.0 -0.0 -1.0
vn 0.0 -0.0 -1.0
vn 0.0 -0.0 -1.0
vn 0.0 -0.0 -1.0
vn 0.0 -0.0 -1.0
vn 0.0 -0.0 -1.0
vn 0.0 -0.0 -1.0
vn 0.0 -0.0 -1.0
vn 0.0 -0.0 -1.0
vn 0.0 -0.0 -1.0
vn 0.0 -0.0 -1.0
vn 0.0 -0.0 -1.0
vn 0.0 -0.0 -1.0
vn 0.0 -0.0 -1.0
vn 0.0 -0.0 -1.0
vn 0.0 -0.0 -1.0
vn 0.0 -0.0 -1.0
vn 0.0 -0.0 -1.0
vn 0.0 -0.0 -1.0
vn 0.0 -0.0 -1.0
vn 0.0 -0.0 -1.0
vn 0.0 -0.0 -1.0
vn 0.0 -0.0 -1.0
vn 0.0 -0.0 -1.0
vn 0.0 -0.0 -1.0
vn 0.0 -0.0 -1.0
vn 0.0 -0.0 -1.0
vn 0.0 -0.0 -1.0
vn 0.0 -0.0 -1.0
vn 0.0 -0.0 -1.0
vn 0.0 -0.0 -1.0
vn 0.0 -0.0 -1.0
vn 0.0 -0.0 -1.0
vn 0.0 -0.0 -1.0
vn 0.0 -0.0 -1.0
vn 0.0 -0.0 -1.0
vn 0.0 -0.0 -1.0
vn 0.0 -0.0 -1.0
vn 0.0 -0.0 -1.0
vn 0.0 -0.0 -1.0
vn 0.0 -0.0 -1.0
vn 0.0 -0.0 -1.0
vn 0.0 -0.0 -1.0
vn 0.0 -0.0 -1.0
vn 0.0 -0.0 -1.0
vn 0.0 -0.0 -1.0
vn 0.0 -0.0 -1.0
vn 0.0 -0.0 -1.0
vn 0.0 -0.0 -1.0
vn 0.0 -0.0 -1.0
vn 0.0 -0.0 -1.0
vn 0.0 -0.0 -1.0
vn 0.0 -0.0 -1.0
vn 0.0 -0.0 -1.0
vn 0.0 -0.0 -1.0
vn 0.0 -0.0 -1.0
vn 0.0 -0.0 -1.0
vn 0.0 -0.0 -1.0
vn 0.0 -0.0 -1.0
vn 0.0 -0.0 -1.0
vn 0.0 -0.0 -1.0
vn 0.0 -0.0 -1.0
vn 0.0 -0.0 -1.0
vn 0.0 -0.0 -1.0
vn 0.0 -0.0 -1.0
vt 0.96875 0.04724026471376419
vt 1.0 0.047240257263183594
vt 1.0 0.5
vt 0.96875 0.5
vt 1.0 0.9527592658996582
vt 0.9375 0.04724026843905449
vt 0.96875 0.9527592658996582
vt 0.9375 0.5
vt 0.90625 0.04724026843905449
vt 0.9375 0.9527592658996582
vt 0.90625 0.5
vt 0.875 0.04724026843905449
vt 0.90625 0.9527592658996582
vt 0.875 0.5
vt 0.84375 0.04724027216434479
vt 0.875 0.9527592658996582
vt 0.84375 0.5
vt 0.8125 0.047240279614925385
vt 0.84375 0.9527592658996582
vt 0.8125 0.5
vt 0.78125 0.047240279614925385
vt 0.8125 0.9527592658996582
vt 0.78125 0.5
vt 0.75 0.04724028334021568
vt 0.78125 0.9527592658996582
vt 0.75 0.5
vt 0.71875 0.04724028706550598
vt 0.75 0.9527592658996582
vt 0.71875 0.5
vt 0.6875 0.04724029451608658
vt 0.71875 0.9527592658996582
vt 0.6875 0.5
vt 0.65625 0.04724029451608658
vt 0.6875 0.9527592658996582
vt 0.65625 0.5
vt 0.625 0.04724029824137688
vt 0.65625 0.9527592658996582
vt 0.625 0.5
vt 0.5937501192092896 0.04724029824137688
vt 0.625 0.9527592658996582
vt 0.59375 0.5
vt 0.5625001192092896 0.047240301966667175
vt 0.59375 0.9527592658996582
vt 0.5625 0.5
vt 0.5312501192092896 0.04724030941724777
vt 0.5625 0.9527592658996582
vt 0.53125 0.5
vt 0.5000001192092896 0.04724030941724777
vt 0.53125 0.9527592062950134
vt 0.5 0.5
vt 0.46875008940696716 0.04724031314253807
vt 0.5 0.9527592062950134
vt 0.46875 0.5
vt 0.43750008940696716 0.04724031314253807
vt 0.46875 0.9527592062950134
vt 0.4375 0.5
vt 0.40625008940696716 0.04724031686782837
vt 0.4375 0.9527592062950134
vt 0.40625 0.5
vt 0.37500008940696716 0.047240324318408966
vt 0.40625 0.9527592062950134
vt 0.375 0.5
vt 0.34375008940696716 0.047240328043699265
vt 0.375 0.9527592062950134
vt 0.34375 0.5
vt 0.3125000596046448 0.047240328043699265
vt 0.34375 0.9527592062950134
vt 0.3125 0.5
vt 0.2812500596046448 0.04724033176898956
vt 0.3125 0.9527592062950134
vt 0.28125 0.5
vt 0.2500000596046448 0.04724033921957016
vt 0.28125 0.9527592062950134
vt 0.25 0.5
vt 0.21875011920928955 0.04724033921957016
vt 0.25 0.9527592062950134
vt 0.21875 0.5
vt 0.18750011920928955 0.04724033921957016
vt 0.21875 0.9527592062950134
vt 0.1875 0.5
vt 0.15625011920928955 0.04724034294486046
vt 0.1875 0.9527592062950134
vt 0.15625 0.5
vt 0.12500011920928955 0.04724034667015076
vt 0.15625 0.9527592062950134
vt 0.125 0.5
vt 0.09375011920928955 0.047240354120731354
vt 0.125 0.9527592062950134
vt 0.09375 0.5
vt 0.06250011920928955 0.04724035784602165
vt 0.09375 0.9527592062950134
vt 0.0625 0.5
vt 0.03125011920928955 0.04724035784602165
vt 0.0625 0.9527592062950134
vt 0.03125 0.5
vt 1.1920928955078125e-07 0.04724035784602165
vt 0.03125 0.9527592062950134
vt 0.0 0.5
vt 4.76837158203125e-07 0.9527592062950134
usemtl TrackWallClips
f 1/1/1 2/2/2 3/3/3
f 3/3/3 4/4/4 1/1/1
f 4/4/4 3/3/3 5/5/5
f 6/6/6 1/1/1 4/4/4
f 5/5/5 7/7/7 4/4/4
f 4/4/4 8/8/8 6/6/6
f 8/8/8 4/4/4 7/7/7
f 9/9/9 6/6/6 8/8/8
f 7/7/7 10/10/10 8/8/8
f 8/8/8 11/11/11 9/9/9
f 11/11/11 8/8/8 10/10/10
f 12/12/12 9/9/9 11/11/11
f 10/10/10 13/13/13 11/11/11
f 11/11/11 14/14/14 12/12/12
f 14/14/14 11/11/11 13/13/13
f 15/15/15 12/12/12 14/14/14
f 13/13/13 16/16/16 14/14/14
f 14/14/14 17/17/17 15/15/15
f 17/17/17 14/14/14 16/16/16
f 18/18/18 15/15/15 17/17/17
f 16/16/16 19/19/19 17/17/17
f 17/17/17 20/20/20 18/18/18
f 20/20/20 17/17/17 19/19/19
f 21/21/21 18/18/18 20/20/20
f 19/19/19 22/22/22 20/20/20
f 20/20/20 23/23/23 21/21/21
f 23/23/23 20/20/20 22/22/22
f 24/24/24 21/21/21 23/23/23
f 22/22/22 25/25/25 23/23/23
f 23/23/23 26/26/26 24/24/24
f 26/26/26 23/23/23 25/25/25
f 27/27/27 24/24/24 26/26/26
f 25/25/25 28/28/28 26/26/26
f 26/26/26 29/29/29 27/27/27
f 29/29/29 26/26/26 28/28/28
f 30/30/30 27/27/27 29/29/29
f 28/28/28 31/31/31 29/29/29
f 29/29/29 32/32/32 30/30/30
f 32/32/32 29/29/29 31/31/31
f 33/33/33 30/30/30 32/32/32
f 31/31/31 34/34/34 32/32/32
f 32/32/32 35/35/35 33/33/33
f 35/35/35 32/32/32 34/34/34
f 36/36/36 33/33/33 35/35/35
f 34/34/34 37/37/37 35/35/35
f 35/35/35 38/38/38 36/36/36
f 38/38/38 35/35/35 37/37/37
f 39/39/39 36/36/36 38/38/38
f 37/37/37 40/40/40 38/38/38
f 38/38/38 41/41/41 39/39/39
f 41/41/41 38/38/38 40/40/40
f 42/42/42 39/39/39 41/41/41
f 40/40/40 43/43/43 41/41/41
f 41/41/41 44/44/44 42/42/42
f 44/44/44 41/41/41 43/43/43
f 45/45/45 42/42/42 44/44/44
f 43/43/43 46/46/46 44/44/44
f 44/44/44 47/47/47 45/45/45
f 47/47/47 44/44/44 46/46/46
f 48/48/48 45/45/45 47/47/47
f 46/46/46 49/49/49 47/47/47
f 47/47/47 50/50/50 48/48/48
f 50/50/50 47/47/47 49/49/49
f 51/51/51 48/48/48 50/50/50
f 49/49/49 52/52/52 50/50/50
f 50/50/50 53/53/53 51/51/51
f 53/53/53 50/50/50 52/52/52
f 54/54/54 51/51/51 53/53/53
f 52/52/52 55/55/55 53/53/53
f 53/53/53 56/56/56 54/54/54
f 56/56/56 53/53/53 55/55/55
f 57/57/57 54/54/54 56/56/56
f 55/55/55 58/58/58 56/56/56
f 56/56/56 59/59/59 57/57/57
f 59/59/59 56/56/56 58/58/58
f 60/60/60 57/57/57 59/59/59
f 58/58/58 61/61/61 59/59/59
f 59/59/59 62/62/62 60/60/60
f 62/62/62 59/59/59 61/61/61
f 63/63/63 60/60/60 62/62/62
f 61/61/61 64/64/64 62/62/62
f 62/62/62 65/65/65 63/63/63
f 65/65/65 62/62/62 64/64/64
f 66/66/66 63/63/63 65/65/65
f 64/64/64 67/67/67 65/65/65
f 65/65/65 68/68/68 66/66/66
f 68/68/68 65/65/65 67/67/67
f 69/69/69 66/66/66 68/68/68
f 67/67/67 70/70/70 68/68/68
f 68/68/68 71/71/71 69/69/69
f 71/71/71 68/68/68 70/70/70
f 72/72/72 69/69/69 71/71/71
f 70/70/70 73/73/73 71/71/71
f 71/71/71 74/74/74 72/72/72
f 74/74/74 71/71/71 73/73/73
f 75/75/75 72/72/72 74/74/74
f 73/73/73 76/76/76 74/74/74
f 74/74/74 77/77/77 75/75/75
f 77/77/77 74/74/74 76/76/76
f 78/78/78 75/75/75 77/77/77
f 76/76/76 79/79/79 77/77/77
f 77/77/77 80/80/80 78/78/78
f 80/80/80 77/77/77 79/79/79
f 81/81/81 78/78/78 80/80/80
f 79/79/79 82/82/82 80/80/80
f 80/80/80 83/83/83 81/81/81
f 83/83/83 80/80/80 82/82/82
f 84/84/84 81/81/81 83/83/83
f 82/82/82 85/85/85 83/83/83
f 83/83/83 86/86/86 84/84/84
f 86/86/86 83/83/83 85/85/85
f 87/87/87 84/84/84 86/86/86
f 85/85/85 88/88/88 86/86/86
f 86/86/86 89/89/89 87/87/87
f 89/89/89 86/86/86 88/88/88
f 90/90/90 87/87/87 89/89/89
f 88/88/88 91/91/91 89/89/89
f 89/89/89 92/92/92 90/90/90
f 92/92/92 89/89/89 91/91/91
f 93/93/93 90/90/90 92/92/92
f 91/91/91 94/94/94 92/92/92
f 92/92/92 95/95/95 93/93/93
f 95/95/95 92/92/92 94/94/94
f 96/96/96 93/93/93 95/95/95
f 94/94/94 97/97/97 95/95/95
f 95/95/95 98/98/98 96/96/96
f 98/98/98 95/95/95 97/97/97
f 97/97/97 99/99/99 98/98/98
