o mesh0_lod1.obj
v 1.5000181198120117 7.999999046325684 0.9999927282333374
v 1.5000181198120117 7.999999046325684 3.4969110629390343e-07
v 15.999999046325684 8.00000286102295 -1.4909098354110029e-05
v 15.999999046325684 8.00000286102295 0.9999850988388062
v 30.499984741210938 7.999997615814209 3.4969110629390343e-07
v 1.5000182390213013 7.999999046325684 1.999992847442627
v 30.499984741210938 7.999997615814209 0.9999850988388062
v 15.999999046325684 8.00000286102295 1.9999853372573853
v 1.5000182390213013 7.999999046325684 2.999992847442627
v 30.499984741210938 7.999997615814209 1.9999850988388062
v 15.999999046325684 8.00000286102295 2.999985456466675
v 1.5000182390213013 7.999999046325684 3.999993085861206
v 30.499984741210938 7.999997615814209 2.9999849796295166
v 15.999999046325684 8.00000286102295 3.999985933303833
v 1.5000183582305908 7.999999046325684 4.999993324279785
v 30.499984741210938 7.999997615814209 3.9999849796295166
v 15.999999046325684 8.00000286102295 4.999986171722412
v 1.5000183582305908 7.999999046325684 5.999993324279785
v 30.499984741210938 7.999997615814209 4.999985218048096
v 15.999999046325684 8.00000286102295 5.999986171722412
v 1.5000183582305908 7.999999046325684 6.999993801116943
v 30.499984741210938 7.999997615814209 5.999985218048096
v 15.999999046325684 8.00000286102295 6.99998664855957
v 1.5000184774398804 7.999999046325684 7.999993801116943
v 30.499984741210938 7.999997615814209 6.999985218048096
v 15.999999046325684 8.00000286102295 7.9999871253967285
v 1.5000184774398804 7.999999046325684 8.999993324279785
v 30.499984741210938 7.999997615814209 7.999985218048096
v 15.999999046325684 8.00000286102295 8.99998664855957
v 1.5000184774398804 7.999999046325684 9.999993324279785
v 30.499984741210938 7.999997615814209 8.999984741210938
v 15.999999046325684 8.00000286102295 9.99998664855957
v 1.50001859664917 7.999999046325684 10.999993324279785
v 30.499984741210938 7.999997615814209 9.999984741210938
v 16.0 8.00000286102295 10.99998664855957
v 1.50001859664917 7.999999046325684 11.999993324279785
v 30.499984741210938 7.999997615814209 10.999984741210938
v 16.0 8.00000286102295 11.999987602233887
v 1.50001859664917 7.999999046325684 12.999994277954102
v 30.499984741210938 7.999997615814209 11.999984741210938
v 16.0 8.00000286102295 12.999987602233887
v 1.50001859664917 7.999999046325684 13.999994277954102
v 30.499984741210938 7.999997615814209 12.999984741210938
v 16.0 8.00000286102295 13.999987602233887
v 1.5000187158584595 7.999999046325684 14.999994277954102
v 30.499984741210938 7.999997615814209 13.999984741210938
v 16.0 8.00000286102295 14.999988555908203
v 1.5000187158584595 7.999999046325684 15.999994277954102
v 30.499984741210938 7.999997615814209 14.999984741210938
v 16.0 8.00000286102295 15.999988555908203
v 1.5000187158584595 7.999999046325684 16.9999942779541
v 30.499984741210938 7.999997615814209 15.999984741210938
v 16.0 8.00000286102295 16.999988555908203
v 1.500018835067749 7.999999046325684 17.9999942779541
v 30.499984741210938 7.999997615814209 16.999984741210938
v 16.0 8.00000286102295 17.999988555908203
v 1.500018835067749 7.999999046325684 18.9999942779541
v 30.499984741210938 7.999997615814209 17.999984741210938
v 16.0 8.000001907348633 18.999988555908203
v 1.500018835067749 7.999999046325684 19.9999942779541
v 30.499984741210938 7.999997615814209 18.999984741210938
v 16.0 8.000001907348633 19.999988555908203
v 1.5000189542770386 7.999999046325684 20.9999942779541
v 30.499984741210938 7.999997615814209 19.999984741210938
v 16.0 8.000001907348633 20.999988555908203
v 1.5000189542770386 7.999999046325684 21.9999942779541
v 30.499984741210938 7.999997615814209 20.999984741210938
v 16.0 8.000001907348633 21.999990463256836
v 1.5000189542770386 7.999999046325684 22.9999942779541
v 30.499984741210938 7.999997615814209 21.999984741210938
v 16.0 8.000001907348633 22.999990463256836
v 1.5000190734863281 7.999999046325684 23.9999942779541
v 30.499984741210938 7.999997615814209 22.999984741210938
v 16.0 8.000001907348633 23.999990463256836
v 1.5000190734863281 7.999999046325684 24.999996185302734
v 30.499984741210938 7.999997615814209 23.999984741210938
v 16.0 8.000001907348633 24.999990463256836
v 1.5000190734863281 7.999999046325684 25.999996185302734
v 30.499984741210938 7.999997615814209 24.999984741210938
v 16.0 8.000001907348633 25.999990463256836
v 1.5000191926956177 7.999999046325684 26.999996185302734
v 30.499984741210938 7.999997615814209 25.999984741210938
v 16.0 8.000001907348633 26.999990463256836
v 1.5000191926956177 7.999999046325684 27.999996185302734
v 30.499984741210938 7.999997615814209 26.999984741210938
v 16.0 8.000001907348633 27.999990463256836
v 1.5000191926956177 7.999999046325684 28.999996185302734
v 30.499984741210938 7.999998092651367 27.999984741210938
v 16.0 8.000001907348633 28.99999237060547
v 1.5000193119049072 7.999999046325684 29.999996185302734
v 30.499984741210938 7.999998092651367 28.999984741210938
v 16.0 8.000001907348633 29.99999237060547
v 1.5000193119049072 7.999999046325684 30.999996185302734
v 30.499984741210938 7.999998092651367 29.999984741210938
v 16.0 8.000001907348633 30.99999237060547
v 1.5000193119049072 7.999999046325684 31.999996185302734
v 30.499984741210938 7.999998092651367 30.999984741210938
v 16.0 8.000001907348633 31.99999237060547
v 30.499984741210938 7.999998092651367 32.00001525878906
vn 0.0 -1.0 0.0
vn 0.0 -1.0 0.0
vn 0.0 -1.0 0.0
vn 0.0 -1.0 0.0
vn 0.0 -1.0 0.0
vn 0.0 -1.0 0.0
vn 0.0 -1.0 0.0
vn 0.0 -1.0 0.0
vn 0.0 -1.0 0.0
vn 0.0 -1.0 0.0
vn 0.0 -1.0 0.0
vn 0.0 -1.0 0.0
vn 0.0 -1.0 0.0
vn 0.0 -1.0 0.0
vn 0.0 -1.0 0.0
vn 0.0 -1.0 0.0
vn 0.0 -1.0 0.0
vn 0.0 -1.0 0.0
vn 0.0 -1.0 0.0
vn 0.0 -1.0 0.0
vn 0.0 -1.0 0.0
vn 0.0 -1.0 0.0
vn 0.0 -1.0 0.0
vn 0.0 -1.0 0.0
vn 0.0 -1.0 0.0
vn 0.0 -1.0 0.0
vn 0.0 -1.0 0.0
vn 0.0 -1.0 0.0
vn 0.0 -1.0 0.0
vn 0.0 -1.0 0.0
vn 0.0 -1.0 0.0
vn 0.0 -1.0 0.0
vn 0.0 -1.0 0.0
vn 0.0 -1.0 0.0
vn 0.0 -1.0 0.0
vn 0.0 -1.0 0.0
vn 0.0 -1.0 0.0
vn 0.0 -1.0 0.0
vn 0.0 -1.0 0.0
vn 0.0 -1.0 0.0
vn 0.0 -1.0 0.0
vn 0.0 -1.0 0.0
vn 0.0 -1.0 0.0
vn 0.0 -1.0 0.0
vn 0.0 -1.0 0.0
vn 0.0 -1.0 0.0
vn 0.0 -1.0 0.0
vn 0.0 -1.0 0.0
vn 0.0 -1.0 0.0
vn 0.0 -1.0 0.0
vn 0.0 -1.0 0.0
vn 0.0 -1.0 0.0
vn 0.0 -1.0 0.0
vn 0.0 -1.0 0.0
vn 0.0 -1.0 0.0
vn 0.0 -1.0 0.0
vn 0.0 -1.0 0.0
vn 0.0 -1.0 0.0
vn 0.0 -1.0 0.0
vn 0.0 -1.0 0.0
vn 0.0 -1.0 0.0
vn 0.0 -1.0 0.0
vn 0.0 -1.0 0.0
vn 0.0 -1.0 0.0
vn 0.0 -1.0 0.0
vn 0.0 -1.0 0.0
vn 0.0 -1.0 0.0
vn 0.0 -1.0 0.0
vn 0.0 -1.0 0.0
vn 0.0 -1.0 0.0
vn 0.0 -1.0 0.0
vn 0.0 -1.0 0.0
vn 0.0 -1.0 0.0
vn 0.0 -1.0 0.0
vn 0.0 -1.0 0.0
vn 0.0 -1.0 0.0
vn 0.0 -1.0 0.0
vn 0.0 -1.0 0.0
vn 0.0 -1.0 0.0
vn 0.0 -1.0 0.0
vn 0.0 -1.0 0.0
vn 0.0 -1.0 0.0
vn 0.0 -1.0 0.0
vn 0.0 -1.0 0.0
vn 0.0 -1.0 0.0
vn 0.0 -1.0 0.0
vn 0.0 -1.0 0.0
vn 0.0 -1.0 0.0
vn 0.0 -1.0 0.0
vn 0.0 -1.0 0.0
vn 0.0 -1.0 0.0
vn 0.0 -1.0 0.0
vn 0.0 -1.0 0.0
vn 0.0 -1.0 0.0
vn 0.0 -1.0 0.0
vn 0.0 -1.0 0.0
vn 0.0 -1.0 0.0
vn 0.0 -1.0 0.0
vn 0.0 -1.0 0.0
vt 0.96875 0.04724026471376419
vt 1.0 0.047240257263183594
vt 1.0 0.5
vt 0.96875 0.5
vt 1.0 0.9527592658996582
vt 0.9375 0.04724026843905449
vt 0.96875 0.9527592658996582
vt 0.9375 0.5
vt 0.90625 0.04724026843905449
vt 0.9375 0.9527592658996582
vt 0.90625 0.5
vt 0.875 0.04724026843905449
vt 0.90625 0.9527592658996582
vt 0.875 0.5
vt 0.84375 0.04724027216434479
vt 0.875 0.9527592658996582
vt 0.84375 0.5
vt 0.8125 0.047240279614925385
vt 0.84375 0.9527592658996582
vt 0.8125 0.5
vt 0.78125 0.047240279614925385
vt 0.8125 0.9527592658996582
vt 0.78125 0.5
vt 0.75 0.04724028334021568
vt 0.78125 0.9527592658996582
vt 0.75 0.5
vt 0.71875 0.04724028706550598
vt 0.75 0.9527592658996582
vt 0.71875 0.5
vt 0.6875 0.04724029451608658
vt 0.71875 0.9527592658996582
vt 0.6875 0.5
vt 0.65625 0.04724029451608658
vt 0.6875 0.9527592658996582
vt 0.65625 0.5
vt 0.625 0.04724029824137688
vt 0.65625 0.9527592658996582
vt 0.625 0.5
vt 0.5937501192092896 0.04724029824137688
vt 0.625 0.9527592658996582
vt 0.59375 0.5
vt 0.5625001192092896 0.047240301966667175
vt 0.59375 0.9527592658996582
vt 0.5625 0.5
vt 0.5312501192092896 0.04724030941724777
vt 0.5625 0.9527592658996582
vt 0.53125 0.5
vt 0.5000001192092896 0.04724030941724777
vt 0.53125 0.9527592062950134
vt 0.5 0.5
vt 0.46875008940696716 0.04724031314253807
vt 0.5 0.9527592062950134
vt 0.46875 0.5
vt 0.43750008940696716 0.04724031314253807
vt 0.46875 0.9527592062950134
vt 0.4375 0.5
vt 0.40625008940696716 0.04724031686782837
vt 0.4375 0.9527592062950134
vt 0.40625 0.5
vt 0.37500008940696716 0.047240324318408966
vt 0.40625 0.9527592062950134
vt 0.375 0.5
vt 0.34375008940696716 0.047240328043699265
vt 0.375 0.9527592062950134
vt 0.34375 0.5
vt 0.3125000596046448 0.047240328043699265
vt 0.34375 0.9527592062950134
vt 0.3125 0.5
vt 0.2812500596046448 0.04724033176898956
vt 0.3125 0.9527592062950134
vt 0.28125 0.5
vt 0.2500000596046448 0.04724033921957016
vt 0.28125 0.9527592062950134
vt 0.25 0.5
vt 0.21875011920928955 0.04724033921957016
vt 0.25 0.9527592062950134
vt 0.21875 0.5
vt 0.18750011920928955 0.04724033921957016
vt 0.21875 0.9527592062950134
vt 0.1875 0.5
vt 0.15625011920928955 0.04724034294486046
vt 0.1875 0.9527592062950134
vt 0.15625 0.5
vt 0.12500011920928955 0.04724034667015076
vt 0.15625 0.9527592062950134
vt 0.125 0.5
vt 0.09375011920928955 0.047240354120731354
vt 0.125 0.9527592062950134
vt 0.09375 0.5
vt 0.06250011920928955 0.04724035784602165
vt 0.09375 0.9527592062950134
vt 0.0625 0.5
vt 0.03125011920928955 0.04724035784602165
vt 0.0625 0.9527592062950134
vt 0.03125 0.5
vt 1.1920928955078125e-07 0.04724035784602165
vt 0.03125 0.9527592062950134
vt 0.0 0.5
vt 4.76837158203125e-07 0.9527592062950134
usemtl TrackWallClips
f 1/1/1 2/2/2 3/3/3
f 3/3/3 4/4/4 1/1/1
f 4/4/4 3/3/3 5/5/5
f 6/6/6 1/1/1 4/4/4
f 5/5/5 7/7/7 4/4/4
f 4/4/4 8/8/8 6/6/6
f 8/8/8 4/4/4 7/7/7
f 9/9/9 6/6/6 8/8/8
f 7/7/7 10/10/10 8/8/8
f 8/8/8 11/11/11 9/9/9
f 11/11/11 8/8/8 10/10/10
f 12/12/12 9/9/9 11/11/11
f 10/10/10 13/13/13 11/11/11
f 11/11/11 14/14/14 12/12/12
f 14/14/14 11/11/11 13/13/13
f 15/15/15 12/12/12 14/14/14
f 13/13/13 16/16/16 14/14/14
f 14/14/14 17/17/17 15/15/15
f 17/17/17 14/14/14 16/16/16
f 18/18/18 15/15/15 17/17/17
f 16/16/16 19/19/19 17/17/17
f 17/17/17 20/20/20 18/18/18
f 20/20/20 17/17/17 19/19/19
f 21/21/21 18/18/18 20/20/20
f 19/19/19 22/22/22 20/20/20
f 20/20/20 23/23/23 21/21/21
f 23/23/23 20/20/20 22/22/22
f 24/24/24 21/21/21 23/23/23
f 22/22/22 25/25/25 23/23/23
f 23/23/23 26/26/26 24/24/24
f 26/26/26 23/23/23 25/25/25
f 27/27/27 24/24/24 26/26/26
f 25/25/25 28/28/28 26/26/26
f 26/26/26 29/29/29 27/27/27
f 29/29/29 26/26/26 28/28/28
f 30/30/30 27/27/27 29/29/29
f 28/28/28 31/31/31 29/29/29
f 29/29/29 32/32/32 30/30/30
f 32/32/32 29/29/29 31/31/31
f 33/33/33 30/30/30 32/32/32
f 31/31/31 34/34/34 32/32/32
f 32/32/32 35/35/35 33/33/33
f 35/35/35 32/32/32 34/34/34
f 36/36/36 33/33/33 35/35/35
f 34/34/34 37/37/37 35/35/35
f 35/35/35 38/38/38 36/36/36
f 38/38/38 35/35/35 37/37/37
f 39/39/39 36/36/36 38/38/38
f 37/37/37 40/40/40 38/38/38
f 38/38/38 41/41/41 39/39/39
f 41/41/41 38/38/38 40/40/40
f 42/42/42 39/39/39 41/41/41
f 40/40/40 43/43/43 41/41/41
f 41/41/41 44/44/44 42/42/42
f 44/44/44 41/41/41 43/43/43
f 45/45/45 42/42/42 44/44/44
f 43/43/43 46/46/46 44/44/44
f 44/44/44 47/47/47 45/45/45
f 47/47/47 44/44/44 46/46/46
f 48/48/48 45/45/45 47/47/47
f 46/46/46 49/49/49 47/47/47
f 47/47/47 50/50/50 48/48/48
f 50/50/50 47/47/47 49/49/49
f 51/51/51 48/48/48 50/50/50
f 49/49/49 52/52/52 50/50/50
f 50/50/50 53/53/53 51/51/51
f 53/53/53 50/50/50 52/52/52
f 54/54/54 51/51/51 53/53/53
f 52/52/52 55/55/55 53/53/53
f 53/53/53 56/56/56 54/54/54
f 56/56/56 53/53/53 55/55/55
f 57/57/57 54/54/54 56/56/56
f 55/55/55 58/58/58 56/56/56
f 56/56/56 59/59/59 57/57/57
f 59/59/59 56/56/56 58/58/58
f 60/60/60 57/57/57 59/59/59
f 58/58/58 61/61/61 59/59/59
f 59/59/59 62/62/62 60/60/60
f 62/62/62 59/59/59 61/61/61
f 63/63/63 60/60/60 62/62/62
f 61/61/61 64/64/64 62/62/62
f 62/62/62 65/65/65 63/63/63
f 65/65/65 62/62/62 64/64/64
f 66/66/66 63/63/63 65/65/65
f 64/64/64 67/67/67 65/65/65
f 65/65/65 68/68/68 66/66/66
f 68/68/68 65/65/65 67/67/67
f 69/69/69 66/66/66 68/68/68
f 67/67/67 70/70/70 68/68/68
f 68/68/68 71/71/71 69/69/69
f 71/71/71 68/68/68 70/70/70
f 72/72/72 69/69/69 71/71/71
f 70/70/70 73/73/73 71/71/71
f 71/71/71 74/74/74 72/72/72
f 74/74/74 71/71/71 73/73/73
f 75/75/75 72/72/72 74/74/74
f 73/73/73 76/76/76 74/74/74
f 74/74/74 77/77/77 75/75/75
f 77/77/77 74/74/74 76/76/76
f 78/78/78 75/75/75 77/77/77
f 76/76/76 79/79/79 77/77/77
f 77/77/77 80/80/80 78/78/78
f 80/80/80 77/77/77 79/79/79
f 81/81/81 78/78/78 80/80/80
f 79/79/79 82/82/82 80/80/80
f 80/80/80 83/83/83 81/81/81
f 83/83/83 80/80/80 82/82/82
f 84/84/84 81/81/81 83/83/83
f 82/82/82 85/85/85 83/83/83
f 83/83/83 86/86/86 84/84/84
f 86/86/86 83/83/83 85/85/85
f 87/87/87 84/84/84 86/86/86
f 85/85/85 88/88/88 86/86/86
f 86/86/86 89/89/89 87/87/87
f 89/89/89 86/86/86 88/88/88
f 90/90/90 87/87/87 89/89/89
f 88/88/88 91/91/91 89/89/89
f 89/89/89 92/92/92 90/90/90
f 92/92/92 89/89/89 91/91/91
f 93/93/93 90/90/90 92/92/92
f 91/91/91 94/94/94 92/92/92
f 92/92/92 95/95/95 93/93/93
f 95/95/95 92/92/92 94/94/94
f 96/96/96 93/93/93 95/95/95
f 94/94/94 97/97/97 95/95/95
f 95/95/95 98/98/98 96/96/96
f 98/98/98 95/95/95 97/97/97
f 97/97/97 99/99/99 98/98/98
