o mesh2_lod2.obj
v 0.0 2.4461073167003633e-08 0.09286874532699585
v -0.1617206633090973 -0.0 0.09284837543964386
v -0.27760612964630127 -0.2938598394393921 0.12617845833301544
v 0.1617206633090973 1.2048985809087753e-08 0.09284837543964386
v 0.0 2.4461073167003633e-08 0.09286874532699585
v -0.27760612964630127 -0.2938598394393921 0.12617845833301544
v 0.27760612964630127 -0.2938598394393921 0.12617845833301544
v 0.1617206633090973 1.2048985809087753e-08 0.09284837543964386
v -0.27760612964630127 -0.2938598394393921 0.12617845833301544
v -0.27760612964630127 -0.2938598394393921 0.12617845833301544
v 0.0 -0.3419163227081299 0.1380024403333664
v 0.27760612964630127 -0.2938598394393921 0.12617845833301544
v 0.16172245144844055 2.0139850676059723e-08 -0.09291510283946991
v 0.0 2.850652869312853e-08 -0.09293553233146667
v 0.0 2.4461073167003633e-08 0.09286874532699585
v 0.1617206633090973 1.2048985809087753e-08 0.09284837543964386
v 0.2776060700416565 -0.29385989904403687 -0.12618890404701233
v -0.2776060700416565 -0.29385989904403687 -0.12618887424468994
v -0.16172245144844055 2.9802322387695312e-08 -0.09291510283946991
v -0.16172245144844055 2.9802322387695312e-08 -0.09291510283946991
v 0.0 2.850652869312853e-08 -0.09293553233146667
v 0.16172245144844055 2.0139850676059723e-08 -0.09291510283946991
v 0.2776060700416565 -0.29385989904403687 -0.12618890404701233
v 0.2776060700416565 -0.29385989904403687 -0.12618890404701233
v 0.0 -0.3419163227081299 -0.13801303505897522
v -0.2776060700416565 -0.29385989904403687 -0.12618887424468994
v 0.2776060700416565 -0.29385989904403687 -0.12618890404701233
v 0.16172245144844055 2.0139850676059723e-08 -0.09291510283946991
v 0.1617206633090973 1.2048985809087753e-08 0.09284837543964386
v 0.27760612964630127 -0.2938598394393921 0.12617845833301544
v -0.16172245144844055 2.9802322387695312e-08 -0.09291510283946991
v -0.1617206633090973 -0.0 0.09284837543964386
v 0.0 2.4461073167003633e-08 0.09286874532699585
v 0.0 2.850652869312853e-08 -0.09293553233146667
v -0.27760612964630127 -0.2938598394393921 0.12617845833301544
v -0.1617206633090973 -0.0 0.09284837543964386
v -0.16172245144844055 2.9802322387695312e-08 -0.09291510283946991
v -0.2776060700416565 -0.29385989904403687 -0.12618887424468994
vn 0.0 0.11154598825831702 0.9921722113502935
vn 0.0 0.11154598825831702 0.9921722113502935
vn 0.0 0.12720156555772993 0.9902152641878669
vn 0.0 0.11154598825831702 0.9921722113502935
vn 0.0 0.11154598825831702 0.9921722113502935
vn 0.0 0.12720156555772993 0.9902152641878669
vn 0.0 0.12720156555772993 0.9902152641878669
vn 0.0 0.11154598825831702 0.9921722113502935
vn 0.0 0.12720156555772993 0.9902152641878669
vn 0.0 0.12720156555772993 0.9902152641878669
vn 0.0 0.23874755381604695 0.9706457925636007
vn 0.0 0.12720156555772993 0.9902152641878669
vn 0.0 1.0 0.0
vn 0.0 1.0 0.0
vn 0.0 1.0 0.0
vn 0.0 1.0 0.0
vn 0.0 0.12720156555772993 -0.9902152641878669
vn 0.0 0.12720156555772993 -0.9902152641878669
vn 0.0 0.11154598825831702 -0.9921722113502935
vn 0.0 0.11154598825831702 -0.9921722113502935
vn 0.0 -1.0 0.0
vn 0.0 0.11154598825831702 -0.9921722113502935
vn 0.0 0.12720156555772993 -0.9902152641878669
vn 0.0 0.12720156555772993 -0.9902152641878669
vn 0.0 0.23874755381604695 -0.9706457925636007
vn 0.0 0.12720156555772993 -0.9902152641878669
vn 0.9295499021526419 0.3659491193737769 0.0
vn 0.9295499021526419 0.3659491193737769 0.0
vn 0.9295499021526419 0.3659491193737769 0.0
vn 0.9295499021526419 0.3659491193737769 0.0
vn 0.0 1.0 0.0
vn 0.0 1.0 0.0
vn 0.0 1.0 0.0
vn 0.0 1.0 0.0
vn -0.9295499021526419 0.3659491193737769 0.0
vn -0.9295499021526419 0.3659491193737769 0.0
vn -0.9295499021526419 0.3659491193737769 0.0
vn -0.9295499021526419 0.3659491193737769 0.0
vt 0.288471519947052 0.9425475001335144
vt 0.27628272771835327 0.9425475001335144
vt 0.2691799998283386 0.9600318670272827
vt 0.27628272771835327 0.9425475001335144
vt 0.288471519947052 0.9425475001335144
vt 0.2691799998283386 0.9600318670272827
vt 0.2691799998283386 0.9600318670272827
vt 0.27628272771835327 0.9425475001335144
vt 0.2691799998283386 0.9600318670272827
vt 0.26848387718200684 0.9678292274475098
vt 0.2885149419307709 0.968622088432312
vt 0.26848387718200684 0.9678292274475098
vt 0.2762925922870636 0.9255838394165039
vt 0.2884778678417206 0.9255838394165039
vt 0.2884777784347534 0.942051887512207
vt 0.2762925922870636 0.9420511722564697
vt 0.2691799998283386 0.9600318670272827
vt 0.2691799998283386 0.9600318670272827
vt 0.27628272771835327 0.9425475001335144
vt 0.27628272771835327 0.9425475001335144
vt 0.288471519947052 0.9425475001335144
vt 0.27628272771835327 0.9425475001335144
vt 0.2691799998283386 0.9600318670272827
vt 0.26848387718200684 0.9678292274475098
vt 0.2885149419307709 0.968622088432312
vt 0.26848387718200684 0.9678292274475098
vt 0.2564576268196106 0.924084484577179
vt 0.2757318615913391 0.9255838394165039
vt 0.2757318615913391 0.9420511722564697
vt 0.2564575970172882 0.9436041116714478
vt 0.2762925922870636 0.9255838394165039
vt 0.2762925922870636 0.9420511722564697
vt 0.2884777784347534 0.942051887512207
vt 0.2884778678417206 0.9255838394165039
vt 0.2564575970172882 0.9436041116714478
vt 0.2757318615913391 0.9420511722564697
vt 0.2757318615913391 0.9255838394165039
vt 0.2564576268196106 0.924084484577179
usemtl Technics
f 1/1/1 2/2/2 3/3/3
f 4/4/4 5/5/5 6/6/6
f 7/7/7 8/8/8 9/9/9
f 10/10/10 11/11/11 12/12/12
f 13/13/13 14/14/14 15/15/15
f 15/15/15 16/16/16 13/13/13
f 17/17/17 18/18/18 19/19/19
f 20/20/20 21/21/21 22/22/22
f 23/23/23 20/20/20 22/22/22
f 24/24/24 25/25/25 26/26/26
f 27/27/27 28/28/28 29/29/29
f 29/29/29 30/30/30 27/27/27
f 31/31/31 32/32/32 33/33/33
f 33/33/33 34/34/34 31/31/31
f 35/35/35 36/36/36 37/37/37
f 37/37/37 38/38/38 35/35/35
