o mesh4_lod4.obj
v 0.277605801820755 -0.12683576345443726 0.30372482538223267
v 0.277605801820755 0.12682537734508514 0.3037247061729431
v -0.277605801820755 0.12682537734508514 0.3037247061729431
v -0.277605801820755 -0.12683576345443726 0.30372482538223267
vn 0.0 0.0 1.0
vn 0.0 0.0 1.0
vn 0.0 0.0 1.0
vn 0.0 0.0 1.0
vt -1.9666484594345093 0.9148454666137695
vt -1.9667056798934937 0.08543985337018967
vt 4.589557647705078e-05 0.08543980121612549
vt -1.1324882507324219e-05 0.9148454666137695
usemtl LightSpot
f 1/1/1 2/2/2 3/3/3
f 3/3/3 4/4/4 1/1/1
