o mesh6_lod4.obj
v 2.984818458557129 1.5122809410095215 32.59668731689453
v 29.01519203186035 1.5122809410095215 32.5966796875
v 29.0152587890625 0.4515482187271118 32.596675872802734
v 2.9847517013549805 0.4515482187271118 32.596683502197266
v 29.01519203186035 1.5122809410095215 32.5966796875
v 2.984818458557129 1.5122809410095215 32.59668731689453
v 2.700138807296753 1.7015529870986938 31.99999237060547
v 29.29987144470215 1.7015537023544312 31.9999942779541
v 29.01519203186035 1.5122809410095215 32.5966796875
v 29.29987144470215 1.7015537023544312 31.9999942779541
v 29.29987144470215 0.27517539262771606 31.9999942779541
v 29.0152587890625 0.4515482187271118 32.596675872802734
v 29.29987144470215 0.27517539262771606 31.9999942779541
v 2.700138807296753 0.2751753628253937 31.99999237060547
v 2.9847517013549805 0.4515482187271118 32.596683502197266
v 29.0152587890625 0.4515482187271118 32.596675872802734
v 29.299869537353516 -2.7418136596679688e-06 31.99998664855957
v 2.7001407146453857 -2.7418136596679688e-06 31.99998664855957
v 2.700138807296753 0.2751753628253937 31.99999237060547
v 29.29987144470215 0.27517539262771606 31.9999942779541
v 2.984818458557129 1.5122809410095215 32.59668731689453
v 2.9847517013549805 0.4515482187271118 32.596683502197266
v 2.700138807296753 0.2751753628253937 31.99999237060547
v 2.700138807296753 1.7015529870986938 31.99999237060547
v 2.700138807296753 1.7015529870986938 31.99999237060547
v 2.7001726627349854 1.999997854232788 31.999988555908203
v 29.29987144470215 1.9999980926513672 31.9999942779541
v 29.29987144470215 1.7015537023544312 31.9999942779541
vn 0.0 0.0 -1.0
vn 0.0 0.0 -1.0
vn 0.0 0.0 -1.0
vn 0.0 0.0 -1.0
vn 0.0 -0.9530332681017613 -0.3013698630136986
vn 0.0 -0.9530332681017613 -0.3013698630136986
vn 0.0 -0.9530332681017613 -0.3013698630136986
vn 0.0 -0.9530332681017613 -0.3013698630136986
vn -0.9021526418786693 0.0 -0.43052837573385516
vn -0.9021526418786693 0.0 -0.43052837573385516
vn -0.9021526418786693 0.0 -0.43052837573385516
vn -0.9021526418786693 0.0 -0.42857142857142855
vn 0.0 0.958904109589041 -0.28180039138943247
vn 0.0 0.958904109589041 -0.28180039138943247
vn 0.0 0.958904109589041 -0.28180039138943247
vn 0.0 0.958904109589041 -0.28180039138943247
vn 0.0 0.0 -1.0
vn 0.0 0.0 -1.0
vn 0.0 0.0 -1.0
vn 0.0 0.0 -1.0
vn 0.9021526418786693 0.0 -0.43052837573385516
vn 0.9021526418786693 0.0 -0.42857142857142855
vn 0.9021526418786693 0.0 -0.43052837573385516
vn 0.9021526418786693 0.0 -0.43052837573385516
vn 0.0 0.0 -1.0
vn 0.0 0.0 -1.0
vn 0.0 0.0 -1.0
vn 0.0 0.0 -1.0
vt 1.4352110624313354 0.062493350356817245
vt 0.564788818359375 0.062493354082107544
vt 0.5647865533828735 0.03106425516307354
vt 1.435211181640625 0.0310479998588562
vt 1.435211181640625 0.0310479998588562
vt 0.5647890567779541 0.0310479998588562
vt 0.556360125541687 0.007766973227262497
vt 1.443640112876892 0.007766973227262497
vt 0.5634602904319763 0.0310479998588562
vt 0.5566356778144836 0.007767166011035442
vt 0.6080603003501892 0.007767166011035442
vt 0.6017024517059326 0.0310479998588562
vt 0.5566356778144836 0.007767166011035442
vt 1.443364143371582 0.007766973227262497
vt 1.435211181640625 0.0310479998588562
vt 0.5647865533828735 0.03106425516307354
vt 0.0700407326221466 0.007804845459759235
vt 0.9299581050872803 0.007804861292243004
vt 0.9293135404586792 0.015514524653553963
vt 0.07068535685539246 0.015514517202973366
vt 0.6012356877326965 0.0310479998588562
vt 0.5629935264587402 0.0310479998588562
vt 0.5566356778144836 0.007767166011035442
vt 0.6080603003501892 0.007767166011035442
vt 0.9293115735054016 0.007804831489920616
vt 0.9299603700637817 0.015512736514210701
vt 0.07003853470087051 0.015512721613049507
vt 0.07068729400634766 0.007804819382727146
usemtl TechnicsTrims
f 1/1/1 2/2/2 3/3/3
f 3/3/3 4/4/4 1/1/1
f 5/5/5 6/6/6 7/7/7
f 7/7/7 8/8/8 5/5/5
f 9/9/9 10/10/10 11/11/11
f 11/11/11 12/12/12 9/9/9
f 13/13/13 14/14/14 15/15/15
f 15/15/15 16/16/16 13/13/13
f 17/17/17 18/18/18 19/19/19
f 19/19/19 20/20/20 17/17/17
f 21/21/21 22/22/22 23/23/23
f 23/23/23 24/24/24 21/21/21
f 25/25/25 26/26/26 27/27/27
f 27/27/27 28/28/28 25/25/25
