o mesh0_lod1.obj
v 29.28618049621582 1.9774973392486572 31.984039306640625
v 29.29987144470215 1.9999980926513672 31.9999942779541
v 29.29987144470215 1.9324973821640015 31.9999942779541
v 29.28618049621582 1.9549975395202637 31.984041213989258
v 16.0000057220459 1.9325587749481201 31.999998092651367
v 16.0000057220459 1.9774988889694214 31.98404312133789
v 16.0000057220459 1.9999982118606567 31.999998092651367
v 2.700138807296753 1.9999980926513672 31.9999942779541
v 16.0000057220459 1.9549981355667114 31.98404312133789
v 2.713829755783081 1.9549975395202637 31.984041213989258
v 2.700138807296753 1.9324973821640015 31.9999942779541
v 2.713829755783081 1.9774973392486572 31.984039306640625
vn 0.34442270058708413 0.22309197651663404 -0.9099804305283757
vn 0.34637964774951074 0.3913894324853229 -0.8512720156555773
vn 0.34637964774951074 -0.3913894324853229 -0.8512720156555773
vn 0.34442270058708413 -0.22309197651663404 -0.9099804305283757
vn 0.0 -0.5792563600782779 -0.8140900195694716
vn 0.0 0.30332681017612523 -0.9510763209393346
vn 0.0 0.5772994129158513 -0.8140900195694716
vn -0.34637964774951074 0.3913894324853229 -0.8512720156555773
vn 0.0 -0.30332681017612523 -0.9510763209393346
vn -0.34442270058708413 -0.22309197651663404 -0.9099804305283757
vn -0.34637964774951074 -0.3913894324853229 -0.8512720156555773
vn -0.34442270058708413 0.22309197651663404 -0.9099804305283757
vt -0.0005775738973170519 0.915188193321228
vt 0.0 0.9156200289726257
vt -0.0017322064377367496 0.9156219363212585
vt -0.0011549476766958833 0.9151882529258728
vt -0.00173187383916229 0.5
vt -0.0005770257557742298 0.5
vt -9.604264050722122e-10 0.5
vt -1.280568540096283e-09 0.08438003063201904
vt -0.0011544348672032356 0.5
vt -0.0011549604823812842 0.08481180667877197
vt -0.0017322314670309424 0.08437815308570862
vt -0.0005775702884420753 0.08481180667877197
usemtl RoadTech
f 1/1/1 2/2/2 3/3/3
f 3/3/3 4/4/4 1/1/1
f 4/4/4 3/3/3 5/5/5
f 2/2/2 1/1/1 6/6/6
f 6/6/6 1/1/1 4/4/4
f 6/6/6 7/7/7 2/2/2
f 8/8/8 7/7/7 6/6/6
f 5/5/5 9/9/9 4/4/4
f 4/4/4 9/9/9 6/6/6
f 10/10/10 9/9/9 5/5/5
f 6/6/6 9/9/9 10/10/10
f 5/5/5 11/11/11 10/10/10
f 6/6/6 12/12/12 8/8/8
f 11/11/11 8/8/8 12/12/12
f 10/10/10 12/12/12 6/6/6
f 12/12/12 10/10/10 11/11/11
