o mesh4_lod2.obj
v 29.01519203186035 1.5122809410095215 32.5966796875
v 29.29987144470215 1.7015537023544312 31.9999942779541
v 29.29987144470215 0.27517539262771606 31.9999942779541
v 29.0152587890625 0.4515482187271118 32.596675872802734
v 16.000003814697266 1.5122814178466797 32.5966682434082
v 29.01519203186035 1.5122809410095215 32.5966796875
v 29.0152587890625 0.4515482187271118 32.596675872802734
v 16.0000057220459 0.45154762268066406 32.59666061401367
v 2.9847517013549805 0.4515482187271118 32.596683502197266
v 2.984818458557129 1.5122809410095215 32.59668731689453
v 16.000003814697266 1.7015985250473022 32.000003814697266
v 29.29987144470215 1.7015537023544312 31.9999942779541
v 29.01519203186035 1.5122809410095215 32.5966796875
v 16.000003814697266 1.5122814178466797 32.5966682434082
v 2.984818458557129 1.5122809410095215 32.59668731689453
v 2.700138807296753 1.7015529870986938 31.99999237060547
v 29.29987144470215 0.27517539262771606 31.9999942779541
v 16.0000057220459 0.27517223358154297 32.000003814697266
v 16.0000057220459 0.45154762268066406 32.59666061401367
v 29.0152587890625 0.4515482187271118 32.596675872802734
v 2.700138807296753 0.2751753628253937 31.99999237060547
v 2.9847517013549805 0.4515482187271118 32.596683502197266
v 16.0000057220459 0.27517229318618774 32.0511474609375
v 15.999988555908203 1.7015916109085083 32.051151275634766
v 16.244752883911133 1.5122815370559692 32.5966682434082
v 16.244821548461914 0.4515475928783417 32.59666442871094
v 16.0000057220459 0.27517229318618774 32.0511474609375
v 15.755189895629883 0.4515475332736969 32.59666442871094
v 15.755125045776367 1.5122814178466797 32.59666442871094
v 15.999988555908203 1.7015916109085083 32.051151275634766
v 29.299869537353516 -2.7418136596679688e-06 31.99998664855957
v 15.999999046325684 -1.52587890625e-05 32.0
v 16.0000057220459 0.27517223358154297 32.000003814697266
v 29.29987144470215 0.27517539262771606 31.9999942779541
v 2.7001407146453857 -2.7418136596679688e-06 31.99998664855957
v 2.700138807296753 0.2751753628253937 31.99999237060547
v 16.000003814697266 1.7015985250473022 32.000003814697266
v 16.0000057220459 1.9325587749481201 31.999998092651367
v 29.29987144470215 1.9324973821640015 31.9999942779541
v 29.29987144470215 1.7015537023544312 31.9999942779541
v 2.700138807296753 1.9324973821640015 31.9999942779541
v 2.700138807296753 1.7015529870986938 31.99999237060547
v 2.984818458557129 1.5122809410095215 32.59668731689453
v 2.9847517013549805 0.4515482187271118 32.596683502197266
v 2.700138807296753 0.2751753628253937 31.99999237060547
v 2.700138807296753 1.7015529870986938 31.99999237060547
vn -0.9021526418786693 0.0 -0.43052837573385516
vn -0.9021526418786693 0.0 -0.43052837573385516
vn -0.9021526418786693 0.0 -0.43052837573385516
vn -0.9021526418786693 0.0 -0.42857142857142855
vn 0.0 0.0 -1.0
vn 0.0 0.0 -1.0
vn 0.0 0.0 -1.0
vn 0.0 0.0 -1.0
vn 0.0 0.0 -1.0
vn 0.0 0.0 -1.0
vn 0.0 -0.9530332681017613 -0.3013698630136986
vn 0.0 -0.9530332681017613 -0.3013698630136986
vn 0.0 -0.9530332681017613 -0.3013698630136986
vn 0.0 -0.9530332681017613 -0.3013698630136986
vn 0.0 -0.9530332681017613 -0.3013698630136986
vn 0.0 -0.9530332681017613 -0.3013698630136986
vn 0.0 0.958904109589041 -0.28180039138943247
vn 0.0 0.958904109589041 -0.28180039138943247
vn 0.0 0.958904109589041 -0.28180039138943247
vn 0.0 0.958904109589041 -0.28180039138943247
vn 0.0 0.958904109589041 -0.28180039138943247
vn 0.0 0.958904109589041 -0.28180039138943247
vn 0.0 0.0 -1.0
vn 0.0 0.0 -1.0
vn 0.9119373776908023 0.0 -0.4090019569471624
vn 0.9119373776908023 0.0 -0.4090019569471624
vn 0.0 0.0 -1.0
vn -0.9119373776908023 0.0 -0.4090019569471624
vn -0.9119373776908023 0.0 -0.4090019569471624
vn 0.0 0.0 -1.0
vn 0.0 0.0 -1.0
vn 0.0 0.0 -1.0
vn 0.0 0.0 -1.0
vn 0.0 0.0 -1.0
vn 0.0 0.0 -1.0
vn 0.0 0.0 -1.0
vn 0.0 0.0 -1.0
vn 0.0 0.0 -1.0
vn 0.0 0.0 -1.0
vn 0.0 0.0 -1.0
vn 0.0 0.0 -1.0
vn 0.0 0.0 -1.0
vn 0.9021526418786693 0.0 -0.43052837573385516
vn 0.9021526418786693 0.0 -0.42857142857142855
vn 0.9021526418786693 0.0 -0.43052837573385516
vn 0.9021526418786693 0.0 -0.43052837573385516
vt 0.5634602904319763 0.0310479998588562
vt 0.5566356778144836 0.007767166011035442
vt 0.6080602407455444 0.00776542816311121
vt 0.6017024517059326 0.0310479998588562
vt 1.0 0.062493354082107544
vt 0.564788818359375 0.062493354082107544
vt 0.5647865533828735 0.03106425516307354
vt 1.0 0.0310479998588562
vt 1.4352134466171265 0.03106425516307354
vt 1.4352110624313354 0.062493350356817245
vt 1.0 0.007766973227262497
vt 1.443640112876892 0.007766973227262497
vt 1.435211181640625 0.0310479998588562
vt 1.0 0.0310479998588562
vt 0.5647890567779541 0.0310479998588562
vt 0.556360125541687 0.007766973227262497
vt 0.5566356778144836 0.007767166011035442
vt 1.0 0.007766973227262497
vt 1.0 0.0310479998588562
vt 0.5647865533828735 0.03106425516307354
vt 1.443364143371582 0.007766973227262497
vt 1.4352134466171265 0.03106425516307354
vt 0.5566356778144836 0.007767166011035442
vt 0.6142147183418274 0.007767161354422569
vt 0.6065911054611206 0.0310479998588562
vt 0.5637733936309814 0.0310479998588562
vt 0.6142147183418274 0.007767161354422569
vt 0.6065911054611206 0.0310479998588562
vt 0.5637733936309814 0.0310479998588562
vt 0.5566356778144836 0.007767166011035442
vt 0.0700407326221466 0.007804845459759235
vt 0.5 0.007806052919477224
vt 0.5 0.015514465048909187
vt 0.07068535685539246 0.015514517202973366
vt 0.9299581050872803 0.007804861292243004
vt 0.9293135404586792 0.015514524653553963
vt 0.5 0.007806052919477224
vt 0.5 0.015514465048909187
vt 0.07003853470087051 0.015512721613049507
vt 0.07068729400634766 0.007804819382727146
vt 0.9299603700637817 0.015512736514210701
vt 0.9293115735054016 0.007804831489920616
vt 0.6012356877326965 0.0310479998588562
vt 0.5629935264587402 0.0310479998588562
vt 0.5566356778144836 0.007767166011035442
vt 0.6080602407455444 0.00776542816311121
usemtl TechnicsTrims
f 1/1/1 2/2/2 3/3/3
f 3/3/3 4/4/4 1/1/1
f 5/5/5 6/6/6 7/7/7
f 7/7/7 8/8/8 5/5/5
f 5/5/5 8/8/8 9/9/9
f 9/9/9 10/10/10 5/5/5
f 11/11/11 12/12/12 13/13/13
f 13/13/13 14/14/14 11/11/11
f 11/11/11 14/14/14 15/15/15
f 15/15/15 16/16/16 11/11/11
f 17/17/17 18/18/18 19/19/19
f 19/19/19 20/20/20 17/17/17
f 19/19/19 18/18/18 21/21/21
f 21/21/21 22/22/22 19/19/19
f 23/23/23 24/24/24 25/25/25
f 25/25/25 26/26/26 23/23/23
f 27/27/27 28/28/28 29/29/29
f 29/29/29 30/30/30 27/27/27
f 31/31/31 32/32/32 33/33/33
f 33/33/33 34/34/34 31/31/31
f 33/33/33 32/32/32 35/35/35
f 35/35/35 36/36/36 33/33/33
f 37/37/37 38/38/38 39/39/39
f 39/39/39 40/40/40 37/37/37
f 41/41/41 38/38/38 37/37/37
f 37/37/37 42/42/42 41/41/41
f 43/43/43 44/44/44 45/45/45
f 45/45/45 46/46/46 43/43/43
