o mesh6_lod4.obj
v 34.700130462646484 1.9999980926513672 64.0
v 61.299869537353516 1.9999980926513672 64.00000762939453
v 60.5451774597168 1.9999980926513672 54.41059875488281
v 33.00178527832031 1.9999980926513672 53.277069091796875
v 58.299644470214844 1.9999980926513672 45.05730056762695
v 54.61859130859375 1.9999980926513672 36.170440673828125
v 28.072996139526367 1.9999980926513672 43.60377502441406
v 49.59264373779297 1.9999980926513672 27.968841552734375
v 43.345550537109375 1.9999980926513672 20.654434204101562
v 20.39622688293457 1.9999980926513672 35.92699432373047
v 36.03115463256836 1.9999980926513672 14.4073486328125
v 27.829566955566406 1.9999980926513672 9.381416320800781
v 10.722931861877441 1.9999980926513672 30.998207092285156
v 18.942705154418945 1.9999980926513672 5.700355529785156
v 9.589411735534668 1.9999980926513672 3.454833984375
v 0.0 1.9999980926513672 29.299869537353516
v 0.0 1.9999980926513672 2.7001266479492188
v 0.0 2.8032922744750977 2.7001495361328125
v 0.0 1.9999980926513672 2.7001266479492188
v 9.589411735534668 1.9999980926513672 3.454833984375
v 9.589410781860352 2.8032922744750977 3.4548263549804688
v 18.942705154418945 1.9999980926513672 5.700355529785156
v 18.94270133972168 2.8032922744750977 5.700370788574219
v 27.829566955566406 1.9999980926513672 9.381416320800781
v 27.82956886291504 2.8032922744750977 9.381416320800781
v 36.03115463256836 1.9999980926513672 14.4073486328125
v 36.031150817871094 2.8032922744750977 14.407363891601562
v 43.345550537109375 1.9999980926513672 20.654434204101562
v 43.34554672241211 2.8032922744750977 20.65444564819336
v 49.59264373779297 1.9999980926513672 27.968841552734375
v 49.59264373779297 2.8032922744750977 27.968833923339844
v 54.61859130859375 1.9999980926513672 36.170440673828125
v 54.61858367919922 2.8032922744750977 36.17045593261719
v 58.299644470214844 1.9999980926513672 45.05730056762695
v 58.29963684082031 2.8032922744750977 45.05730056762695
v 60.5451774597168 1.9999980926513672 54.41059875488281
v 60.545169830322266 2.8032922744750977 54.41060256958008
v 61.299869537353516 1.9999980926513672 64.00000762939453
v 61.299861907958984 2.8032922744750977 64.00000762939453
v 0.0 1.9999980926513672 29.299869537353516
v 0.0 2.8032922744750977 29.29985809326172
v 10.722932815551758 2.8032922744750977 30.998210906982422
v 10.722931861877441 1.9999980926513672 30.998207092285156
v 20.396224975585938 2.8032922744750977 35.927001953125
v 20.39622688293457 1.9999980926513672 35.92699432373047
v 28.072998046875 2.8032922744750977 43.6037712097168
v 28.072996139526367 1.9999980926513672 43.60377502441406
v 33.00178909301758 2.8032922744750977 53.277069091796875
v 33.00178527832031 1.9999980926513672 53.277069091796875
v 34.70013427734375 2.8032922744750977 64.0
v 34.700130462646484 1.9999980926513672 64.0
vn 0.0 1.0 0.0
vn 0.0 1.0 0.0
vn 0.0 1.0 0.0
vn 0.0 1.0 0.0
vn 0.0 1.0 0.0
vn 0.0 1.0 0.0
vn 0.0 1.0 0.0
vn 0.0 1.0 0.0
vn 0.0 1.0 0.0
vn 0.0 1.0 0.0
vn 0.0 1.0 0.0
vn 0.0 1.0 0.0
vn 0.0 1.0 0.0
vn 0.0 1.0 0.0
vn 0.0 1.0 0.0
vn 0.0 1.0 0.0
vn 0.0 1.0 0.0
vn -0.07827788649706457 0.0 0.9960861056751468
vn -0.07827788649706457 0.0 0.9960861056751468
vn -0.15459882583170254 0.0 0.9863013698630136
vn -0.15459882583170254 0.0 0.9863013698630136
vn -0.30724070450097846 0.0 0.949119373776908
vn -0.30724070450097846 0.0 0.949119373776908
vn -0.4520547945205479 0.0 0.8904109589041096
vn -0.4520547945205479 0.0 0.8904109589041096
vn -0.5870841487279843 0.0 0.8082191780821918
vn -0.5870841487279843 0.0 0.8082191780821918
vn -0.7064579256360078 0.0 0.7064579256360078
vn -0.7064579256360078 0.0 0.7064579256360078
vn -0.8082191780821918 0.0 0.5870841487279843
vn -0.8082191780821918 0.0 0.5870841487279843
vn -0.8904109589041096 0.0 0.4520547945205479
vn -0.8904109589041096 0.0 0.4520547945205479
vn -0.949119373776908 0.0 0.30724070450097846
vn -0.949119373776908 0.0 0.30724070450097846
vn -0.9863013698630136 0.0 0.15459882583170254
vn -0.9863013698630136 0.0 0.15459882583170254
vn -0.9960861056751468 0.0 0.07827788649706457
vn -0.9960861056751468 0.0 0.07827788649706457
vn 0.15459882583170254 0.0 -0.9863013698630136
vn 0.15459882583170254 0.0 -0.9863013698630136
vn 0.30724070450097846 0.0 -0.949119373776908
vn 0.30724070450097846 0.0 -0.949119373776908
vn 0.5870841487279843 0.0 -0.8082191780821918
vn 0.5870841487279843 0.0 -0.8082191780821918
vn 0.8082191780821918 0.0 -0.5870841487279843
vn 0.8082191780821918 0.0 -0.5870841487279843
vn 0.949119373776908 0.0 -0.30724070450097846
vn 0.949119373776908 0.0 -0.30724070450097846
vn 0.9863013698630136 0.0 -0.15459882583170254
vn 0.9863013698630136 0.0 -0.15459882583170254
vt 2.75 0.08438017219305038
vt 2.75 0.9156198501586914
vt 2.5 0.9156198501586914
vt 2.25 0.08438017219305038
vt 2.249999761581421 0.9156198501586914
vt 1.9999998807907104 0.9156198501586914
vt 1.7500001192092896 0.08438018709421158
vt 1.75 0.9156198501586914
vt 1.4999998807907104 0.9156198501586914
vt 1.2499998807907104 0.08438019454479218
vt 1.2499998807907104 0.9156198501586914
vt 0.9999999403953552 0.9156198501586914
vt 0.7499999403953552 0.08438020199537277
vt 0.7499996423721313 0.9156198501586914
vt 0.4999997615814209 0.9156198501586914
vt 0.24999988079071045 0.08438020199537277
vt 0.24999988079071045 0.9156198501586914
vt 0.24999988079071045 0.9406212568283081
vt 0.24999988079071045 0.9156198501586914
vt 0.4999997615814209 0.9156198501586914
vt 0.4999997615814209 0.9406212568283081
vt 0.7499996423721313 0.9156198501586914
vt 0.7499997019767761 0.9406212568283081
vt 0.9999999403953552 0.9156198501586914
vt 0.9999999403953552 0.9406212568283081
vt 1.2499998807907104 0.9156198501586914
vt 1.249999761581421 0.9406212568283081
vt 1.4999998807907104 0.9156198501586914
vt 1.499999761581421 0.9406212568283081
vt 1.75 0.9156198501586914
vt 1.75 0.9406212568283081
vt 1.9999998807907104 0.9156198501586914
vt 1.9999998807907104 0.9406212568283081
vt 2.249999761581421 0.9156198501586914
vt 2.249999761581421 0.9406212568283081
vt 2.5 0.9156198501586914
vt 2.5 0.9406212568283081
vt 2.75 0.9156198501586914
vt 2.75 0.9406212568283081
vt 0.24999988079071045 0.08438020199537277
vt 0.24999988079071045 0.05937879905104637
vt 0.7499998807907104 0.05937879532575607
vt 0.7499999403953552 0.08438020199537277
vt 1.2499998807907104 0.05937878414988518
vt 1.2499998807907104 0.08438019454479218
vt 1.75 0.05937877297401428
vt 1.7500001192092896 0.08438018709421158
vt 2.25 0.059378765523433685
vt 2.25 0.08438017219305038
vt 2.75 0.05937875434756279
vt 2.75 0.08438017219305038
usemtl RoadTech
f 1/1/1 2/2/2 3/3/3
f 3/3/3 4/4/4 1/1/1
f 3/3/3 5/5/5 4/4/4
f 5/5/5 6/6/6 4/4/4
f 6/6/6 7/7/7 4/4/4
f 6/6/6 8/8/8 7/7/7
f 8/8/8 9/9/9 7/7/7
f 9/9/9 10/10/10 7/7/7
f 9/9/9 11/11/11 10/10/10
f 11/11/11 12/12/12 10/10/10
f 12/12/12 13/13/13 10/10/10
f 12/12/12 14/14/14 13/13/13
f 14/14/14 15/15/15 13/13/13
f 16/16/16 13/13/13 15/15/15
f 15/15/15 17/17/17 16/16/16
f 18/18/18 19/19/19 20/20/20
f 20/20/20 21/21/21 18/18/18
f 21/21/21 20/20/20 22/22/22
f 22/22/22 23/23/23 21/21/21
f 23/23/23 22/22/22 24/24/24
f 24/24/24 25/25/25 23/23/23
f 25/25/25 24/24/24 26/26/26
f 26/26/26 27/27/27 25/25/25
f 27/27/27 26/26/26 28/28/28
f 28/28/28 29/29/29 27/27/27
f 29/29/29 28/28/28 30/30/30
f 30/30/30 31/31/31 29/29/29
f 31/31/31 30/30/30 32/32/32
f 32/32/32 33/33/33 31/31/31
f 33/33/33 32/32/32 34/34/34
f 34/34/34 35/35/35 33/33/33
f 35/35/35 34/34/34 36/36/36
f 36/36/36 37/37/37 35/35/35
f 37/37/37 36/36/36 38/38/38
f 38/38/38 39/39/39 37/37/37
f 40/40/40 41/41/41 42/42/42
f 42/42/42 43/43/43 40/40/40
f 43/43/43 42/42/42 44/44/44
f 44/44/44 45/45/45 43/43/43
f 45/45/45 44/44/44 46/46/46
f 46/46/46 47/47/47 45/45/45
f 47/47/47 46/46/46 48/48/48
f 48/48/48 49/49/49 47/47/47
f 49/49/49 48/48/48 50/50/50
f 50/50/50 51/51/51 49/49/49
