o mesh2_lod2.obj
v 29.29986572265625 -0.0 2.8032922744750977
v 29.299869537353516 -0.0 1.9999980926513672
v 29.299869537353516 -32.0 1.9999980926513672
v 29.29986572265625 -32.0 2.8032922744750977
v 29.299869537353516 -0.0 1.9999980926513672
v 16.0 -0.0 2.000002861022949
v 16.0 -32.0 2.000002861022949
v 29.299869537353516 -32.0 1.9999980926513672
v 2.7001304626464844 -32.0 1.9999980926513672
v 2.7001304626464844 -0.0 1.9999980926513672
v 2.7001304626464844 -0.0 1.9999980926513672
v 2.70013427734375 -0.0 2.8032922744750977
v 2.70013427734375 -32.0 2.8032922744750977
v 2.7001304626464844 -32.0 1.9999980926513672
vn -1.0 -0.0 0.0
vn -1.0 -0.0 0.0
vn -1.0 -0.0 0.0
vn -1.0 -0.0 0.0
vn 0.0 -0.0 1.0
vn 0.0 -0.0 1.0
vn 0.0 -0.0 1.0
vn 0.0 -0.0 1.0
vn 0.0 -0.0 1.0
vn 0.0 -0.0 1.0
vn 1.0 -0.0 0.0
vn 1.0 -0.0 0.0
vn 1.0 -0.0 0.0
vn 1.0 -0.0 0.0
vt 2.142156452222821e-09 0.9406212568283081
vt 2.142156452222821e-09 0.9156198501586914
vt 0.9999999403953552 0.9156198501586914
vt 0.9999999403953552 0.9406212568283081
vt 2.142156452222821e-09 0.9156198501586914
vt 2.142156452222821e-09 0.5
vt 0.9999999403953552 0.5
vt 0.9999999403953552 0.9156198501586914
vt 0.9999999403953552 0.08438019454479218
vt 0.0 0.08438020944595337
vt 0.0 0.08438020944595337
vt 0.0 0.05937880277633667
vt 0.9999999403953552 0.05937878414988518
vt 0.9999999403953552 0.08438019454479218
usemtl RoadTech
f 1/1/1 2/2/2 3/3/3
f 3/3/3 4/4/4 1/1/1
f 5/5/5 6/6/6 7/7/7
f 7/7/7 8/8/8 5/5/5
f 9/9/9 7/7/7 6/6/6
f 6/6/6 10/10/10 9/9/9
f 11/11/11 12/12/12 13/13/13
f 13/13/13 14/14/14 11/11/11
