o mesh6_lod4.obj
v -7.365133114944911e-06 2.8032925128936768 2.7001399993896484
v -7.365134479186963e-06 1.9999982118606567 2.70013427734375
v 3.8308751583099365 1.9999984502792358 2.959259033203125
v 3.830874443054199 2.8032925128936768 2.9592628479003906
v 7.583372592926025 1.9999982118606567 3.698497772216797
v 7.583371639251709 2.8032925128936768 3.6985015869140625
v 11.21135139465332 1.9999984502792358 4.933406829833984
v 11.211347579956055 2.8032925128936768 4.93341064453125
v 14.649938583374023 1.9999982118606567 6.6255645751953125
v 14.649935722351074 2.8032925128936768 6.625568389892578
v 17.834680557250977 1.9999982118606567 8.757394790649414
v 17.834678649902344 2.8032925128936768 8.757396697998047
v 20.718137741088867 1.9999982118606567 11.281866073608398
v 20.718135833740234 2.8032925128936768 11.281866073608398
v 23.24260711669922 1.9999982118606567 14.165325164794922
v 23.24260711669922 2.8032925128936768 14.165327072143555
v 25.374435424804688 1.9999982118606567 17.350067138671875
v 25.374433517456055 2.8032925128936768 17.35007095336914
v 27.06658935546875 1.9999982118606567 20.788654327392578
v 27.066585540771484 2.803292751312256 20.78865623474121
v 28.301502227783203 1.9999982118606567 24.416637420654297
v 28.301496505737305 2.8032925128936768 24.416637420654297
v 29.045616149902344 1.9999982118606567 28.206146240234375
v 29.045604705810547 2.8032925128936768 28.206146240234375
v 29.299867630004883 1.9999982118606567 32.0
v 29.299861907958984 2.8032925128936768 32.0
v 29.045616149902344 1.9999982118606567 28.206146240234375
v 28.301502227783203 1.9999982118606567 24.416637420654297
v 1.7809394598007202 1.9999983310699463 30.219066619873047
v 29.299867630004883 1.9999982118606567 32.0
v 2.700129508972168 1.9999983310699463 32.00000762939453
v 27.06658935546875 1.9999982118606567 20.788654327392578
v 25.374435424804688 1.9999982118606567 17.350067138671875
v 23.24260711669922 1.9999982118606567 14.165325164794922
v 20.718137741088867 1.9999982118606567 11.281866073608398
v 3.8308751583099365 1.9999984502792358 2.959259033203125
v -7.365134479186963e-06 1.9999982118606567 2.70013427734375
v -1.6901437902561156e-06 1.9999983310699463 29.299877166748047
v 1.7809394598007202 1.9999983310699463 30.219066619873047
v 7.583372592926025 1.9999982118606567 3.698497772216797
v 11.21135139465332 1.9999984502792358 4.933406829833984
v 14.649938583374023 1.9999982118606567 6.6255645751953125
v 17.834680557250977 1.9999982118606567 8.757394790649414
v 20.718137741088867 1.9999982118606567 11.281866073608398
v -1.6901437902561156e-06 1.9999983310699463 29.299877166748047
v -1.690144813437655e-06 2.8032922744750977 29.29987335205078
v 1.8442256450653076 2.8032922744750977 30.155780792236328
v 1.7809394598007202 1.9999983310699463 30.219066619873047
v 2.7001333236694336 2.8032922744750977 32.00000762939453
v 2.700129508972168 1.9999983310699463 32.00000762939453
vn -0.06653620352250489 0.0 0.9960861056751468
vn -0.06653620352250489 0.0 0.9960861056751468
vn -0.12915851272015655 0.0 0.9902152641878669
vn -0.12915851272015655 0.0 0.9902152641878669
vn -0.2583170254403131 0.0 0.9647749510763209
vn -0.2583170254403131 0.0 0.9647749510763209
vn -0.3816046966731898 0.0 0.923679060665362
vn -0.3816046966731898 0.0 0.923679060665362
vn -0.49902152641878667 0.0 0.8649706457925636
vn -0.49902152641878667 0.0 0.8649706457925636
vn -0.6086105675146771 0.0 0.7925636007827789
vn -0.6086105675146771 0.0 0.7925636007827789
vn -0.7064579256360078 0.0 0.7064579256360078
vn -0.7064579256360078 0.0 0.7064579256360078
vn -0.7925636007827789 0.0 0.6086105675146771
vn -0.7925636007827789 0.0 0.6086105675146771
vn -0.8649706457925636 0.0 0.49902152641878667
vn -0.8649706457925636 0.0 0.49902152641878667
vn -0.923679060665362 0.0 0.3816046966731898
vn -0.923679060665362 0.0 0.3816046966731898
vn -0.9647749510763209 0.0 0.2563600782778865
vn -0.9647749510763209 0.0 0.2563600782778865
vn -0.9902152641878669 0.0 0.12915851272015655
vn -0.9902152641878669 0.0 0.12915851272015655
vn -0.9960861056751468 0.0 0.06653620352250489
vn -0.9960861056751468 0.0 0.06653620352250489
vn 0.0 1.0 0.0
vn 0.0 1.0 0.0
vn 0.0 1.0 0.0
vn 0.0 1.0 0.0
vn 0.0 1.0 0.0
vn 0.0 1.0 0.0
vn 0.0 1.0 0.0
vn 0.0 1.0 0.0
vn 0.0 1.0 0.0
vn 0.0 1.0 0.0
vn 0.0 1.0 0.0
vn 0.0 1.0 0.0
vn 0.0 1.0 0.0
vn 0.0 1.0 0.0
vn 0.0 1.0 0.0
vn 0.0 1.0 0.0
vn 0.0 1.0 0.0
vn 0.0 1.0 0.0
vn 0.42857142857142855 -0.023483365949119372 -0.9021526418786693
vn 0.4207436399217221 0.0 -0.9060665362035225
vn 0.7142857142857143 -0.0958904109589041 -0.6927592954990215
vn 0.7142857142857143 -0.0958904109589041 -0.6908023483365949
vn 0.8923679060665362 -0.023483365949119372 -0.4481409001956947
vn 0.8884540117416829 0.0 -0.45792563600782776
vt -0.15625004470348358 0.9406212568283081
vt -0.15625004470348358 0.9156198501586914
vt -0.0468754768371582 0.9156198501586914
vt -0.0468754768371582 0.9406212568283081
vt 0.06249985098838806 0.9156198501586914
vt 0.06249985098838806 0.9406212568283081
vt 0.17187446355819702 0.9156198501586914
vt 0.17187446355819702 0.9406212568283081
vt 0.2812497615814209 0.9156198501586914
vt 0.2812497615814209 0.9406212568283081
vt 0.39062508940696716 0.9156198501586914
vt 0.39062508940696716 0.9406212568283081
vt 0.49999985098838806 0.9156198501586914
vt 0.49999964237213135 0.9406212568283081
vt 0.6093749403953552 0.9156198501586914
vt 0.6093749403953552 0.9406212568283081
vt 0.7187496423721313 0.9156198501586914
vt 0.7187496423721313 0.9406212568283081
vt 0.8281248807907104 0.9156198501586914
vt 0.8281248807907104 0.9406212568283081
vt 0.937499463558197 0.9156198501586914
vt 0.937499463558197 0.9406212568283081
vt 1.046874761581421 0.9156198501586914
vt 1.046874761581421 0.9406212568283081
vt 1.15625 0.9156198501586914
vt 1.15625 0.9406212568283081
vt 0.2187500298023224 0.9156198501586914
vt 0.31250032782554626 0.9156198501586914
vt 0.1496269553899765 0.08438030630350113
vt 0.12499978393316269 0.9156198501586914
vt 0.12499991059303284 0.08438017964363098
vt 0.4062495529651642 0.9156198501586914
vt 0.49999985098838806 0.9156198501586914
vt 0.5937501192092896 0.9156198501586914
vt 0.6874999403953552 0.9156198501586914
vt 0.2187500298023224 0.9156198501586914
vt 0.12499978393316269 0.9156198501586914
vt 0.12499991059303284 0.08438017964363098
vt 0.1496269553899765 0.08438030630350113
vt 0.31250032782554626 0.9156198501586914
vt 0.4062495529651642 0.9156198501586914
vt 0.49999985098838806 0.9156198501586914
vt 0.5937501192092896 0.9156198501586914
vt 0.6874999403953552 0.9156198501586914
vt 0.4059593081474304 0.08438020944595337
vt 0.4059593081474304 0.05937879905104637
vt 0.49999985098838806 0.05937879532575607
vt 0.4999999403953552 0.08438020199537277
vt 0.5940403938293457 0.059378787875175476
vt 0.5940403938293457 0.08438019454479218
usemtl RoadTech
f 1/1/1 2/2/2 3/3/3
f 3/3/3 4/4/4 1/1/1
f 4/4/4 3/3/3 5/5/5
f 5/5/5 6/6/6 4/4/4
f 6/6/6 5/5/5 7/7/7
f 7/7/7 8/8/8 6/6/6
f 8/8/8 7/7/7 9/9/9
f 9/9/9 10/10/10 8/8/8
f 10/10/10 9/9/9 11/11/11
f 11/11/11 12/12/12 10/10/10
f 12/12/12 11/11/11 13/13/13
f 13/13/13 14/14/14 12/12/12
f 14/14/14 13/13/13 15/15/15
f 15/15/15 16/16/16 14/14/14
f 16/16/16 15/15/15 17/17/17
f 17/17/17 18/18/18 16/16/16
f 18/18/18 17/17/17 19/19/19
f 19/19/19 20/20/20 18/18/18
f 20/20/20 19/19/19 21/21/21
f 21/21/21 22/22/22 20/20/20
f 22/22/22 21/21/21 23/23/23
f 23/23/23 24/24/24 22/22/22
f 24/24/24 23/23/23 25/25/25
f 25/25/25 26/26/26 24/24/24
f 27/27/27 28/28/28 29/29/29
f 30/30/30 27/27/27 29/29/29
f 30/30/30 29/29/29 31/31/31
f 29/29/29 28/28/28 32/32/32
f 32/32/32 33/33/33 29/29/29
f 29/29/29 33/33/33 34/34/34
f 34/34/34 35/35/35 29/29/29
f 36/36/36 37/37/37 38/38/38
f 36/36/36 38/38/38 39/39/39
f 40/40/40 36/36/36 39/39/39
f 41/41/41 40/40/40 39/39/39
f 39/39/39 42/42/42 41/41/41
f 43/43/43 42/42/42 39/39/39
f 39/39/39 44/44/44 43/43/43
f 45/45/45 46/46/46 47/47/47
f 47/47/47 48/48/48 45/45/45
f 48/48/48 47/47/47 49/49/49
f 49/49/49 50/50/50 48/48/48
