o mesh6_lod4.obj
v 0.0 2.8032922744750977 2.70013427734375
v 9.073220098798629e-06 1.999997854232788 2.70013427734375
v 9.589422225952148 2.178762435913086 3.454833984375
v 9.589410781860352 2.9820570945739746 3.4548492431640625
v 18.942720413208008 2.7412688732147217 5.700370788574219
v 18.94269561767578 3.5445637702941895 5.700370788574219
v 27.829551696777344 3.6230766773223877 9.381401062011719
v 27.829551696777344 4.4263715744018555 9.381401062011719
v 36.031124114990234 4.746090412139893 14.407341003417969
v 36.0311164855957 5.5493855476379395 14.407341003417969
v 43.34552001953125 5.999997138977051 20.65441131591797
v 43.345523834228516 6.803289890289307 20.654415130615234
v 49.5926399230957 7.25390100479126 27.968841552734375
v 49.592628479003906 8.057193756103516 27.968833923339844
v 54.61858367919922 8.376917839050293 36.17045593261719
v 54.61857604980469 9.180211067199707 36.170448303222656
v 58.29963302612305 9.258724212646484 45.05726623535156
v 58.29962921142578 10.062019348144531 45.05726623535156
v 60.545162200927734 9.821231842041016 54.41055679321289
v 60.545162200927734 10.624526977539062 54.410560607910156
v 61.299861907958984 9.999999046325684 63.99995803833008
v 61.29985809326172 10.803291320800781 63.99995422363281
v 9.589422225952148 2.178762435913086 3.454833984375
v 9.073220098798629e-06 1.999997854232788 2.70013427734375
v 0.0 1.9999980926513672 29.299869537353516
v 10.722938537597656 2.74126935005188 30.998207092285156
v 18.942720413208008 2.7412688732147217 5.700370788574219
v 27.829551696777344 3.6230766773223877 9.381401062011719
v 20.396230697631836 4.746091842651367 35.927001953125
v 36.031124114990234 4.746090412139893 14.407341003417969
v 43.34552001953125 5.999997138977051 20.65441131591797
v 28.07299041748047 7.253901481628418 43.60376739501953
v 49.5926399230957 7.25390100479126 27.968841552734375
v 54.61858367919922 8.376917839050293 36.17045593261719
v 33.00178909301758 9.258726119995117 53.27705001831055
v 58.29963302612305 9.258724212646484 45.05726623535156
v 60.545162200927734 9.821231842041016 54.41055679321289
v 34.70014190673828 10.0 63.999969482421875
v 61.299861907958984 9.999999046325684 63.99995803833008
v 0.0 1.9999980926513672 29.299869537353516
v 0.0 2.8032922744750977 29.29985809326172
v 10.722929000854492 3.5445635318756104 30.998214721679688
v 10.722938537597656 2.74126935005188 30.998207092285156
v 20.396230697631836 5.549385070800781 35.927005767822266
v 20.396230697631836 4.746091842651367 35.927001953125
v 28.07299041748047 8.057195663452148 43.603755950927734
v 28.07299041748047 7.253901481628418 43.60376739501953
v 33.00179672241211 10.062019348144531 53.27704620361328
v 33.00178909301758 9.258726119995117 53.27705001831055
v 34.70014572143555 10.803293228149414 63.999969482421875
v 34.70014190673828 10.0 63.999969482421875
vn -0.07827788649706457 0.0 0.9960861056751468
vn -0.07827788649706457 0.0 0.9960861056751468
vn -0.15264187866927592 0.0 0.9863013698630136
vn -0.15655577299412915 0.0 0.9863013698630136
vn -0.30528375733855184 0.0 0.9510763209393346
vn -0.3111545988258317 0.0 0.949119373776908
vn -0.4481409001956947 0.0 0.8923679060665362
vn -0.45792563600782776 0.0 0.8884540117416829
vn -0.5812133072407045 0.0 0.812133072407045
vn -0.5909980430528375 0.0 0.8043052837573386
vn -0.700587084148728 0.0 0.7103718199608611
vn -0.7103718199608611 0.0 0.700587084148728
vn -0.8043052837573386 0.0 0.5909980430528375
vn -0.812133072407045 0.0 0.5812133072407045
vn -0.8884540117416829 0.0 0.45792563600782776
vn -0.8923679060665362 0.0 0.4481409001956947
vn -0.949119373776908 0.0 0.3111545988258317
vn -0.9510763209393346 0.0 0.30528375733855184
vn -0.9863013698630136 0.0 0.15655577299412915
vn -0.9863013698630136 0.0 0.15264187866927592
vn -0.9960861056751468 0.0 0.07827788649706457
vn -0.9960861056751468 0.0 0.07827788649706457
vn -0.03913894324853229 0.9980430528375733 -0.009784735812133072
vn -0.01761252446183953 0.9980430528375733 0.0
vn -0.0547945205479452 0.9980430528375733 -0.0136986301369863
vn -0.10371819960861056 0.9921722113502935 -0.04500978473581213
vn -0.07045009784735812 0.9960861056751468 -0.021526418786692758
vn -0.09980430528375733 0.9921722113502935 -0.05283757338551859
vn -0.14677103718199608 0.9823874755381604 -0.11154598825831702
vn -0.09784735812133072 0.9921722113502935 -0.07045009784735812
vn -0.09980430528375733 0.9882583170254403 -0.09980430528375733
vn -0.11154598825831702 0.9823874755381604 -0.14677103718199608
vn -0.07045009784735812 0.9921722113502935 -0.09784735812133072
vn -0.05283757338551859 0.9921722113502935 -0.09980430528375733
vn -0.04500978473581213 0.9921722113502935 -0.10371819960861056
vn -0.021526418786692758 0.9960861056751468 -0.07045009784735812
vn -0.009784735812133072 0.9980430528375733 -0.03913894324853229
vn -0.0136986301369863 0.9980430528375733 -0.0547945205479452
vn 0.0 0.9980430528375733 -0.01761252446183953
vn 0.15459882583170254 0.0 -0.9863013698630136
vn 0.15459882583170254 0.0 -0.9863013698630136
vn 0.31898238747553814 0.0 -0.9471624266144814
vn 0.29549902152641877 0.0 -0.9549902152641878
vn 0.6027397260273972 0.0 -0.7964774951076321
vn 0.5694716242661448 0.0 -0.8199608610567515
vn 0.8199608610567515 0.0 -0.5694716242661448
vn 0.7964774951076321 0.0 -0.6027397260273972
vn 0.9549902152641878 0.0 -0.29549902152641877
vn 0.9471624266144814 0.0 -0.31898238747553814
vn 0.9863013698630136 0.0 -0.15459882583170254
vn 0.9863013698630136 0.0 -0.15459882583170254
vt 0.24999988079071045 0.9406212568283081
vt 0.24999988079071045 0.9156198501586914
vt 0.4999997615814209 0.9156198501586914
vt 0.4999997615814209 0.9406212568283081
vt 0.7499996423721313 0.9156198501586914
vt 0.7499997019767761 0.9406212568283081
vt 0.9999999403953552 0.9156198501586914
vt 0.9999999403953552 0.9406212568283081
vt 1.2499998807907104 0.9156198501586914
vt 1.249999761581421 0.9406212568283081
vt 1.4999998807907104 0.9156198501586914
vt 1.499999761581421 0.9406212568283081
vt 1.75 0.9156198501586914
vt 1.75 0.9406212568283081
vt 1.9999998807907104 0.9156198501586914
vt 1.9999998807907104 0.9406212568283081
vt 2.249999761581421 0.9156198501586914
vt 2.249999761581421 0.9406212568283081
vt 2.5 0.9156198501586914
vt 2.5 0.9406212568283081
vt 2.75 0.9156198501586914
vt 2.75 0.9406212568283081
vt 0.4999997615814209 0.9156198501586914
vt 0.24999988079071045 0.9156198501586914
vt 0.24999988079071045 0.08438020199537277
vt 0.7499999403953552 0.08438020199537277
vt 0.7499996423721313 0.9156198501586914
vt 0.9999999403953552 0.9156198501586914
vt 1.2499998807907104 0.08438019454479218
vt 1.2499998807907104 0.9156198501586914
vt 1.4999998807907104 0.9156198501586914
vt 1.7500001192092896 0.08438018709421158
vt 1.75 0.9156198501586914
vt 1.9999998807907104 0.9156198501586914
vt 2.25 0.08438017219305038
vt 2.249999761581421 0.9156198501586914
vt 2.5 0.9156198501586914
vt 2.75 0.08438017219305038
vt 2.75 0.9156198501586914
vt 0.24999988079071045 0.08438020199537277
vt 0.24999988079071045 0.05937879905104637
vt 0.7499998807907104 0.05937879532575607
vt 0.7499999403953552 0.08438020199537277
vt 1.2499998807907104 0.05937878414988518
vt 1.2499998807907104 0.08438019454479218
vt 1.75 0.05937877297401428
vt 1.7500001192092896 0.08438018709421158
vt 2.25 0.059378765523433685
vt 2.25 0.08438017219305038
vt 2.75 0.05937875434756279
vt 2.75 0.08438017219305038
usemtl RoadTech
f 1/1/1 2/2/2 3/3/3
f 3/3/3 4/4/4 1/1/1
f 4/4/4 3/3/3 5/5/5
f 5/5/5 6/6/6 4/4/4
f 6/6/6 5/5/5 7/7/7
f 7/7/7 8/8/8 6/6/6
f 8/8/8 7/7/7 9/9/9
f 9/9/9 10/10/10 8/8/8
f 10/10/10 9/9/9 11/11/11
f 11/11/11 12/12/12 10/10/10
f 12/12/12 11/11/11 13/13/13
f 13/13/13 14/14/14 12/12/12
f 14/14/14 13/13/13 15/15/15
f 15/15/15 16/16/16 14/14/14
f 16/16/16 15/15/15 17/17/17
f 17/17/17 18/18/18 16/16/16
f 18/18/18 17/17/17 19/19/19
f 19/19/19 20/20/20 18/18/18
f 20/20/20 19/19/19 21/21/21
f 21/21/21 22/22/22 20/20/20
f 23/23/23 24/24/24 25/25/25
f 23/23/23 25/25/25 26/26/26
f 23/23/23 26/26/26 27/27/27
f 28/28/28 27/27/27 26/26/26
f 28/28/28 26/26/26 29/29/29
f 28/28/28 29/29/29 30/30/30
f 31/31/31 30/30/30 29/29/29
f 31/31/31 29/29/29 32/32/32
f 31/31/31 32/32/32 33/33/33
f 34/34/34 33/33/33 32/32/32
f 34/34/34 32/32/32 35/35/35
f 34/34/34 35/35/35 36/36/36
f 37/37/37 36/36/36 35/35/35
f 37/37/37 35/35/35 38/38/38
f 37/37/37 38/38/38 39/39/39
f 40/40/40 41/41/41 42/42/42
f 42/42/42 43/43/43 40/40/40
f 43/43/43 42/42/42 44/44/44
f 44/44/44 45/45/45 43/43/43
f 45/45/45 44/44/44 46/46/46
f 46/46/46 47/47/47 45/45/45
f 47/47/47 46/46/46 48/48/48
f 48/48/48 49/49/49 47/47/47
f 49/49/49 48/48/48 50/50/50
f 50/50/50 51/51/51 49/49/49
