o mesh4_lod4.obj
v 29.299863815307617 18.803293228149414 31.999963760375977
v 29.299861907958984 18.22991943359375 27.999969482421875
v 29.299869537353516 17.999998092651367 31.999963760375977
v 29.299869537353516 15.708868026733398 23.999996185302734
v 29.299863815307617 16.512161254882812 23.9999942779541
v 29.299869537353516 13.90733814239502 19.99999237060547
v 29.29986572265625 9.99998950958252 15.99997329711914
v 29.299861907958984 10.803284645080566 15.99997329711914
v 29.299867630004883 7.6992363929748535 11.999980926513672
v 29.299863815307617 4.291132926940918 8.0
v 29.29986000061035 5.094427108764648 8.0
v 29.29986000061035 3.3766653537750244 4.000001907348633
v 29.299863815307617 1.9999979734420776 5.7220458984375e-06
v 29.29986000061035 2.8032925128936768 3.814697265625e-06
v 29.299863815307617 1.9999979734420776 5.7220458984375e-06
v 2.7001304626464844 1.9999980926513672 0.0
v 2.7001333236694336 4.291131973266602 8.0
v 29.299863815307617 4.291132926940918 8.0
v 2.7001330852508545 9.999995231628418 15.999998092651367
v 29.29986572265625 9.99998950958252 15.99997329711914
v 2.7001569271087646 15.708864212036133 23.999984741210938
v 29.299869537353516 15.708868026733398 23.999996185302734
v 29.299869537353516 17.999998092651367 31.999963760375977
v 2.7001492977142334 17.999998092651367 31.999963760375977
v 2.7001333236694336 4.291131973266602 8.0
v 2.700140953063965 3.376664638519287 3.999998092651367
v 2.700137138366699 5.09442663192749 8.0
v 2.7001373767852783 7.6992387771606445 11.999998092651367
v 2.7001304626464844 1.9999980926513672 0.0
v 2.70013427734375 2.8032922744750977 0.0
v 2.7001330852508545 9.999995231628418 15.999998092651367
v 2.70013689994812 10.803288459777832 15.999998092651367
v 2.7001399993896484 13.907332420349121 19.999982833862305
v 2.7001569271087646 15.708864212036133 23.999984741210938
v 2.700160503387451 16.51215934753418 23.999980926513672
v 2.7001569271087646 18.22991943359375 27.999963760375977
v 2.7001492977142334 17.999998092651367 31.999963760375977
v 2.700152635574341 18.80329132080078 31.999961853027344
vn -1.0 0.0 0.0
vn -1.0 0.0 0.0
vn -1.0 0.0 0.0
vn -1.0 0.0 0.0
vn -1.0 0.0 0.0
vn -1.0 0.0 0.0
vn -1.0 0.0 0.0
vn -1.0 0.0 0.0
vn -1.0 0.0 0.0
vn -1.0 0.0 0.0
vn -1.0 0.0 0.0
vn -1.0 0.0 0.0
vn -1.0 0.0 0.0
vn -1.0 0.0 0.0
vn 0.0 0.9608610567514677 -0.273972602739726
vn 0.0 0.9608610567514677 -0.273972602739726
vn 0.0 0.9001956947162426 -0.4324853228962818
vn 0.0 0.9001956947162426 -0.4324853228962818
vn 0.0 0.812133072407045 -0.5792563600782779
vn 0.0 0.812133072407045 -0.5792563600782779
vn 0.0 0.9001956947162426 -0.4324853228962818
vn 0.0 0.9001956947162426 -0.4324853228962818
vn 0.0 0.9608610567514677 -0.273972602739726
vn 0.0 0.9608610567514677 -0.273972602739726
vn 1.0 0.0 0.0
vn 1.0 0.0 0.0
vn 1.0 0.0 0.0
vn 1.0 0.0 0.0
vn 1.0 0.0 0.0
vn 1.0 0.0 0.0
vn 1.0 0.0 0.0
vn 1.0 0.0 0.0
vn 1.0 0.0 0.0
vn 1.0 0.0 0.0
vn 1.0 0.0 0.0
vn 1.0 0.0 0.0
vn 1.0 0.0 0.0
vn 1.0 0.0 0.0
vt 0.9999999403953552 0.9406212568283081
vt 0.875 0.9406212568283081
vt 0.9999999403953552 0.9156198501586914
vt 0.7499996423721313 0.9156198501586914
vt 0.7499996423721313 0.9406212568283081
vt 0.6249997019767761 0.9406212568283081
vt 0.4999997913837433 0.9156199097633362
vt 0.4999997615814209 0.9406212568283081
vt 0.37499985098838806 0.9406212568283081
vt 0.24999989569187164 0.9156199097633362
vt 0.24999988079071045 0.9406212568283081
vt 0.12499994039535522 0.9406212568283081
vt 2.142156452222821e-09 0.9156198501586914
vt 2.142156452222821e-09 0.9406212568283081
vt 2.142156452222821e-09 0.9156198501586914
vt 0.0 0.08438020944595337
vt 0.24999989569187164 0.08438020199537277
vt 0.24999989569187164 0.9156199097633362
vt 0.4999999403953552 0.08438020199537277
vt 0.4999997913837433 0.9156199097633362
vt 0.7499999403953552 0.08438020199537277
vt 0.7499996423721313 0.9156198501586914
vt 0.9999999403953552 0.9156198501586914
vt 0.9999999403953552 0.08438019454479218
vt 0.24999989569187164 0.08438020199537277
vt 0.12499989569187164 0.05937879905104637
vt 0.24999988079071045 0.05937879905104637
vt 0.3749999403953552 0.05937879532575607
vt 0.0 0.08438020944595337
vt 0.0 0.05937880277633667
vt 0.4999999403953552 0.08438020199537277
vt 0.49999991059303284 0.05937879532575607
vt 0.6249998807907104 0.05937879532575607
vt 0.7499999403953552 0.08438020199537277
vt 0.7499998807907104 0.059378791600465775
vt 0.8749998807907104 0.059378787875175476
vt 0.9999999403953552 0.08438019454479218
vt 0.9999999403953552 0.05937878414988518
usemtl RoadTech
f 1/1/1 2/2/2 3/3/3
f 2/2/2 4/4/4 3/3/3
f 2/2/2 5/5/5 4/4/4
f 5/5/5 6/6/6 4/4/4
f 6/6/6 7/7/7 4/4/4
f 6/6/6 8/8/8 7/7/7
f 8/8/8 9/9/9 7/7/7
f 9/9/9 10/10/10 7/7/7
f 9/9/9 11/11/11 10/10/10
f 11/11/11 12/12/12 10/10/10
f 12/12/12 13/13/13 10/10/10
f 12/12/12 14/14/14 13/13/13
f 15/15/15 16/16/16 17/17/17
f 17/17/17 18/18/18 15/15/15
f 18/18/18 17/17/17 19/19/19
f 19/19/19 20/20/20 18/18/18
f 20/20/20 19/19/19 21/21/21
f 21/21/21 22/22/22 20/20/20
f 23/23/23 22/22/22 21/21/21
f 21/21/21 24/24/24 23/23/23
f 25/25/25 26/26/26 27/27/27
f 25/25/25 27/27/27 28/28/28
f 25/25/25 29/29/29 26/26/26
f 29/29/29 30/30/30 26/26/26
f 31/31/31 25/25/25 28/28/28
f 31/31/31 28/28/28 32/32/32
f 31/31/31 32/32/32 33/33/33
f 34/34/34 31/31/31 33/33/33
f 34/34/34 33/33/33 35/35/35
f 34/34/34 35/35/35 36/36/36
f 37/37/37 34/34/34 36/36/36
f 37/37/37 36/36/36 38/38/38
