o mesh2_lod2.obj
v 29.29986572265625 2.8032922744750977 0.0
v 29.299869537353516 1.9999980926513672 0.0
v 29.299869537353516 1.9999980926513672 32.0
v 29.29986572265625 2.8032922744750977 32.0
v 29.299869537353516 1.9999980926513672 0.0
v 16.0 2.000002861022949 0.0
v 16.0 2.000002861022949 32.0
v 29.299869537353516 1.9999980926513672 32.0
v 2.7001304626464844 1.9999980926513672 32.0
v 2.7001304626464844 1.9999980926513672 0.0
v 2.7001304626464844 1.9999980926513672 0.0
v 2.70013427734375 2.8032922744750977 0.0
v 2.70013427734375 2.8032922744750977 32.0
v 2.7001304626464844 1.9999980926513672 32.0
vn -1.0 0.0 0.0
vn -1.0 0.0 0.0
vn -1.0 0.0 0.0
vn -1.0 0.0 0.0
vn 0.0 1.0 0.0
vn 0.0 1.0 0.0
vn 0.0 1.0 0.0
vn 0.0 1.0 0.0
vn 0.0 1.0 0.0
vn 0.0 1.0 0.0
vn 1.0 0.0 0.0
vn 1.0 0.0 0.0
vn 1.0 0.0 0.0
vn 1.0 0.0 0.0
f 1/1/1 2/2/2 3/3/3
f 3/3/3 4/4/4 1/1/1
f 5/5/5 6/6/6 7/7/7
f 7/7/7 8/8/8 5/5/5
f 9/9/9 7/7/7 6/6/6
f 6/6/6 10/10/10 9/9/9
f 11/11/11 12/12/12 13/13/13
f 13/13/13 14/14/14 11/11/11
