o mesh6_lod4.obj
v 0.0 2.8032922744750977 2.70013427734375
v 9.073220098798629e-06 1.999997854232788 2.70013427734375
v 9.589421272277832 2.3575265407562256 3.454833984375
v 9.589428901672363 3.160820722579956 3.4548492431640625
v 18.942718505859375 3.4825403690338135 5.7003631591796875
v 18.942705154418945 4.285833835601807 5.7003631591796875
v 27.829544067382812 5.246154308319092 9.381401062011719
v 27.82954216003418 6.0494489669799805 9.38140869140625
v 36.031097412109375 7.492178440093994 14.407318115234375
v 36.03109359741211 8.295472145080566 14.407310485839844
v 43.345489501953125 9.999987602233887 20.654376983642578
v 43.345481872558594 10.803281784057617 20.654380798339844
v 49.59263229370117 12.507800102233887 27.968822479248047
v 49.59263229370117 13.311094284057617 27.968822479248047
v 54.61857986450195 14.753839492797852 36.17042922973633
v 54.61857986450195 15.557134628295898 36.1704216003418
v 58.29962158203125 16.517454147338867 45.057228088378906
v 58.29962158203125 17.32075309753418 45.057228088378906
v 60.545162200927734 17.642465591430664 54.41049575805664
v 60.54515838623047 18.445762634277344 54.41049575805664
v 61.299869537353516 17.999998092651367 63.99989700317383
v 61.299861907958984 18.803293228149414 63.99989318847656
v 9.589421272277832 2.3575265407562256 3.454833984375
v 9.073220098798629e-06 1.999997854232788 2.70013427734375
v 0.0 1.9999980926513672 29.299869537353516
v 10.72293758392334 3.4825403690338135 30.998214721679688
v 18.942718505859375 3.4825403690338135 5.7003631591796875
v 27.829544067382812 5.246154308319092 9.381401062011719
v 20.3962345123291 7.49218225479126 35.92699432373047
v 36.031097412109375 7.492178440093994 14.407318115234375
v 43.345489501953125 9.999987602233887 20.654376983642578
v 28.072986602783203 12.507801055908203 43.60374450683594
v 49.59263229370117 12.507800102233887 27.968822479248047
v 54.61857986450195 14.753839492797852 36.17042922973633
v 33.00179672241211 16.5174560546875 53.277015686035156
v 58.29962158203125 16.517454147338867 45.057228088378906
v 60.545162200927734 17.642465591430664 54.41049575805664
v 34.70014953613281 17.999998092651367 63.999935150146484
v 61.299869537353516 17.999998092651367 63.99989700317383
v 0.0 1.9999980926513672 29.299869537353516
v 0.0 2.8032922744750977 29.29985809326172
v 10.722936630249023 4.285835266113281 30.998207092285156
v 10.72293758392334 3.4825403690338135 30.998214721679688
v 20.3962345123291 8.295477867126465 35.927005767822266
v 20.3962345123291 7.49218225479126 35.92699432373047
v 28.072988510131836 13.311094284057617 43.60374069213867
v 28.072986602783203 12.507801055908203 43.60374450683594
v 33.00179672241211 17.320749282836914 53.27701187133789
v 33.00179672241211 16.5174560546875 53.277015686035156
v 34.700157165527344 18.803293228149414 63.999935150146484
v 34.70014953613281 17.999998092651367 63.999935150146484
vn -0.07827788649706457 0.0 0.9960861056751468
vn -0.07827788649706457 0.0 0.9960861056751468
vn -0.1506849315068493 0.0 0.9882583170254403
vn -0.15851272015655576 0.0 0.9863013698630136
vn -0.3013698630136986 0.0 0.9530332681017613
vn -0.3150684931506849 0.0 0.9471624266144814
vn -0.44422700587084146 0.0 0.8943248532289628
vn -0.461839530332681 0.0 0.8845401174168297
vn -0.5772994129158513 0.0 0.8160469667318982
vn -0.5968688845401174 0.0 0.8003913894324853
vn -0.6966731898238747 0.0 0.7142857142857143
vn -0.7142857142857143 0.0 0.6966731898238747
vn -0.8003913894324853 0.0 0.5968688845401174
vn -0.8160469667318982 0.0 0.5772994129158513
vn -0.8845401174168297 0.0 0.461839530332681
vn -0.8943248532289628 0.0 0.44422700587084146
vn -0.9471624266144814 0.0 0.3150684931506849
vn -0.9530332681017613 0.0 0.3013698630136986
vn -0.9863013698630136 0.0 0.15851272015655576
vn -0.9882583170254403 0.0 0.1506849315068493
vn -0.9960861056751468 0.0 0.07827788649706457
vn -0.9960861056751468 0.0 0.07827788649706457
vn -0.08023483365949119 0.9960861056751468 -0.019569471624266144
vn -0.03718199608610567 0.9980430528375733 0.0
vn -0.11154598825831702 0.9921722113502935 -0.0273972602739726
vn -0.20156555772994128 0.974559686888454 -0.08806262230919765
vn -0.14090019569471623 0.9882583170254403 -0.04500978473581213
vn -0.19569471624266144 0.974559686888454 -0.10371819960861056
vn -0.27788649706457924 0.9354207436399217 -0.21135029354207435
vn -0.19373776908023482 0.9686888454011742 -0.14090019569471623
vn -0.19373776908023482 0.9608610567514677 -0.19373776908023482
vn -0.21135029354207435 0.9354207436399217 -0.27788649706457924
vn -0.14090019569471623 0.9686888454011742 -0.19373776908023482
vn -0.10371819960861056 0.974559686888454 -0.19569471624266144
vn -0.08806262230919765 0.974559686888454 -0.20156555772994128
vn -0.04500978473581213 0.9882583170254403 -0.14090019569471623
vn -0.019569471624266144 0.9960861056751468 -0.08023483365949119
vn -0.0273972602739726 0.9921722113502935 -0.11154598825831702
vn 0.0 0.9980430528375733 -0.03718199608610567
vn 0.15459882583170254 0.0 -0.9863013698630136
vn 0.15459882583170254 0.0 -0.9863013698630136
vn 0.33072407045009783 0.0 -0.9432485322896281
vn 0.28180039138943247 0.0 -0.958904109589041
vn 0.6183953033268101 0.0 -0.7847358121330724
vn 0.5538160469667319 0.0 -0.8317025440313112
vn 0.8317025440313112 0.0 -0.5538160469667319
vn 0.7847358121330724 0.0 -0.6183953033268101
vn 0.958904109589041 0.0 -0.28180039138943247
vn 0.9432485322896281 0.0 -0.33072407045009783
vn 0.9863013698630136 0.0 -0.15459882583170254
vn 0.9863013698630136 0.0 -0.15459882583170254
vt 0.24999988079071045 0.9406212568283081
vt 0.24999988079071045 0.9156198501586914
vt 0.4999997615814209 0.9156198501586914
vt 0.4999997615814209 0.9406212568283081
vt 0.7499996423721313 0.9156198501586914
vt 0.7499997019767761 0.9406212568283081
vt 0.9999999403953552 0.9156198501586914
vt 0.9999999403953552 0.9406212568283081
vt 1.2499998807907104 0.9156198501586914
vt 1.249999761581421 0.9406212568283081
vt 1.4999998807907104 0.9156198501586914
vt 1.499999761581421 0.9406212568283081
vt 1.75 0.9156198501586914
vt 1.75 0.9406212568283081
vt 1.9999998807907104 0.9156198501586914
vt 1.9999998807907104 0.9406212568283081
vt 2.249999761581421 0.9156198501586914
vt 2.249999761581421 0.9406212568283081
vt 2.5 0.9156198501586914
vt 2.5 0.9406212568283081
vt 2.75 0.9156198501586914
vt 2.75 0.9406212568283081
vt 0.4999997615814209 0.9156198501586914
vt 0.24999988079071045 0.9156198501586914
vt 0.24999988079071045 0.08438020199537277
vt 0.7499999403953552 0.08438020199537277
vt 0.7499996423721313 0.9156198501586914
vt 0.9999999403953552 0.9156198501586914
vt 1.2499998807907104 0.08438019454479218
vt 1.2499998807907104 0.9156198501586914
vt 1.4999998807907104 0.9156198501586914
vt 1.7500001192092896 0.08438018709421158
vt 1.75 0.9156198501586914
vt 1.9999998807907104 0.9156198501586914
vt 2.25 0.08438017219305038
vt 2.249999761581421 0.9156198501586914
vt 2.5 0.9156198501586914
vt 2.75 0.08438017219305038
vt 2.75 0.9156198501586914
vt 0.24999988079071045 0.08438020199537277
vt 0.24999988079071045 0.05937879905104637
vt 0.7499998807907104 0.05937879532575607
vt 0.7499999403953552 0.08438020199537277
vt 1.2499998807907104 0.05937878414988518
vt 1.2499998807907104 0.08438019454479218
vt 1.75 0.05937877297401428
vt 1.7500001192092896 0.08438018709421158
vt 2.25 0.059378765523433685
vt 2.25 0.08438017219305038
vt 2.75 0.05937875434756279
vt 2.75 0.08438017219305038
usemtl RoadTech
f 1/1/1 2/2/2 3/3/3
f 3/3/3 4/4/4 1/1/1
f 4/4/4 3/3/3 5/5/5
f 5/5/5 6/6/6 4/4/4
f 6/6/6 5/5/5 7/7/7
f 7/7/7 8/8/8 6/6/6
f 8/8/8 7/7/7 9/9/9
f 9/9/9 10/10/10 8/8/8
f 10/10/10 9/9/9 11/11/11
f 11/11/11 12/12/12 10/10/10
f 12/12/12 11/11/11 13/13/13
f 13/13/13 14/14/14 12/12/12
f 14/14/14 13/13/13 15/15/15
f 15/15/15 16/16/16 14/14/14
f 16/16/16 15/15/15 17/17/17
f 17/17/17 18/18/18 16/16/16
f 18/18/18 17/17/17 19/19/19
f 19/19/19 20/20/20 18/18/18
f 20/20/20 19/19/19 21/21/21
f 21/21/21 22/22/22 20/20/20
f 23/23/23 24/24/24 25/25/25
f 23/23/23 25/25/25 26/26/26
f 23/23/23 26/26/26 27/27/27
f 28/28/28 27/27/27 26/26/26
f 28/28/28 26/26/26 29/29/29
f 28/28/28 29/29/29 30/30/30
f 31/31/31 30/30/30 29/29/29
f 31/31/31 29/29/29 32/32/32
f 31/31/31 32/32/32 33/33/33
f 34/34/34 33/33/33 32/32/32
f 34/34/34 32/32/32 35/35/35
f 34/34/34 35/35/35 36/36/36
f 37/37/37 36/36/36 35/35/35
f 37/37/37 35/35/35 38/38/38
f 37/37/37 38/38/38 39/39/39
f 40/40/40 41/41/41 42/42/42
f 42/42/42 43/43/43 40/40/40
f 43/43/43 42/42/42 44/44/44
f 44/44/44 45/45/45 43/43/43
f 45/45/45 44/44/44 46/46/46
f 46/46/46 47/47/47 45/45/45
f 47/47/47 46/46/46 48/48/48
f 48/48/48 49/49/49 47/47/47
f 49/49/49 48/48/48 50/50/50
f 50/50/50 51/51/51 49/49/49
