o mesh6_lod4.obj
v 66.70013427734375 2.8032922744750977 96.0
v 66.70013427734375 1.9999983310699463 96.0
v 65.41849517822266 1.9999983310699463 82.98637390136719
v 65.41850280761719 2.8032922744750977 82.98637390136719
v 61.622886657714844 1.9999983310699463 70.47388458251953
v 61.62288284301758 2.8032922744750977 70.47388458251953
v 55.45913314819336 1.9999983310699463 58.94232177734375
v 55.459129333496094 2.8032922744750977 58.94231414794922
v 47.16410827636719 1.9999983310699463 48.834815979003906
v 47.16411209106445 2.8032922744750977 48.83482360839844
v 37.05659484863281 1.9999983310699463 40.539794921875
v 37.05659484863281 2.8032922744750977 40.53977966308594
v 25.525020599365234 1.9999983310699463 34.37603759765625
v 25.525022506713867 2.8032922744750977 34.37602996826172
v 13.012529373168945 1.9999983310699463 30.580413818359375
v 13.012528419494629 2.8032922744750977 30.580421447753906
v -3.218806341465097e-07 1.9999983310699463 29.29986572265625
v -3.218810888938606e-07 2.8032922744750977 29.29986572265625
v 91.50712585449219 2.8032925128936768 77.7970199584961
v 91.50713348388672 1.9999982118606567 77.79701232910156
v 92.85060119628906 1.9999982118606567 86.85394287109375
v 89.28239440917969 2.8032925128936768 68.9154052734375
v 92.85060119628906 2.8032925128936768 86.85393524169922
v 89.28240203857422 1.9999982118606567 68.91539764404297
v 93.29986572265625 1.9999982118606567 96.0
v 93.29987335205078 2.8032925128936768 96.0
v 86.19783020019531 2.8032925128936768 60.29460906982422
v 86.19783782958984 1.9999982118606567 60.29462432861328
v 82.28313446044922 2.8032925128936768 52.017677307128906
v 82.28314208984375 1.9999982118606567 52.017677307128906
v 77.57601165771484 2.8032925128936768 44.164306640625
v 77.57600402832031 1.9999982118606567 44.16429138183594
v 72.12175750732422 2.8032925128936768 36.81011962890625
v 72.12176513671875 1.9999982118606567 36.81011962890625
v 65.97296142578125 2.8032925128936768 30.025962829589844
v 65.97296142578125 1.9999982118606567 30.02594757080078
v 59.18880081176758 2.8032925128936768 23.87713623046875
v 59.188804626464844 1.9999982118606567 23.87712860107422
v 51.834617614746094 2.8032925128936768 18.42290496826172
v 51.83462142944336 1.9999982118606567 18.42290496826172
v 43.981239318847656 2.8032925128936768 13.715766906738281
v 43.981239318847656 1.9999982118606567 13.715766906738281
v 35.704280853271484 2.8032925128936768 9.801078796386719
v 35.70429229736328 1.9999982118606567 9.801078796386719
v 27.083494186401367 2.8032925128936768 6.716514587402344
v 27.083498001098633 1.9999982118606567 6.7165069580078125
v 18.201871871948242 2.8032925128936768 4.4917755126953125
v 18.20186996459961 1.9999982118606567 4.491783142089844
v 9.144949913024902 2.8032925128936768 3.1483230590820312
v 9.144948959350586 1.9999982118606567 3.1483154296875
v -3.4928157219837885e-06 2.8032925128936768 2.7001495361328125
v -3.492816404104815e-06 1.9999982118606567 2.70013427734375
v 65.41849517822266 1.9999983310699463 82.98637390136719
v 89.28240203857422 1.9999982118606567 68.91539764404297
v 61.622886657714844 1.9999983310699463 70.47388458251953
v 91.50713348388672 1.9999982118606567 77.79701232910156
v 86.19783782958984 1.9999982118606567 60.29462432861328
v 92.85060119628906 1.9999982118606567 86.85394287109375
v 82.28314208984375 1.9999982118606567 52.017677307128906
v 66.70013427734375 1.9999983310699463 96.0
v 93.29986572265625 1.9999982118606567 96.0
v 55.45913314819336 1.9999983310699463 58.94232177734375
v 77.57600402832031 1.9999982118606567 44.16429138183594
v 72.12176513671875 1.9999982118606567 36.81011962890625
v 47.16410827636719 1.9999983310699463 48.834815979003906
v 65.97296142578125 1.9999982118606567 30.02594757080078
v 59.188804626464844 1.9999982118606567 23.87712860107422
v 37.05659484863281 1.9999983310699463 40.539794921875
v 51.83462142944336 1.9999982118606567 18.42290496826172
v 43.981239318847656 1.9999982118606567 13.715766906738281
v 25.525020599365234 1.9999983310699463 34.37603759765625
v 35.70429229736328 1.9999982118606567 9.801078796386719
v 27.083498001098633 1.9999982118606567 6.7165069580078125
v 13.012529373168945 1.9999983310699463 30.580413818359375
v 18.20186996459961 1.9999982118606567 4.491783142089844
v 9.144948959350586 1.9999982118606567 3.1483154296875
v -3.218806341465097e-07 1.9999983310699463 29.29986572265625
v -3.492816404104815e-06 1.9999982118606567 2.70013427734375
vn 0.9941291585127201 0.0 -0.09784735812133072
vn 0.9941291585127201 0.0 -0.09784735812133072
vn 0.9804305283757339 0.0 -0.19373776908023482
vn 0.9804305283757339 0.0 -0.19373776908023482
vn 0.923679060665362 0.0 -0.3816046966731898
vn 0.923679060665362 0.0 -0.3816046966731898
vn 0.8297455968688845 0.0 -0.5538160469667319
vn 0.8297455968688845 0.0 -0.5538160469667319
vn 0.7064579256360078 0.0 -0.7064579256360078
vn 0.7064579256360078 0.0 -0.7064579256360078
vn 0.5538160469667319 0.0 -0.8297455968688845
vn 0.5538160469667319 0.0 -0.8297455968688845
vn 0.3816046966731898 0.0 -0.923679060665362
vn 0.3816046966731898 0.0 -0.923679060665362
vn 0.19373776908023482 0.0 -0.9804305283757339
vn 0.19373776908023482 0.0 -0.9804305283757339
vn 0.09784735812133072 0.0 -0.9941291585127201
vn 0.09784735812133072 0.0 -0.9941291585127201
vn -0.9804305283757339 0.0 0.19373776908023482
vn -0.9804305283757339 0.0 0.19373776908023482
vn -0.9941291585127201 0.0 0.09784735812133072
vn -0.9549902152641878 0.0 0.2896281800391389
vn -0.9941291585127201 0.0 0.09784735812133072
vn -0.9549902152641878 0.0 0.2896281800391389
vn -0.9980430528375733 0.0 0.04892367906066536
vn -0.9980430528375733 0.0 0.04892367906066536
vn -0.923679060665362 0.0 0.3816046966731898
vn -0.923679060665362 0.0 0.3816046966731898
vn -0.8806262230919765 0.0 0.46966731898238745
vn -0.8806262230919765 0.0 0.46966731898238745
vn -0.8297455968688845 0.0 0.5538160469667319
vn -0.8297455968688845 0.0 0.5538160469667319
vn -0.7729941291585127 0.0 0.6340508806262231
vn -0.7729941291585127 0.0 0.6340508806262231
vn -0.7064579256360078 0.0 0.7064579256360078
vn -0.7064579256360078 0.0 0.7064579256360078
vn -0.6340508806262231 0.0 0.7729941291585127
vn -0.6340508806262231 0.0 0.7729941291585127
vn -0.5538160469667319 0.0 0.8297455968688845
vn -0.5538160469667319 0.0 0.8297455968688845
vn -0.46966731898238745 0.0 0.8806262230919765
vn -0.46966731898238745 0.0 0.8806262230919765
vn -0.3816046966731898 0.0 0.923679060665362
vn -0.3816046966731898 0.0 0.923679060665362
vn -0.2896281800391389 0.0 0.9549902152641878
vn -0.2896281800391389 0.0 0.9549902152641878
vn -0.19373776908023482 0.0 0.9804305283757339
vn -0.19373776908023482 0.0 0.9804305283757339
vn -0.09784735812133072 0.0 0.9941291585127201
vn -0.09784735812133072 0.0 0.9941291585127201
vn -0.04892367906066536 0.0 0.9980430528375733
vn -0.04892367906066536 0.0 0.9980430528375733
vn 0.0 1.0 0.0
vn 0.0 1.0 0.0
vn 0.0 1.0 0.0
vn 0.0 1.0 0.0
vn 0.0 1.0 0.0
vn 0.0 1.0 0.0
vn 0.0 1.0 0.0
vn 0.0 1.0 0.0
vn 0.0 1.0 0.0
vn 0.0 1.0 0.0
vn 0.0 1.0 0.0
vn 0.0 1.0 0.0
vn 0.0 1.0 0.0
vn 0.0 1.0 0.0
vn 0.0 1.0 0.0
vn 0.0 1.0 0.0
vn 0.0 1.0 0.0
vn 0.0 1.0 0.0
vn 0.0 1.0 0.0
vn 0.0 1.0 0.0
vn 0.0 1.0 0.0
vn 0.0 1.0 0.0
vn 0.0 1.0 0.0
vn 0.0 1.0 0.0
vn 0.0 1.0 0.0
vn 0.0 1.0 0.0
vt 4.0 0.0593787357211113
vt 4.0 0.084380142390728
vt 3.500000238418579 0.08438015729188919
vt 3.5 0.059378743171691895
vt 3.000000238418579 0.08438016474246979
vt 3.0 0.05937875434756279
vt 2.5 0.08438016474246979
vt 2.5 0.059378765523433685
vt 2.0 0.08438017219305038
vt 1.9999998807907104 0.059378769248723984
vt 1.4999998807907104 0.08438019454479218
vt 1.4999998807907104 0.05937878042459488
vt 1.0 0.08438020199537277
vt 0.9999999403953552 0.05937878414988518
vt 0.4999999403953552 0.08438020199537277
vt 0.4999999403953552 0.05937879532575607
vt 0.0 0.08438020944595337
vt 0.0 0.05937880277633667
vt 3.5 0.9406212568283081
vt 3.5 0.9156198501586914
vt 3.75 0.9156198501586914
vt 3.25 0.9406212568283081
vt 3.75 0.9406212568283081
vt 3.25 0.9156198501586914
vt 3.999999761581421 0.9156198501586914
vt 3.999999761581421 0.9406212568283081
vt 2.999999761581421 0.9406212568283081
vt 2.999999761581421 0.9156198501586914
vt 2.75 0.9406212568283081
vt 2.75 0.9156198501586914
vt 2.5 0.9406212568283081
vt 2.5 0.9156198501586914
vt 2.249999761581421 0.9406212568283081
vt 2.25 0.9156198501586914
vt 1.9999998807907104 0.9406212568283081
vt 1.9999998807907104 0.9156198501586914
vt 1.75 0.9406212568283081
vt 1.75 0.9156198501586914
vt 1.499999761581421 0.9406212568283081
vt 1.4999998807907104 0.9156198501586914
vt 1.249999761581421 0.9406212568283081
vt 1.2499998807907104 0.9156198501586914
vt 0.9999999403953552 0.9406212568283081
vt 0.9999999403953552 0.9156198501586914
vt 0.7499997019767761 0.9406212568283081
vt 0.7499996423721313 0.9156198501586914
vt 0.4999997615814209 0.9406212568283081
vt 0.4999997615814209 0.9156198501586914
vt 0.24999988079071045 0.9406212568283081
vt 0.24999988079071045 0.9156198501586914
vt 2.142156452222821e-09 0.9406212568283081
vt 2.142156452222821e-09 0.9156198501586914
vt 3.500000238418579 0.08438015729188919
vt 3.25 0.9156198501586914
vt 3.000000238418579 0.08438016474246979
vt 3.5 0.9156198501586914
vt 2.999999761581421 0.9156198501586914
vt 3.75 0.9156198501586914
vt 2.75 0.9156198501586914
vt 4.0 0.084380142390728
vt 3.999999761581421 0.9156198501586914
vt 2.5 0.08438016474246979
vt 2.5 0.9156198501586914
vt 2.25 0.9156198501586914
vt 2.0 0.08438017219305038
vt 1.9999998807907104 0.9156198501586914
vt 1.75 0.9156198501586914
vt 1.4999998807907104 0.08438019454479218
vt 1.4999998807907104 0.9156198501586914
vt 1.2499998807907104 0.9156198501586914
vt 1.0 0.08438020199537277
vt 0.9999999403953552 0.9156198501586914
vt 0.7499996423721313 0.9156198501586914
vt 0.4999999403953552 0.08438020199537277
vt 0.4999997615814209 0.9156198501586914
vt 0.24999988079071045 0.9156198501586914
vt 0.0 0.08438020944595337
vt 2.142156452222821e-09 0.9156198501586914
usemtl RoadTech
f 1/1/1 2/2/2 3/3/3
f 3/3/3 4/4/4 1/1/1
f 4/4/4 3/3/3 5/5/5
f 5/5/5 6/6/6 4/4/4
f 6/6/6 5/5/5 7/7/7
f 7/7/7 8/8/8 6/6/6
f 8/8/8 7/7/7 9/9/9
f 9/9/9 10/10/10 8/8/8
f 10/10/10 9/9/9 11/11/11
f 11/11/11 12/12/12 10/10/10
f 12/12/12 11/11/11 13/13/13
f 13/13/13 14/14/14 12/12/12
f 14/14/14 13/13/13 15/15/15
f 15/15/15 16/16/16 14/14/14
f 16/16/16 15/15/15 17/17/17
f 17/17/17 18/18/18 16/16/16
f 19/19/19 20/20/20 21/21/21
f 20/20/20 19/19/19 22/22/22
f 21/21/21 23/23/23 19/19/19
f 22/22/22 24/24/24 20/20/20
f 23/23/23 21/21/21 25/25/25
f 25/25/25 26/26/26 23/23/23
f 24/24/24 22/22/22 27/27/27
f 27/27/27 28/28/28 24/24/24
f 28/28/28 27/27/27 29/29/29
f 29/29/29 30/30/30 28/28/28
f 30/30/30 29/29/29 31/31/31
f 31/31/31 32/32/32 30/30/30
f 32/32/32 31/31/31 33/33/33
f 33/33/33 34/34/34 32/32/32
f 34/34/34 33/33/33 35/35/35
f 35/35/35 36/36/36 34/34/34
f 36/36/36 35/35/35 37/37/37
f 37/37/37 38/38/38 36/36/36
f 38/38/38 37/37/37 39/39/39
f 39/39/39 40/40/40 38/38/38
f 40/40/40 39/39/39 41/41/41
f 41/41/41 42/42/42 40/40/40
f 42/42/42 41/41/41 43/43/43
f 43/43/43 44/44/44 42/42/42
f 44/44/44 43/43/43 45/45/45
f 45/45/45 46/46/46 44/44/44
f 46/46/46 45/45/45 47/47/47
f 47/47/47 48/48/48 46/46/46
f 48/48/48 47/47/47 49/49/49
f 49/49/49 50/50/50 48/48/48
f 50/50/50 49/49/49 51/51/51
f 51/51/51 52/52/52 50/50/50
f 53/53/53 54/54/54 55/55/55
f 53/53/53 56/56/56 54/54/54
f 54/54/54 57/57/57 55/55/55
f 53/53/53 58/58/58 56/56/56
f 57/57/57 59/59/59 55/55/55
f 58/58/58 53/53/53 60/60/60
f 60/60/60 61/61/61 58/58/58
f 59/59/59 62/62/62 55/55/55
f 59/59/59 63/63/63 62/62/62
f 63/63/63 64/64/64 62/62/62
f 64/64/64 65/65/65 62/62/62
f 64/64/64 66/66/66 65/65/65
f 66/66/66 67/67/67 65/65/65
f 67/67/67 68/68/68 65/65/65
f 67/67/67 69/69/69 68/68/68
f 69/69/69 70/70/70 68/68/68
f 70/70/70 71/71/71 68/68/68
f 70/70/70 72/72/72 71/71/71
f 72/72/72 73/73/73 71/71/71
f 73/73/73 74/74/74 71/71/71
f 73/73/73 75/75/75 74/74/74
f 75/75/75 76/76/76 74/74/74
f 77/77/77 74/74/74 76/76/76
f 76/76/76 78/78/78 77/77/77
