o mesh4_lod4.obj
v 1.4998760223388672 0.9649054408073425 31.999998092651367
v 1.4998760223388672 3.0000030994415283 31.999998092651367
v 1.4998779296875 3.0000016689300537 -3.814697265625e-06
v 1.4998779296875 0.9649038314819336 -3.814697265625e-06
v 1.4998779296875 8.344650268554688e-06 -3.814697265625e-06
v 1.4998760223388672 9.417533874511719e-06 31.999998092651367
v 1.4998760223388672 0.9649054408073425 31.999998092651367
v 1.4998779296875 0.9649038314819336 -3.814697265625e-06
v 1.4998779296875 3.0000016689300537 -3.814697265625e-06
v 1.4998760223388672 3.0000030994415283 31.999998092651367
v 3.120929718017578 2.965000629425049 31.999998092651367
v 3.120908737182617 2.964999198913574 -3.814697265625e-06
vn -1.0 0.0 0.0
vn -1.0 0.0 0.0
vn -1.0 0.0 0.0
vn -1.0 0.0 0.0
vn -1.0 0.0 0.0
vn -1.0 0.0 0.0
vn -1.0 0.0 0.0
vn -1.0 0.0 0.0
vn 0.021526418786692758 0.9980430528375733 0.0
vn 0.021526418786692758 0.9980430528375733 0.0
vn 0.021526418786692758 0.9980430528375733 0.0
vn 0.021526418786692758 0.9980430528375733 0.0
vt 12.0 0.4566988945007324
vt 12.0 0.7098286151885986
vt 10.999996185302734 0.7098283171653748
vt 10.999996185302734 0.45669856667518616
vt 10.999996185302734 0.24763454496860504
vt 12.0 0.2476348876953125
vt 12.0 0.4566988945007324
vt 10.999996185302734 0.45669856667518616
vt 10.999996185302734 0.7098283171653748
vt 12.0 0.7098286151885986
vt 12.0 0.9110803008079529
vt 11.0 0.9110791087150574
usemtl TrackBorders
f 1/1/1 2/2/2 3/3/3
f 3/3/3 4/4/4 1/1/1
f 5/5/5 6/6/6 7/7/7
f 7/7/7 8/8/8 5/5/5
f 9/9/9 10/10/10 11/11/11
f 11/11/11 12/12/12 9/9/9
