o mesh2_lod2.obj
v 3.1209239959716797 2.964855909347534 -3.814697265625e-06
v 2.9350757598876953 2.964855909347534 -3.814697265625e-06
v 2.9000377655029297 3.0000016689300537 -3.814697265625e-06
v 3.1209239959716797 2.9648563861846924 7.999998092651367
v 3.1209239959716797 2.964855909347534 -3.814697265625e-06
v 3.1400089263916016 2.964895009994507 -3.814697265625e-06
v 3.1556758880615234 2.962965726852417 -3.814697265625e-06
v 3.169921875 2.957106351852417 -3.814697265625e-06
v 3.182363510131836 2.947394847869873 -3.814697265625e-06
v 3.192129135131836 2.934889078140259 -3.814697265625e-06
v 3.197988510131836 2.9207286834716797 -3.814697265625e-06
v 2.9000377655029297 3.000002145767212 7.999998092651367
v 3.1992568969726562 2.9049112796783447 -3.814697265625e-06
v 3.1209239959716797 2.9648566246032715 15.999998092651367
v 2.9000377655029297 3.000002384185791 15.999998092651367
v 3.1992568969726562 2.8824522495269775 7.999998092651367
v 3.1992568969726562 2.859992265701294 -3.814697265625e-06
v 3.197988510131836 2.844188928604126 -3.814697265625e-06
v 3.192129135131836 2.830028533935547 -3.814697265625e-06
v 3.182363510131836 2.8175151348114014 -3.814697265625e-06
v 3.169921875 2.8078110218048096 -3.814697265625e-06
v 3.1556758880615234 2.801954507827759 -3.814697265625e-06
v 3.1396732330322266 2.800055742263794 -3.814697265625e-06
v 3.1992568969726562 2.8824522495269775 7.999998092651367
v 3.1209239959716797 2.800055742263794 -3.814697265625e-06
v 3.1209239959716797 2.800056219100952 7.999998092651367
v 2.697559356689453 2.800055742263794 1.33514404296875e-05
v 2.697559356689453 2.800056219100952 8.00001335144043
v 3.1992568969726562 2.8824524879455566 15.999998092651367
v 3.1209239959716797 2.8000564575195312 15.999998092651367
v 2.697559356689453 2.8000564575195312 16.000011444091797
v 3.120922088623047 2.9648571014404297 23.999996185302734
v 3.1992549896240234 2.882452964782715 23.999996185302734
v 2.900035858154297 3.000002861022949 23.999996185302734
v 3.1992549896240234 2.882452964782715 23.999996185302734
v 2.9350738525390625 2.964857339859009 31.999998092651367
v 2.900035858154297 3.0000030994415283 31.999998092651367
v 3.120922088623047 2.964857339859009 31.999998092651367
v 3.1400070190429688 2.9648964405059814 31.999998092651367
v 3.1556739807128906 2.9629671573638916 31.999998092651367
v 3.169919967651367 2.9571077823638916 31.999998092651367
v 3.182361602783203 2.9473962783813477 31.999998092651367
v 3.192127227783203 2.9348905086517334 31.999998092651367
v 3.197986602783203 2.9207301139831543 31.999998092651367
v 3.1992549896240234 2.9049127101898193 31.999998092651367
v 3.1992549896240234 2.8599936962127686 31.999998092651367
v 3.120922088623047 2.8000569343566895 23.999996185302734
v 3.197986602783203 2.8441903591156006 31.999998092651367
v 3.192127227783203 2.8300299644470215 31.999998092651367
v 3.182361602783203 2.817516565322876 31.999998092651367
v 3.169919967651367 2.807812452316284 31.999998092651367
v 3.1556739807128906 2.8019559383392334 31.999998092651367
v 3.1396713256835938 2.8000571727752686 31.999998092651367
v 2.6975574493408203 2.8000569343566895 24.00001335144043
v 3.120922088623047 2.8000571727752686 31.999998092651367
v 2.6975574493408203 2.8000571727752686 32.0000114440918
v 1.5351543426513672 3.0000030994415283 31.999998092651367
v 2.900035858154297 3.0000030994415283 31.999998092651367
v 2.900035858154297 3.000002861022949 23.999996185302734
v 1.4998760223388672 3.000002861022949 23.999996185302734
v 1.4998760223388672 2.9648594856262207 31.999998092651367
v 2.9000377655029297 3.000002384185791 15.999998092651367
v 1.4998779296875 3.000002384185791 15.999998092651367
v 2.9000377655029297 3.000002145767212 7.999998092651367
v 1.4998779296875 3.000002145767212 7.999998092651367
v 2.9000377655029297 3.0000016689300537 -3.814697265625e-06
v 1.53515625 3.0000016689300537 -3.814697265625e-06
v 1.4998779296875 2.9648594856262207 -3.814697265625e-06
v 1.9999980926513672 0.2683265507221222 31.999998092651367
v 1.9999980926513672 0.7880331873893738 31.999998092651367
v 1.9999980926513672 0.7880328297615051 23.999996185302734
v 1.9999980926513672 0.26832619309425354 23.999996185302734
v 2.0 0.7880324721336365 15.999998092651367
v 1.4998760223388672 9.059906005859375e-06 23.999996185302734
v 1.4998760223388672 0.09191226959228516 31.999998092651367
v 1.4998760223388672 9.417533874511719e-06 31.999998092651367
v 1.4998779296875 9.059906005859375e-06 15.999998092651367
v 2.0 0.2683258056640625 15.999998092651367
v 2.0 0.7880321145057678 7.999998092651367
v 1.4998779296875 8.702278137207031e-06 7.999998092651367
v 2.0 0.26832544803619385 7.999998092651367
v 2.0 0.7880316972732544 -3.814697265625e-06
v 2.0 0.26832515001296997 -3.814697265625e-06
v 1.4998779296875 0.09191077947616577 -3.814697265625e-06
v 1.4998779296875 8.344650268554688e-06 -3.814697265625e-06
v 1.4998760223388672 0.9649054408073425 31.999998092651367
v 1.4998760223388672 2.9648594856262207 31.999998092651367
v 1.4998760223388672 3.000002861022949 23.999996185302734
v 1.4998760223388672 0.9649050831794739 23.999996185302734
v 1.4998779296875 3.000002384185791 15.999998092651367
v 1.4998779296875 0.9649047255516052 15.999998092651367
v 1.4998779296875 3.000002145767212 7.999998092651367
v 1.4998779296875 0.9649043679237366 7.999998092651367
v 1.4998779296875 2.9648594856262207 -3.814697265625e-06
v 1.4998779296875 0.9649038314819336 -3.814697265625e-06
v 1.9999980926513672 0.7880328297615051 23.999996185302734
v 1.9999980926513672 0.7880331873893738 31.999998092651367
v 1.4998760223388672 0.9649054408073425 31.999998092651367
v 1.4998760223388672 0.9649050831794739 23.999996185302734
v 2.0 0.7880324721336365 15.999998092651367
v 1.4998779296875 0.9649047255516052 15.999998092651367
v 2.0 0.7880321145057678 7.999998092651367
v 1.4998779296875 0.9649043679237366 7.999998092651367
v 2.0 0.7880316972732544 -3.814697265625e-06
v 1.4998779296875 0.9649038314819336 -3.814697265625e-06
v 1.4998397827148438 0.5765768885612488 23.999996185302734
v 1.4998397827148438 0.5765768885612488 31.999998092651367
v 1.6532726287841797 0.5765768885612488 31.999998092651367
v 1.6532726287841797 0.5765768885612488 23.999996185302734
v 1.4998435974121094 0.5765768885612488 15.999998092651367
v 1.6532764434814453 0.5765768885612488 15.999998092651367
v 1.4998435974121094 0.5765768885612488 7.999998092651367
v 1.6532764434814453 0.5765768885612488 7.999998092651367
v 1.4998455047607422 0.5765768885612488 -3.814697265625e-06
v 1.6532783508300781 0.5765768885612488 -3.814697265625e-06
v 1.4998397827148438 0.4765690267086029 31.999998092651367
v 1.4998397827148438 0.5765768885612488 31.999998092651367
v 1.4998397827148438 0.5765768885612488 23.999996185302734
v 1.4998397827148438 0.4765690267086029 23.999996185302734
v 1.4998435974121094 0.5765768885612488 15.999998092651367
v 1.4998435974121094 0.4765690267086029 15.999998092651367
v 1.4998435974121094 0.5765768885612488 7.999998092651367
v 1.4998435974121094 0.4765690267086029 7.999998092651367
v 1.4998455047607422 0.5765768885612488 -3.814697265625e-06
v 1.4998455047607422 0.4765690267086029 -3.814697265625e-06
vn 0.07632093933463796 0.9941291585127201 -0.04892367906066536
vn 0.0 0.0 -1.0
vn 0.14481409001956946 0.9158512720156555 -0.3698630136986301
vn 0.4637964774951076 0.8845401174168297 0.0
vn 0.07632093933463796 0.9941291585127201 -0.04892367906066536
vn 0.05870841487279843 0.9980430528375733 0.0
vn 0.25244618395303325 0.9667318982387475 0.0
vn 0.50293542074364 0.863013698630137 0.0019569471624266144
vn 0.7064579256360078 0.7064579256360078 0.0019569471624266144
vn 0.863013698630137 0.5009784735812133 0.003913894324853229
vn 0.9706457925636007 0.2328767123287671 0.007827788649706457
vn 0.15655577299412915 0.9863013698630136 0.0
vn 0.9980430528375733 0.0410958904109589 0.003913894324853229
vn 0.4637964774951076 0.8845401174168297 0.0
vn 0.15655577299412915 0.9863013698630136 0.0
vn 0.9980430528375733 0.0 0.0
vn 0.9980430528375733 -0.03913894324853229 0.0
vn 0.9706457925636007 -0.2328767123287671 0.0
vn 0.863013698630137 -0.50293542074364 0.0019569471624266144
vn 0.7064579256360078 -0.7064579256360078 0.003913894324853229
vn 0.5009784735812133 -0.8649706457925636 0.005870841487279843
vn 0.25048923679060664 -0.9667318982387475 0.007827788649706457
vn 0.05870841487279843 -0.9980430528375733 0.009784735812133072
vn 0.9980430528375733 0.0 0.0
vn 0.0019569471624266144 -0.9980430528375733 0.003913894324853229
vn 0.3933463796477495 -0.9178082191780822 0.0
vn 0.0 -1.0 0.0
vn 0.0 -1.0 0.0
vn 1.0 0.0 0.0
vn 0.3933463796477495 -0.9178082191780822 0.0
vn 0.0 -1.0 0.0
vn 0.4637964774951076 0.8845401174168297 0.0
vn 0.9980430528375733 0.0 0.0
vn 0.15655577299412915 0.9863013698630136 0.0
vn 0.9980430528375733 0.0 0.0
vn 0.3816046966731898 0.923679060665362 0.0019569471624266144
vn 0.7064579256360078 0.7045009784735812 0.0
vn 0.0019569471624266144 0.9980430528375733 -0.0019569471624266144
vn 0.05870841487279843 0.9980430528375733 -0.009784735812133072
vn 0.25244618395303325 0.9667318982387475 -0.007827788649706457
vn 0.5009784735812133 0.863013698630137 -0.005870841487279843
vn 0.7064579256360078 0.7064579256360078 -0.003913894324853229
vn 0.863013698630137 0.50293542074364 -0.0019569471624266144
vn 0.9706457925636007 0.2328767123287671 0.0
vn 0.9980430528375733 0.03913894324853229 0.0
vn 0.9980430528375733 -0.0410958904109589 -0.003913894324853229
vn 0.3933463796477495 -0.9178082191780822 0.0
vn 0.9706457925636007 -0.2328767123287671 -0.007827788649706457
vn 0.863013698630137 -0.5009784735812133 -0.003913894324853229
vn 0.7064579256360078 -0.7064579256360078 -0.0019569471624266144
vn 0.5009784735812133 -0.863013698630137 -0.0019569471624266144
vn 0.25048923679060664 -0.9667318982387475 0.0
vn 0.05870841487279843 -0.9980430528375733 0.0
vn 0.0 -1.0 0.0
vn 0.0 -1.0 0.0
vn 0.0 -1.0 0.0
vn -0.3796477495107632 0.923679060665362 0.0
vn 0.0 1.0 0.0
vn 0.0 1.0 0.0
vn 0.0 0.9980430528375733 0.0
vn -0.7045009784735812 0.7084148727984344 0.0019569471624266144
vn 0.0 1.0 0.0
vn 0.0 1.0 0.0
vn 0.0 1.0 0.0
vn 0.0 0.9980430528375733 0.0
vn 0.0 1.0 0.0
vn -0.3796477495107632 0.923679060665362 0.0
vn -0.7045009784735812 0.7084148727984344 -0.0019569471624266144
vn -0.8180039138943248 0.5733855185909981 -0.005870841487279843
vn -1.0 0.0 0.0
vn -1.0 0.0 0.0
vn -0.8571428571428571 0.512720156555773 0.0
vn -1.0 0.0 0.0
vn -0.47162426614481406 0.8806262230919765 0.0
vn -0.8140900195694716 0.5792563600782779 -0.005870841487279843
vn -1.0 0.0 0.0
vn -0.47162426614481406 0.8806262230919765 0.0
vn -0.8571428571428571 0.512720156555773 0.0
vn -1.0 0.0 0.0
vn -0.4755381604696673 0.8786692759295499 0.003913894324853229
vn -0.8571428571428571 0.5146771037181996 0.0019569471624266144
vn -1.0 0.0 0.0
vn -0.8160469667318982 0.5772994129158513 0.0
vn -0.8160469667318982 0.5772994129158513 0.0
vn -1.0 0.0 0.0
vn -1.0 0.0 0.0
vn -1.0 0.0 0.0
vn -1.0 0.0 0.0
vn -1.0 0.0 0.0
vn -1.0 0.0 0.0
vn -1.0 0.0 0.0
vn -1.0 0.0 0.0
vn -1.0 0.0 0.0
vn -1.0 0.0 0.0
vn -1.0 0.0 0.0
vn -0.33268101761252444 -0.9412915851272016 0.0
vn -0.33268101761252444 -0.9412915851272016 0.0
vn -0.33268101761252444 -0.9412915851272016 0.0
vn -0.33268101761252444 -0.9412915851272016 0.0
vn -0.33268101761252444 -0.9412915851272016 0.0
vn -0.33268101761252444 -0.9412915851272016 0.0
vn -0.33268101761252444 -0.9412915851272016 0.0
vn -0.33268101761252444 -0.9412915851272016 0.0
vn -0.33268101761252444 -0.9412915851272016 0.0
vn -0.33268101761252444 -0.9412915851272016 0.0
vn 0.0 1.0 0.0
vn 0.0 1.0 0.0
vn 0.0 1.0 0.0
vn 0.0 1.0 0.0
vn 0.0 1.0 0.0
vn 0.0 1.0 0.0
vn 0.0 1.0 0.0
vn 0.0 1.0 0.0
vn 0.0 1.0 0.0
vn 0.0 1.0 0.0
vn -1.0 0.0 0.0
vn -1.0 0.0 0.0
vn -1.0 0.0 0.0
vn -1.0 0.0 0.0
vn -1.0 0.0 0.0
vn -1.0 0.0 0.0
vn -1.0 0.0 0.0
vn -1.0 0.0 0.0
vn -1.0 0.0 0.0
vn -1.0 0.0 0.0
vt 10.999998092651367 0.9130226969718933
vt 10.99999713897705 0.8897979259490967
vt 10.99999713897705 0.8835638165473938
vt 11.249999046325684 0.9130229353904724
vt 10.999998092651367 0.9130226969718933
vt 10.99999713897705 0.9154564738273621
vt 10.99999713897705 0.9174554347991943
vt 10.999998092651367 0.9194056391716003
vt 10.999998092651367 0.9214403033256531
vt 10.999998092651367 0.9234635233879089
vt 10.999998092651367 0.92542564868927
vt 11.249999046325684 0.8835638761520386
vt 10.999999046325684 0.9274536967277527
vt 11.499999046325684 0.9130228757858276
vt 11.499999046325684 0.8835639357566833
vt 11.249999046325684 0.9302791357040405
vt 10.999999046325684 0.9331046342849731
vt 11.0 0.9351197481155396
vt 11.0 0.9370638728141785
vt 11.0 0.9390685558319092
vt 11.0 0.9410861134529114
vt 11.0 0.9430159330368042
vt 11.0 0.9450387358665466
vt 11.249999046325684 0.9302791357040405
vt 11.0 0.9474254846572876
vt 11.25 0.9474254846572876
vt 11.0 1.0
vt 11.25 1.0
vt 11.5 0.9302793741226196
vt 11.5 0.9474254846572876
vt 11.5 1.0
vt 11.75 0.9130229353904724
vt 11.75 0.9302794933319092
vt 11.750000953674316 0.8835639953613281
vt 11.75 0.9302794933319092
vt 12.0 0.8897981643676758
vt 12.0 0.8835639953613281
vt 12.0 0.9130229949951172
vt 12.0 0.9154567718505859
vt 12.0 0.9174556732177734
vt 12.0 0.9194059371948242
vt 12.0 0.921440601348877
vt 12.0 0.9234638214111328
vt 12.0 0.9254260063171387
vt 12.0 0.9274539947509766
vt 12.0 0.9331049919128418
vt 11.75 0.9474255442619324
vt 12.0 0.9351201057434082
vt 12.0 0.9370641708374023
vt 12.0 0.9390687942504883
vt 12.0 0.9410862922668457
vt 12.0 0.9430160522460938
vt 12.0 0.9450387954711914
vt 11.75 1.0
vt 12.0 0.9474254846572876
vt 12.0 1.0
vt 12.0 0.7129478454589844
vt 12.0 0.8835639953613281
vt 11.750000953674316 0.8835639953613281
vt 11.750000953674316 0.7098285555839539
vt 12.0 0.7067093849182129
vt 11.499999046325684 0.8835639357566833
vt 11.499999046325684 0.7098284959793091
vt 11.249999046325684 0.8835638761520386
vt 11.249999046325684 0.7098284363746643
vt 10.99999713897705 0.8835638165473938
vt 10.99999713897705 0.7129475474357605
vt 10.999996185302734 0.706709086894989
vt 12.0 0.32541608810424805
vt 12.0 0.3903844356536865
vt 11.75 0.3903844356536865
vt 11.75 0.32541608810424805
vt 11.499999046325684 0.3903844356536865
vt 11.75 0.24763479828834534
vt 12.0 0.2591209411621094
vt 12.0 0.2476348876953125
vt 11.499998092651367 0.24763473868370056
vt 11.499999046325684 0.32541608810424805
vt 11.249998092651367 0.3903844356536865
vt 11.24999713897705 0.2476346343755722
vt 11.249998092651367 0.32541608810424805
vt 10.999996185302734 0.39038440585136414
vt 10.999996185302734 0.32541605830192566
vt 10.999996185302734 0.25912100076675415
vt 10.999996185302734 0.24763454496860504
vt 12.0 0.4566988945007324
vt 12.0 0.7067093849182129
vt 11.750000953674316 0.7098285555839539
vt 11.75 0.45669883489608765
vt 11.499999046325684 0.7098284959793091
vt 11.499999046325684 0.4566987156867981
vt 11.249999046325684 0.7098284363746643
vt 11.249998092651367 0.4566986560821533
vt 10.999996185302734 0.706709086894989
vt 10.999996185302734 0.45669856667518616
vt 11.75 0.3903844356536865
vt 12.0 0.3903844356536865
vt 12.0 0.4566988945007324
vt 11.75 0.45669883489608765
vt 11.499999046325684 0.3903844356536865
vt 11.499999046325684 0.4566987156867981
vt 11.249998092651367 0.3903844356536865
vt 11.249998092651367 0.4566986560821533
vt 10.999996185302734 0.39038440585136414
vt 10.999996185302734 0.45669856667518616
vt 0.25000935792922974 0.019178420305252075
vt 9.538440281176008e-06 0.019178390502929688
vt 1.2741723367071245e-05 0.0
vt 0.2500126361846924 -9.934112199516676e-09
vt 0.5000091195106506 0.019178450107574463
vt 0.5000123977661133 -1.9868217293605994e-08
vt 0.7500090003013611 0.01917847990989685
vt 0.7500121593475342 -2.980232949312267e-08
vt 1.0000088214874268 0.01917850971221924
vt 1.0000115633010864 -3.973642037635727e-08
vt 6.3197894633049145e-06 0.03167867660522461
vt 9.538440281176008e-06 0.019178390502929688
vt 0.25000935792922974 0.019178420305252075
vt 0.25000619888305664 0.03167874738574028
vt 0.5000091195106506 0.019178450107574463
vt 0.5000059604644775 0.03167881816625595
vt 0.7500090003013611 0.01917847990989685
vt 0.7500057220458984 0.03167888522148132
vt 1.0000088214874268 0.01917850971221924
vt 1.000005841255188 0.031678956001996994
usemtl TrackBorders
f 1/1/1 2/2/2 3/3/3
f 4/4/4 5/5/5 3/3/3
f 6/6/6 5/5/5 4/4/4
f 7/7/7 6/6/6 4/4/4
f 8/8/8 7/7/7 4/4/4
f 9/9/9 8/8/8 4/4/4
f 10/10/10 9/9/9 4/4/4
f 10/10/10 4/4/4 11/11/11
f 12/12/12 4/4/4 3/3/3
f 4/4/4 13/13/13 11/11/11
f 14/14/14 4/4/4 12/12/12
f 12/12/12 15/15/15 14/14/14
f 4/4/4 16/16/16 13/13/13
f 16/16/16 4/4/4 14/14/14
f 13/13/13 16/16/16 17/17/17
f 18/18/18 17/17/17 16/16/16
f 19/19/19 18/18/18 16/16/16
f 20/20/20 19/19/19 16/16/16
f 21/21/21 20/20/20 16/16/16
f 22/22/22 21/21/21 16/16/16
f 22/22/22 16/16/16 23/23/23
f 24/24/24 25/25/25 23/23/23
f 16/16/16 26/26/26 25/25/25
f 27/27/27 25/25/25 26/26/26
f 26/26/26 28/28/28 27/27/27
f 26/26/26 16/16/16 29/29/29
f 14/14/14 29/29/29 16/16/16
f 28/28/28 26/26/26 30/30/30
f 29/29/29 30/30/30 26/26/26
f 30/30/30 31/31/31 28/28/28
f 29/29/29 14/14/14 32/32/32
f 32/32/32 14/14/14 15/15/15
f 30/30/30 29/29/29 33/33/33
f 15/15/15 34/34/34 32/32/32
f 32/32/32 35/35/35 29/29/29
f 36/36/36 34/34/34 37/37/37
f 36/36/36 38/38/38 34/34/34
f 38/38/38 32/32/32 34/34/34
f 35/35/35 32/32/32 38/38/38
f 35/35/35 38/38/38 39/39/39
f 35/35/35 39/39/39 40/40/40
f 35/35/35 40/40/40 41/41/41
f 42/42/42 35/35/35 41/41/41
f 42/42/42 43/43/43 35/35/35
f 43/43/43 44/44/44 35/35/35
f 44/44/44 45/45/45 35/35/35
f 45/45/45 46/46/46 35/35/35
f 47/47/47 33/33/33 46/46/46
f 33/33/33 47/47/47 30/30/30
f 31/31/31 30/30/30 47/47/47
f 47/47/47 46/46/46 48/48/48
f 47/47/47 48/48/48 49/49/49
f 47/47/47 49/49/49 50/50/50
f 47/47/47 50/50/50 51/51/51
f 52/52/52 47/47/47 51/51/51
f 52/52/52 53/53/53 47/47/47
f 47/47/47 54/54/54 31/31/31
f 53/53/53 55/55/55 47/47/47
f 54/54/54 47/47/47 55/55/55
f 55/55/55 56/56/56 54/54/54
f 57/57/57 58/58/58 59/59/59
f 59/59/59 60/60/60 57/57/57
f 60/60/60 61/61/61 57/57/57
f 60/60/60 59/59/59 62/62/62
f 62/62/62 63/63/63 60/60/60
f 63/63/63 62/62/62 64/64/64
f 64/64/64 65/65/65 63/63/63
f 65/65/65 64/64/64 66/66/66
f 66/66/66 67/67/67 65/65/65
f 67/67/67 68/68/68 65/65/65
f 69/69/69 70/70/70 71/71/71
f 71/71/71 72/72/72 69/69/69
f 72/72/72 71/71/71 73/73/73
f 69/69/69 72/72/72 74/74/74
f 74/74/74 75/75/75 69/69/69
f 75/75/75 74/74/74 76/76/76
f 77/77/77 74/74/74 72/72/72
f 73/73/73 78/78/78 72/72/72
f 72/72/72 78/78/78 77/77/77
f 78/78/78 73/73/73 79/79/79
f 80/80/80 77/77/77 78/78/78
f 79/79/79 81/81/81 78/78/78
f 78/78/78 81/81/81 80/80/80
f 81/81/81 79/79/79 82/82/82
f 82/82/82 83/83/83 81/81/81
f 81/81/81 83/83/83 84/84/84
f 84/84/84 80/80/80 81/81/81
f 80/80/80 84/84/84 85/85/85
f 86/86/86 87/87/87 88/88/88
f 88/88/88 89/89/89 86/86/86
f 89/89/89 88/88/88 90/90/90
f 90/90/90 91/91/91 89/89/89
f 91/91/91 90/90/90 92/92/92
f 92/92/92 93/93/93 91/91/91
f 93/93/93 92/92/92 94/94/94
f 94/94/94 95/95/95 93/93/93
f 96/96/96 97/97/97 98/98/98
f 98/98/98 99/99/99 96/96/96
f 100/100/100 96/96/96 99/99/99
f 99/99/99 101/101/101 100/100/100
f 102/102/102 100/100/100 101/101/101
f 101/101/101 103/103/103 102/102/102
f 104/104/104 102/102/102 103/103/103
f 103/103/103 105/105/105 104/104/104
f 106/106/106 107/107/107 108/108/108
f 108/108/108 109/109/109 106/106/106
f 110/110/110 106/106/106 109/109/109
f 109/109/109 111/111/111 110/110/110
f 112/112/112 110/110/110 111/111/111
f 111/111/111 113/113/113 112/112/112
f 114/114/114 112/112/112 113/113/113
f 113/113/113 115/115/115 114/114/114
f 116/116/116 117/117/117 118/118/118
f 118/118/118 119/119/119 116/116/116
f 119/119/119 118/118/118 120/120/120
f 120/120/120 121/121/121 119/119/119
f 121/121/121 120/120/120 122/122/122
f 122/122/122 123/123/123 121/121/121
f 123/123/123 122/122/122 124/124/124
f 124/124/124 125/125/125 123/123/123
